<?xml version="1.0" standalone="no"?>
<!DOCTYPE svg PUBLIC "-//W3C//DTD SVG 1.1//EN" "http://www.w3.org/Graphics/SVG/1.1/DTD/svg11.dtd">
<svg width="476px" height="32px" version="1.1" xmlns="http://www.w3.org/2000/svg" xmlns:xlink="http://www.w3.org/1999/xlink" xml:space="preserve" style="fill-rule:evenodd;clip-rule:evenodd;stroke-linejoin:round;stroke-miterlimit:1.41421;">
    <g>
        <g id="Layer1">
            <g>
                <path d="M1.63993,31.1732C1.0126,31.0565 1.00483,31.0536 0.475105,30.7306L0.121183,30.2473C0.0809668,30.058 0.0337153,29.8698 0.000534643,29.6793C-0.00192846,29.6652 0.00490442,29.4372 0.00514745,29.4304C0.0130132,29.2107 0.0305741,28.9912 0.0564117,28.7726C0.137123,28.0896 0.297842,27.4153 0.506956,26.7551C0.82679,25.7453 1.25926,24.7656 1.74827,23.8127C2.33972,22.6602 3.01712,21.5437 3.74018,20.4537C4.828,18.8138 6.02179,17.2312 7.26963,15.6862C8.69649,13.9195 10.1977,12.2015 11.744,10.5177C13.4975,8.60829 15.3104,6.74276 17.1672,4.91356C18.6345,3.46803 20.127,2.04187 21.6604,0.65241L21.7234,0.595743L22.2604,0.273093L22.8944,0.159764C163.877,0.159764 304.859,-0.200156 445.841,0.160441C446.1,0.162449 446.36,0.16578 446.619,0.170531C447.41,0.18927 448.199,0.223398 448.987,0.285734C449.669,0.339758 450.35,0.41337 451.027,0.512777C451.557,0.590715 452.084,0.684566 452.606,0.798628C453.016,0.888193 453.423,0.990283 453.824,1.10761C454.139,1.19969 454.451,1.30124 454.757,1.41382C454.996,1.5017 455.232,1.59636 455.464,1.69863C455.678,1.79254 455.887,1.8929 456.092,2.00041C457.1,2.52958 458.038,3.25372 458.571,4.20225C458.646,4.33482 458.709,4.47115 458.766,4.61053L458.766,4.61107L475.742,26.6779L475.997,27.2087C476.007,27.783 476.005,27.7904 475.769,28.3242L475.319,28.7389C474.731,28.9665 474.723,28.9681 474.082,28.9765L473.483,28.7631L473.02,28.3603L455.893,6.09645L455.627,5.51981C455.632,5.54554 455.632,5.54524 455.639,5.57091C455.639,5.57171 455.649,5.59935 455.644,5.58563C455.629,5.5526 455.611,5.52143 455.591,5.49043C455.571,5.45986 455.55,5.43017 455.528,5.40064C455.298,5.11081 454.985,4.88153 454.655,4.68769C454.116,4.37109 453.516,4.14158 452.908,3.95738C451.962,3.67114 450.977,3.49278 449.989,3.3689C448.526,3.18536 447.048,3.12709 445.572,3.12331L23.5859,3.12331C22.508,4.10806 21.4529,5.11343 20.4098,6.12772C18.7406,7.75067 17.1069,9.40323 15.5174,11.0893C14.0919,12.6012 12.7014,14.1403 11.3637,15.7155C10.1795,17.1099 9.03534,18.5327 7.96105,19.9971C7.22646,20.9985 6.52394,22.0196 5.8769,23.0686C5.32846,23.9577 4.81807,24.8676 4.38241,25.8059C4.09957,26.4152 3.8476,27.0373 3.65315,27.6741C3.46838,28.2792 3.33744,28.8977 3.30949,29.5254L3.30723,29.6092L3.30637,29.7036L3.17537,30.2697L2.81268,30.7478L2.27351,31.065C2.06232,31.1011 1.85113,31.1371 1.63993,31.1732Z" style="fill:rgb(250,243,241);fill-rule:nonzero;"/>
            </g>
            <g>
                <path d="M15.4364,27.9624C15.3424,27.9581 15.3186,27.959 15.2254,27.9466C15.0156,27.9187 14.8123,27.8542 14.6295,27.7578C14.5078,27.6935 14.3953,27.6152 14.2957,27.5253C13.944,27.208 13.7688,26.7546 13.8262,26.3103C13.8466,26.153 13.8953,25.9987 13.9699,25.8552C14.0547,25.692 14.1755,25.5524 14.3064,25.4172C14.403,25.3174 14.4602,25.2597 14.5609,25.1611C14.9604,24.7701 15.3776,24.3939 15.7936,24.0171C16.7261,23.1772 17.6632,22.3414 18.5934,21.4994C20.0211,20.2026 21.434,18.8919 22.7899,17.5341C23.8935,16.4289 24.9692,15.2947 25.9367,14.0903C26.208,13.7526 26.4703,13.4087 26.7168,13.056C26.949,12.7238 27.1685,12.3834 27.3591,12.0304C27.4794,11.8077 27.5892,11.5793 27.6731,11.3433C27.7353,11.1682 27.7859,10.9869 27.7881,10.8023L27.7926,10.7074C27.804,10.6121 27.8184,10.5196 27.8467,10.4269C27.9026,10.2436 27.9983,10.0703 28.1269,9.91918C28.4519,9.53746 28.9765,9.31715 29.5116,9.33766C29.6881,9.34443 29.8633,9.37675 30.0284,9.43303C30.1936,9.48932 30.3484,9.56946 30.4854,9.66952C30.6497,9.78964 30.7878,9.93815 30.8898,10.1048C30.9919,10.2714 31.0577,10.4555 31.0826,10.6443C31.1036,10.8043 31.0943,10.9683 31.0797,11.1285C31.0245,11.7376 30.8187,12.3302 30.5537,12.8904C30.4616,13.085 30.3616,13.2765 30.2558,13.4654C30.118,13.7111 29.9703,13.9524 29.8155,14.1898C29.2715,15.0245 28.645,15.815 27.9889,16.5814C27.2172,17.4828 26.3987,18.3518 25.5589,19.2027C24.0742,20.707 22.5194,22.1548 20.9444,23.5829C19.9466,24.4877 18.9375,25.3823 17.9392,26.2866C17.7101,26.4953 17.482,26.7048 17.2561,26.9163C17.0803,27.0833 16.9041,27.2501 16.7405,27.4269L16.6703,27.498C16.6035,27.5575 16.5883,27.5739 16.5153,27.6274C16.3512,27.7479 16.1613,27.8395 15.9588,27.8959C15.8565,27.9244 15.7538,27.9404 15.648,27.9539C15.542,27.9612 15.5424,27.9612 15.4364,27.9624Z" style="fill:rgb(250,243,241);fill-rule:nonzero;"/>
            </g>
            <g>
                <path d="M29.2057,31.748C29.101,31.7433 29.0744,31.7446 28.9707,31.7299C28.8152,31.7078 28.6634,31.6658 28.5212,31.6053C28.0913,31.4227 27.7643,31.0744 27.6367,30.6636C27.5945,30.5276 27.5742,30.3864 27.5764,30.2453C27.5786,30.1042 27.6035,29.9635 27.65,29.8287C27.681,29.7388 27.6941,29.718 27.7355,29.6317C28.6309,27.9384 29.5175,26.2413 30.4148,24.5488C30.6616,24.0852 30.9086,23.6217 31.158,23.1592C31.3506,22.8019 31.5394,22.4421 31.7413,22.0889C31.9396,21.7422 32.1468,21.3994 32.3546,21.0572C32.6908,20.5036 33.0327,19.9529 33.3793,19.4045C34.164,18.1626 34.9708,16.9316 35.8108,15.7192C36.5498,14.6526 37.3125,13.5971 38.1343,12.58C38.4389,12.203 38.7522,11.8313 39.0804,11.4704C39.3728,11.1489 39.677,10.835 40.0039,10.5412C40.125,10.4323 40.2493,10.3262 40.3779,10.2245C40.4727,10.1496 40.5697,10.0769 40.6696,10.0075C40.7707,9.93739 40.8745,9.87037 40.9818,9.80807C41.0564,9.76477 41.1315,9.72406 41.2093,9.68561C41.7425,9.42221 42.3999,9.27543 42.9927,9.46001C43.1042,9.49472 43.2115,9.54017 43.3122,9.59534C43.4802,9.68731 43.6293,9.80627 43.7508,9.94505C43.848,10.0561 43.9273,10.1795 43.9856,10.3105C44.177,10.7405 44.1302,11.2373 43.8609,11.6323C43.7788,11.7527 43.6775,11.8625 43.561,11.9573C43.386,12.0996 43.1771,12.2074 42.952,12.2717C42.8566,12.2989 42.8369,12.3004 42.7442,12.3174C42.6985,12.3466 42.6551,12.3784 42.6119,12.4106C42.3137,12.642 42.0494,12.9071 41.7959,13.1772C41.5139,13.4776 41.2453,13.7885 40.986,14.1049C40.2815,14.9642 39.6242,15.8537 38.9883,16.7548C38.037,18.1027 37.1328,19.4774 36.2558,20.865C35.9185,21.3989 35.5856,21.9351 35.2582,22.474C35.064,22.7939 34.8702,23.1143 34.6848,23.4383C34.494,23.7715 34.3163,24.1116 34.1345,24.4488C33.8879,24.9062 33.6436,25.3645 33.3996,25.8229C32.6664,27.2059 31.9405,28.5919 31.2117,29.9766L30.7229,30.901L30.6686,30.9949C30.6063,31.086 30.5425,31.1725 30.4629,31.2526C30.253,31.4636 29.9762,31.6181 29.6723,31.6939C29.5571,31.7226 29.4423,31.7358 29.3237,31.7457C29.2843,31.7465 29.245,31.7472 29.2057,31.748ZM42.4879,12.3411C42.5148,12.3406 42.5142,12.34 42.5452,12.3382L42.5459,12.3381C42.5266,12.3391 42.5073,12.3401 42.4879,12.3411Z" style="fill:rgb(250,243,241);fill-rule:nonzero;"/>
            </g>
            <g>
                <path d="M61.0947,17.8697C61.0024,17.8696 60.9791,17.8716 60.8872,17.8637C60.6803,17.8461 60.4775,17.7932 60.2924,17.7085C60.1382,17.6379 59.9966,17.5456 59.8742,17.4358C59.4779,17.0801 59.3081,16.555 59.4308,16.0645C59.4953,15.8066 59.6481,15.5756 59.7893,15.3466C60.0212,14.9705 60.268,14.6019 60.5135,14.2327C60.9899,13.5228 61.4695,12.8145 61.9464,12.1048C62.8074,10.8159 63.6577,9.52121 64.4556,8.19987C64.9843,7.32432 65.4923,6.43786 65.9535,5.53197C66.3247,4.80298 66.6708,4.05984 66.9357,3.29376C67.1096,2.79058 67.261,2.26758 67.2683,1.7378L67.2729,1.64481C67.2827,1.56259 67.283,1.54164 67.3014,1.46049C67.3429,1.27794 67.4231,1.10279 67.5366,0.946741C67.6501,0.790688 67.7966,0.654297 67.9662,0.546663C68.4536,0.237413 69.1063,0.189387 69.6434,0.423261C69.7992,0.491078 69.9428,0.580921 70.0675,0.688561C70.1923,0.796201 70.2979,0.921434 70.3794,1.05836C70.4773,1.22271 70.5401,1.40347 70.5636,1.58858C70.5863,1.76792 70.5732,1.95251 70.5593,2.13195C70.5331,2.4705 70.4747,2.80668 70.3967,3.13859C70.2721,3.66882 70.0977,4.18913 69.8986,4.70044C69.6821,5.25639 69.4351,5.80263 69.1712,6.34175C68.6259,7.45577 68.0088,8.54102 67.363,9.61059C66.6434,10.8022 65.8839,11.9741 65.1097,13.1378C64.4521,14.1263 63.7806,15.1072 63.1233,16.0959C62.9992,16.2845 62.8761,16.4737 62.7552,16.664C62.6731,16.7957 62.5926,16.9278 62.5161,17.0621L62.466,17.1437C62.3911,17.2494 62.311,17.3483 62.2119,17.437C62.0402,17.5907 61.831,17.7096 61.6027,17.7831C61.5039,17.8149 61.4042,17.8348 61.3013,17.8523C61.1983,17.8639 61.1987,17.8639 61.0947,17.8697Z" style="fill:rgb(250,243,241);fill-rule:nonzero;"/>
            </g>
            <g>
                <path d="M115.312,23.6951C115.227,23.6949 115.205,23.6965 115.12,23.6896C114.961,23.6767 114.803,23.6428 114.654,23.5894C114.111,23.3944 113.716,22.9435 113.633,22.4244C113.61,22.2822 113.61,22.137 113.634,21.9949C113.647,21.9191 113.654,21.9007 113.674,21.8263C113.751,21.5971 113.841,21.3711 113.924,21.1437C114.068,20.7535 114.209,20.3628 114.351,19.972C114.623,19.2157 114.894,18.4591 115.172,17.7042C115.275,17.425 115.38,17.1461 115.485,16.8675C115.846,15.9289 116.223,14.9958 116.643,14.0772C116.773,13.7929 116.907,13.5099 117.045,13.2285C117.143,13.0283 117.246,12.8301 117.345,12.6301C117.502,12.29 117.642,11.9436 117.794,11.6016C117.923,11.3154 118.056,11.0305 118.199,10.7499C118.323,10.5081 118.454,10.2691 118.596,10.0357C118.651,9.94624 118.707,9.85761 118.766,9.77011C119.164,9.17307 119.678,8.59055 120.403,8.2993C120.514,8.25492 120.628,8.21769 120.744,8.18886C120.872,8.15741 121.002,8.13562 121.134,8.12453C121.317,8.10905 121.503,8.11402 121.684,8.14838C121.872,8.18415 122.053,8.24958 122.216,8.3409C122.379,8.43222 122.525,8.54918 122.643,8.68504C122.983,9.07434 123.084,9.60312 122.907,10.0714C122.856,10.2076 122.783,10.337 122.69,10.4542C122.597,10.5715 122.486,10.6766 122.359,10.7651C122.195,10.8806 122.007,10.9664 121.806,11.0191C121.77,11.0612 121.736,11.1048 121.703,11.1488C121.478,11.4577 121.299,11.7919 121.132,12.1284C120.878,12.6428 120.664,13.1716 120.432,13.6939C120.38,13.8064 120.324,13.9169 120.268,14.0277C120.202,14.1583 120.137,14.2892 120.072,14.4201C119.946,14.6804 119.946,14.6802 119.823,14.9415C119.583,15.459 119.353,15.9796 119.136,16.5051C118.695,17.5739 118.299,18.657 117.908,19.7411C117.627,20.5182 117.348,21.2957 117.064,22.0718C116.988,22.276 116.913,22.48 116.837,22.6839C116.792,22.7926 116.742,22.8967 116.673,22.9953C116.504,23.24 116.255,23.4376 115.963,23.5586C115.816,23.6197 115.663,23.6558 115.504,23.6806C115.408,23.6903 115.409,23.6903 115.312,23.6951ZM121.38,11.0793C121.382,11.0793 121.381,11.0792 121.38,11.0793Z" style="fill:rgb(250,243,241);fill-rule:nonzero;"/>
            </g>
            <g>
                <path d="M337.408,28.6188C337.223,28.6166 337.042,28.599 336.864,28.5538C336.759,28.5272 336.658,28.4941 336.559,28.4525C336.474,28.4164 336.39,28.3737 336.311,28.3274C335.701,27.9704 335.35,27.359 335.086,26.7705C335.029,26.6447 334.977,26.5176 334.926,26.3897C334.858,26.2157 334.794,26.0402 334.733,25.864C334.656,25.6415 334.584,25.4177 334.516,25.1931C334.423,24.8908 334.337,24.5871 334.254,24.2826C334.134,23.8399 334.023,23.3949 333.904,22.9518L333.884,22.8804C333.784,22.6756 333.687,22.4697 333.591,22.2631C333.513,22.0929 333.437,21.9224 333.362,21.7513C332.923,20.7325 332.548,19.6945 332.237,18.6385C331.885,17.4419 331.608,16.2287 331.343,15.0146C331.128,14.0281 330.916,13.0412 330.694,12.056L330.677,11.9623C330.667,11.8784 330.662,11.8574 330.662,11.7729C330.66,11.6145 330.688,11.4562 330.742,11.3055C330.808,11.1247 330.912,10.9556 331.048,10.81C331.162,10.6887 331.297,10.5839 331.448,10.5009C331.904,10.2492 332.482,10.2123 332.973,10.4037C333.135,10.4668 333.286,10.5533 333.417,10.659C333.602,10.807 333.748,10.9921 333.842,11.1972C333.883,11.286 333.91,11.3762 333.935,11.4694C334.051,11.9869 334.166,12.5047 334.279,13.0228C334.43,13.7199 334.58,14.4171 334.735,15.1135C334.807,15.4338 334.881,15.7538 334.957,16.0736C335.199,17.0748 335.467,18.0706 335.807,19.0492C336.015,19.6493 336.249,20.2423 336.508,20.8265C336.653,21.1519 336.806,21.4737 336.963,21.7943L337.001,21.8836C337.044,22.002 337.08,22.1206 337.114,22.2413C337.234,22.6869 337.346,23.1341 337.466,23.5797C337.616,24.1247 337.774,24.6676 337.967,25.2018L337.988,25.259L338.081,25.2692L338.185,25.2869C338.276,25.3079 338.3,25.3112 338.389,25.34C338.522,25.3831 338.648,25.4415 338.765,25.5135C338.91,25.6034 339.039,25.7143 339.146,25.8407C339.231,25.9418 339.301,26.0527 339.355,26.1699C339.49,26.4637 339.515,26.7938 339.427,27.1015C339.378,27.2749 339.289,27.4382 339.191,27.5933C339.054,27.8083 338.885,28.0085 338.678,28.1724C338.56,28.2648 338.434,28.344 338.297,28.4118C338.057,28.531 337.787,28.5931 337.516,28.6146C337.463,28.6175 337.464,28.6169 337.408,28.6188Z" style="fill:rgb(250,243,241);fill-rule:nonzero;"/>
            </g>
            <g>
                <path d="M442.39,32C442.288,31.9944 442.262,31.9954 442.161,31.9802C441.971,31.9518 441.787,31.8934 441.62,31.8085C441.18,31.5858 440.873,31.1854 440.799,30.738C440.773,30.5847 440.775,30.4294 440.804,30.2766C440.78,30.1862 440.751,30.0968 440.724,30.0074C440.572,29.5391 440.398,29.0771 440.217,28.6172C440.016,28.1054 439.806,27.5965 439.592,27.0893C439.351,26.5214 439.105,25.9556 438.852,25.3923C438.697,25.049 438.542,24.706 438.374,24.3677L438.359,24.3393C438.198,24.0983 438.038,23.857 437.878,23.6154C437.682,23.3146 437.486,23.0136 437.294,22.7108C436.912,22.104 436.54,21.4919 436.192,20.8686C435.806,20.1761 435.448,19.4709 435.12,18.7543C434.655,17.7389 434.25,16.7026 433.869,15.6598C433.475,14.579 433.106,13.4908 432.739,12.4022L432.709,12.3022C432.69,12.212 432.682,12.1896 432.674,12.0979C432.658,11.9261 432.675,11.7519 432.726,11.5854C432.776,11.419 432.859,11.2607 432.97,11.1197C433.058,11.007 433.165,10.9054 433.285,10.8189C433.678,10.5353 434.206,10.4275 434.698,10.5307C434.885,10.57 435.064,10.6388 435.225,10.7332C435.451,10.8655 435.639,11.0473 435.769,11.2591C435.825,11.3509 435.866,11.4457 435.903,11.5446C436.07,12.0405 436.239,12.5361 436.408,13.0313C437.033,14.8363 437.675,16.6427 438.532,18.3721C438.908,19.1318 439.325,19.8746 439.769,20.6043C440.238,21.3742 440.736,22.129 441.239,22.8809L441.28,22.9484C441.439,23.23 441.57,23.5238 441.704,23.8151C441.859,24.1497 442.009,24.4858 442.157,24.8224C442.382,25.3325 442.603,25.8442 442.817,26.3578C442.951,26.6776 443.083,26.9981 443.211,27.3196C443.333,27.6249 443.452,27.9312 443.568,28.2385C443.639,28.4266 443.707,28.6154 443.773,28.8049C443.818,28.9346 443.861,29.0646 443.903,29.1951C443.965,29.3904 444.023,29.5871 444.069,29.786C444.135,30.0707 444.174,30.3604 444.131,30.6503C444.112,30.7797 444.07,30.9053 444.02,31.0273C443.989,31.1031 443.947,31.1794 443.9,31.2481C443.824,31.3561 443.742,31.4574 443.642,31.5482C443.523,31.6566 443.384,31.7492 443.234,31.8209C443.109,31.8811 442.974,31.9273 442.835,31.9575C442.746,31.9768 442.723,31.9779 442.632,31.9897L442.621,31.9909L442.506,31.9991C442.467,31.9994 442.429,31.9997 442.39,32ZM441.348,29.402ZM441.612,29.2336L441.696,29.1928L441.77,29.1622L441.67,29.1963C441.651,29.2087 441.631,29.2211 441.612,29.2336ZM441.929,29.1082L442.019,29.0842L442.132,29.0618L442.246,29.0465L442.052,29.0664C442.011,29.0803 441.97,29.0942 441.929,29.1082Z" style="fill:rgb(250,243,241);fill-rule:nonzero;"/>
            </g>
            <g>
                <path d="M405.445,18.739C405.291,18.7344 405.136,18.7202 404.987,18.6787C404.772,18.6186 404.565,18.5298 404.389,18.4018C404.285,18.326 404.19,18.2423 404.104,18.1495C403.897,17.9253 403.752,17.658 403.62,17.3943C403.491,17.1369 403.374,16.8745 403.259,16.6121C403.039,16.1069 402.826,15.5991 402.604,15.0947C402.511,14.8861 402.416,14.6779 402.311,14.4738C402.278,14.4092 402.241,14.3459 402.206,14.2821C402.14,14.1617 402.076,14.0407 402.012,13.9194C401.927,13.7577 401.845,13.5955 401.764,13.4326C401.49,12.8711 401.233,12.3039 400.993,11.7301C400.464,10.4644 400.005,9.17652 399.515,7.89839C399.425,7.66687 399.335,7.43567 399.243,7.20477C399.181,7.05121 399.119,6.89779 399.056,6.74452L399.028,6.66846C399.004,6.59067 398.982,6.51371 398.97,6.43356C398.938,6.2213 398.958,6.00335 399.028,5.79859C399.197,5.30631 399.652,4.91997 400.209,4.79579C400.354,4.76353 400.504,4.74897 400.653,4.75263C400.832,4.75701 401.01,4.78768 401.178,4.84308C401.375,4.90774 401.557,5.00595 401.712,5.13111C401.845,5.23836 401.959,5.36507 402.047,5.50487C402.086,5.56701 402.093,5.5839 402.127,5.64862C402.208,5.83222 402.281,6.01912 402.355,6.20496C402.451,6.4468 402.546,6.68896 402.64,6.93145C402.973,7.80135 403.295,8.6748 403.63,9.54418C403.954,10.3775 404.292,11.2071 404.682,12.0179C404.803,12.2688 404.928,12.5178 405.059,12.7644C405.141,12.9176 405.227,13.0689 405.308,13.2221C405.382,13.3679 405.382,13.3676 405.453,13.5146C405.529,13.6751 405.603,13.8362 405.675,13.9978C405.922,14.5572 406.156,15.121 406.403,15.6804L406.44,15.7629C406.496,15.7963 406.495,15.7969 406.55,15.8331C406.619,15.8845 406.686,15.9367 406.747,15.9962C406.888,16.1341 407,16.296 407.075,16.471C407.161,16.6728 407.19,16.8847 407.182,17.0997C407.176,17.2748 407.153,17.4498 407.097,17.6183C406.993,17.9361 406.783,18.2211 406.49,18.4241C406.308,18.5496 406.098,18.6409 405.877,18.6919C405.791,18.7116 405.705,18.7228 405.618,18.7322C405.559,18.737 405.504,18.7381 405.445,18.739Z" style="fill:rgb(250,243,241);fill-rule:nonzero;"/>
            </g>
            <g>
                <path d="M385.067,17.1386C384.981,17.1381 384.897,17.1358 384.812,17.1255C384.729,17.1155 384.649,17.0985 384.569,17.0791C384.465,17.0543 384.367,17.0149 384.27,16.9729C384.015,16.8613 383.791,16.676 383.629,16.4681C383.432,16.2156 383.299,15.9256 383.171,15.6416C383.102,15.49 383.037,15.3373 382.974,15.1841C382.88,14.9594 382.791,14.7335 382.704,14.5069C382.593,14.2197 382.486,13.9314 382.383,13.6418C382.249,13.2656 382.12,12.8878 382.017,12.504C381.946,12.209 381.883,11.9125 381.815,11.6172C381.68,11.0509 381.538,10.4863 381.385,9.92373C380.97,8.39503 380.498,6.87924 380.046,5.35919C379.927,4.9558 379.809,4.55223 379.692,4.1485C379.673,4.07654 379.667,4.05878 379.655,3.9856C379.629,3.82098 379.634,3.65254 379.67,3.48935C379.711,3.29891 379.795,3.11631 379.915,2.95468C380.227,2.53415 380.771,2.28076 381.334,2.29375C381.489,2.29731 381.642,2.32041 381.79,2.36218C381.967,2.41232 382.134,2.4893 382.282,2.589C382.48,2.722 382.644,2.89495 382.758,3.09184C382.801,3.16623 382.834,3.24286 382.865,3.32175C382.94,3.55115 383.002,3.78362 383.069,4.01471C383.181,4.39733 383.295,4.7795 383.409,5.16171C383.617,5.85727 383.826,6.5526 384.033,7.24841C384.154,7.65979 384.274,8.07131 384.392,8.48354C384.579,9.1483 384.759,9.81457 384.924,10.4841C384.989,10.7465 385.051,11.0093 385.112,11.2725C385.155,11.4631 385.195,11.6548 385.24,11.8451C385.261,11.9236 385.285,12.0013 385.309,12.0792C385.547,12.8252 385.825,13.5621 386.13,14.2884L386.185,14.4157L386.23,14.519L386.268,14.5527C386.351,14.6361 386.427,14.7217 386.49,14.8182C386.631,15.0335 386.71,15.2801 386.717,15.5298C386.722,15.6825 386.7,15.8302 386.667,15.9795C386.644,16.0521 386.618,16.1229 386.589,16.1937C386.427,16.5522 386.116,16.8475 385.722,17.0068C385.565,17.07 385.403,17.1063 385.234,17.1284C385.15,17.1354 385.151,17.1354 385.067,17.1386ZM383.413,15.5252L383.416,15.4797C383.413,15.5024 383.413,15.5021 383.413,15.5252Z" style="fill:rgb(250,243,241);fill-rule:nonzero;"/>
            </g>
        </g>
    </g>
</svg>
