<?xml version="1.0" standalone="no"?>
<!DOCTYPE svg PUBLIC "-//W3C//DTD SVG 1.1//EN" "http://www.w3.org/Graphics/SVG/1.1/DTD/svg11.dtd">
<svg width="220px" height="220px" version="1.1" xmlns="http://www.w3.org/2000/svg" xmlns:xlink="http://www.w3.org/1999/xlink" xml:space="preserve" style="fill-rule:evenodd;clip-rule:evenodd;stroke-linejoin:round;stroke-miterlimit:1.41421;">
    <g>
        <g id="Layer1">
            <path d="M110,217.226C108.045,217.223 106.091,217.173 104.14,217.068C100.411,216.868 96.6931,216.474 93.0057,215.887C83.8665,214.431 74.9231,211.781 66.4674,208.02C61.1349,205.649 55.9981,202.838 51.1232,199.63C46.1907,196.383 41.5268,192.729 37.1927,188.718C30.8419,182.842 24.2065,176.199 19.4409,168.981C17.5761,166.156 16.8445,163.243 15.2553,160.253C13.6698,157.27 11.2272,154.212 9.93266,151.093C8.60728,147.9 8.68704,144.643 7.92747,141.336C7.1679,138.029 5.56898,134.673 4.88623,131.282C2.53132,119.588 2.14432,107.497 3.72305,95.6732C4.44447,90.2703 5.57916,84.9228 7.11717,79.6933C8.68852,74.3505 9.28164,68.4384 11.6685,63.4067C14.3968,57.6551 19.0393,52.8425 22.7441,47.6659C26.4901,42.4315 30.7066,37.5346 35.3253,33.0515C40.1008,28.4162 45.3058,25.2241 50.8538,21.5483C56.3527,17.9051 62.1876,13.7702 68.2629,11.2006C74.9491,8.37252 81.9241,5.23157 89.0454,3.82076C95.7145,2.49954 102.508,1.81948 109.307,1.77643C116.121,1.73328 122.939,3.32848 129.64,4.5689C136.789,5.89223 143.8,7.94913 150.531,10.699C156.642,13.1958 162.519,16.2619 168.065,19.8414C173.659,23.4512 178.915,26.5819 183.746,31.1611C188.417,35.5881 192.691,41.4336 196.499,46.6219C200.264,51.7507 203.572,57.2138 206.368,62.9282C208.813,67.9247 210.867,73.1125 212.503,78.4293C214.102,83.6299 215.302,88.9531 216.09,94.3368C217.802,106.033 217.583,118.017 215.431,129.64C213.554,139.78 211.196,149.636 206.495,158.815C203.744,164.186 199.538,169.322 195.924,174.155C192.327,178.965 188.326,181.473 183.979,185.617C179.629,189.765 175.932,196.548 170.951,199.913C166.118,203.178 160.02,205.049 154.72,207.484C146.323,211.342 137.427,214.099 128.32,215.667C124.649,216.299 122.209,217.753 118.492,218C116.547,218.129 113.335,217.189 111.386,217.217C110.924,217.222 110.462,217.225 110,217.226ZM110,213.267C111.884,213.264 113.767,213.217 115.647,213.116C119.347,212.917 123.035,212.52 126.692,211.926C135.38,210.515 143.881,207.981 151.924,204.404C157.154,202.078 162.188,199.313 166.96,196.152C171.701,193.011 176.183,189.478 180.346,185.602C184.58,181.66 188.485,177.365 192.005,172.774C195.602,168.081 198.798,163.081 201.541,157.843C206.093,149.151 209.39,139.81 211.296,130.185C213.53,118.912 213.867,107.261 212.31,95.8749C211.628,90.8871 210.58,85.9495 209.175,81.1155C207.648,75.8647 205.7,70.7371 203.356,65.7967C200.684,60.1641 197.499,54.776 193.856,49.7173C190.293,44.77 186.293,40.1383 181.918,35.8918C177.318,31.4269 172.304,27.3888 166.96,23.8481C161.665,20.3397 156.046,17.3208 150.195,14.8462C143.757,12.1233 137.042,11.062 130.185,9.70364C123.761,8.43094 117.217,6.77616 110.668,6.73469C104.104,6.69312 97.5358,7.26616 91.0804,8.46112C84.1972,9.73526 77.4465,11.7157 70.9664,14.3633C65.0817,16.7677 59.4223,19.7203 54.0812,23.1673C48.6935,26.6443 43.6307,30.6232 38.9766,35.0341C34.4018,39.3698 30.2226,44.1221 26.5085,49.2145C22.959,54.0811 19.8351,59.2577 17.1873,64.6682C14.833,69.479 12.8557,74.4739 11.2808,79.5932C9.74034,84.6007 8.5854,89.7262 7.82668,94.91C6.17759,106.177 6.38842,117.722 8.46112,128.92C10.2494,138.58 13.4334,147.974 17.8856,156.732C23.0964,166.982 30.0307,176.34 38.3049,184.324C42.3966,188.271 46.8124,191.883 51.4949,195.108C56.3761,198.47 61.5467,201.412 66.9326,203.887C75.0174,207.602 83.5831,210.257 92.3515,211.766C95.8875,212.375 99.4552,212.798 103.035,213.036C104.909,213.161 106.786,213.232 108.664,213.259C109.109,213.264 109.555,213.267 110,213.267Z" style="fill:white;fill-rule:nonzero;"/>
            <g>
                <path d="M5.04742,97.0868C7.83504,97.0868 7.83504,110 5.04742,110C2.25981,110 0,107.109 0,103.543C0,99.9776 2.25981,97.0868 5.04742,97.0868Z" style="fill:white;"/>
            </g>
            <g>
                <path d="M215.75,110C212.962,110 212.962,97.0868 215.75,97.0868C218.537,97.0868 220.797,99.9776 220.797,103.543C220.797,107.109 218.537,110 215.75,110Z" style="fill:white;"/>
            </g>
            <g>
                <path d="M116.855,4.19231C116.855,6.97992 103.942,6.97992 103.942,4.19231C103.942,1.40469 106.833,-0.855118 110.399,-0.855118C113.964,-0.855118 116.855,1.40469 116.855,4.19231Z" style="fill:white;"/>
            </g>
            <g>
                <path d="M103.942,214.895C103.942,212.107 116.855,212.107 116.855,214.895C116.855,217.682 113.964,219.942 110.399,219.942C106.833,219.942 103.942,217.682 103.942,214.895Z" style="fill:white;"/>
            </g>
            <g>
                <path d="M189.459,39.6144C187.487,41.5856 178.356,32.4546 180.328,30.4834C182.299,28.5123 185.941,28.9584 188.462,31.4799C190.984,34.0013 191.43,37.6433 189.459,39.6144Z" style="fill:white;"/>
            </g>
            <g>
                <path d="M31.3386,179.472C33.3097,177.501 42.4407,186.632 40.4695,188.603C38.4984,190.575 34.8564,190.128 32.335,187.607C29.8135,185.086 29.3674,181.444 31.3386,179.472Z" style="fill:white;"/>
            </g>
            <g>
                <path d="M180.328,188.603C178.356,186.632 187.487,177.501 189.459,179.472C191.43,181.444 190.984,185.086 188.462,187.607C185.941,190.128 182.299,190.575 180.328,188.603Z" style="fill:white;"/>
            </g>
            <g>
                <path d="M40.4695,30.4834C42.4407,32.4546 33.3097,41.5856 31.3386,39.6144C29.3674,37.6433 29.8135,34.0013 32.335,31.4799C34.8564,28.9584 38.4984,28.5123 40.4695,30.4834Z" style="fill:white;"/>
            </g>
        </g>
    </g>
</svg>
