<?xml version="1.0" standalone="no"?>
<!DOCTYPE svg PUBLIC "-//W3C//DTD SVG 1.1//EN" "http://www.w3.org/Graphics/SVG/1.1/DTD/svg11.dtd">
<svg width="120px" height="160px" version="1.1" xmlns="http://www.w3.org/2000/svg" xmlns:xlink="http://www.w3.org/1999/xlink" xml:space="preserve" style="fill-rule:evenodd;clip-rule:evenodd;stroke-linejoin:round;stroke-miterlimit:1.41421;">
    <g>
        <g id="Layer1">
            <g>
                <path d="M8.73264,141.558C8.60078,141.561 8.7636,141.562 8.49815,141.268C8.14407,140.876 7.87123,140.412 7.70043,139.912C7.48676,139.287 7.43526,138.61 7.55188,137.96C7.64511,137.44 7.84469,136.94 8.1354,136.499C8.20799,136.389 8.29156,136.287 8.36964,136.18C27.8383,114.042 47.1455,89.742 66.3571,65.5842C68.6222,62.7359 70.886,60.8756 73.1486,58.004C80.1513,49.1162 87.1422,40.119 94.1247,31.0272C94.3386,30.7487 94.4104,30.6911 94.6837,30.4684C95.299,29.9667 96.0641,29.6612 96.8557,29.6009C97.2506,29.5709 97.6497,29.6013 98.0354,29.6909C98.4211,29.7804 98.7928,29.9289 99.134,30.1298C99.5892,30.3978 99.9883,30.7585 100.301,31.1842C100.692,31.7169 100.944,32.3474 101.027,33.0029C101.077,33.3957 101.067,33.7958 100.997,34.1856C100.904,34.7055 100.704,35.205 100.414,35.6461C100.341,35.7562 100.257,35.8587 100.179,35.965C95.6933,41.3949 91.189,46.5144 86.6606,51.6814C83.1384,55.7002 79.6018,59.7476 76.0479,63.9922C75.3551,64.8196 74.6617,66.6483 73.9676,67.4783C53.8623,91.5196 33.19,115.619 11.4637,140.131C11.2308,140.394 11.1779,140.467 10.9047,140.69C10.4953,141.024 10.0185,141.273 9.51067,141.418C9.17176,141.515 9.08097,141.513 8.73264,141.558Z" style="fill:white;fill-rule:nonzero;"/>
            </g>
            <g>
                <path d="M110.734,18.33C113.5,20.6664 112.976,25.8336 109.565,29.8714C106.153,33.9091 101.146,35.2883 98.3807,32.9519C95.6152,30.6155 96.1388,25.4482 99.5501,21.4105C102.961,17.3727 107.969,15.9935 110.734,18.33Z" style="fill:white;"/>
            </g>
            <g>
                <path d="M60.0178,159.967C59.9182,160.053 60.0444,159.95 59.6526,159.892C59.13,159.815 58.6246,159.631 58.1748,159.354C57.6121,159.008 57.1416,158.519 56.8177,157.943C56.5588,157.482 56.3949,156.97 56.3385,156.445C56.3244,156.314 56.3237,156.181 56.3163,156.05C56.647,145.594 57.7453,135.039 57.7091,124.392C57.697,120.843 56.67,117.284 56.6316,113.715C56.4578,97.5358 56.0511,81.1549 55.7493,64.6016C55.4827,49.9833 56.0777,35.2306 55.5604,20.3642C55.5481,20.0132 55.5669,19.923 55.6359,19.5774C55.7914,18.7988 56.1872,18.0762 56.7596,17.5261C57.0451,17.2517 57.3723,17.0212 57.7268,16.8448C58.0814,16.6684 58.4626,16.5465 58.8537,16.4844C59.3754,16.4015 59.9127,16.4257 60.4248,16.5553C61.0654,16.7173 61.6608,17.0435 62.1423,17.4961C62.4308,17.7673 62.6776,18.0824 62.8717,18.4276C63.1306,18.888 63.2945,19.4003 63.3508,19.9255C63.3649,20.0567 63.3657,20.1889 63.3731,20.3206C63.3637,32.2022 63.0635,44.1301 63.1877,56.129C63.208,58.0924 64.2129,60.0578 64.1968,62.0251C64.1408,68.8498 63.0213,75.6986 62.8567,82.576C62.2719,106.999 62.1177,131.782 61.2171,157.129C61.2046,157.48 61.2105,157.57 61.1415,157.915C61.0381,158.433 60.8287,158.929 60.5294,159.364C60.3296,159.655 60.2584,159.711 60.0178,159.967Z" style="fill:white;fill-rule:nonzero;"/>
            </g>
            <g>
                <path d="M60.2939,0.000318762C63.914,0.0430062 66.7981,4.36234 66.7358,9.64782C66.6734,14.9333 63.6883,19.1834 60.0682,19.1407C56.4482,19.0981 53.5641,14.7787 53.6264,9.49324C53.6887,4.20776 56.6739,-0.0423687 60.2939,0.000318762Z" style="fill:white;"/>
            </g>
        </g>
    </g>
</svg>
