<?xml version="1.0" standalone="no"?>
<!DOCTYPE svg PUBLIC "-//W3C//DTD SVG 1.1//EN" "http://www.w3.org/Graphics/SVG/1.1/DTD/svg11.dtd">
<svg width="480px" height="302px" version="1.1" xmlns="http://www.w3.org/2000/svg" xmlns:xlink="http://www.w3.org/1999/xlink" xml:space="preserve" style="fill-rule:evenodd;clip-rule:evenodd;stroke-linejoin:round;stroke-miterlimit:1.41421;">
    <g>
        <g id="Layer1">
            <g id="titel">
                <g>
                    <path d="M51.236,56.3454L84.7309,139.515L80.3312,145.902L62.3063,145.902L57.9066,142.921L25.8309,62.7321L25.8309,141.218L21.2892,145.902L4.68362,145.902L-1.81899e-12,141.218L-1.81899e-12,5.39326L4.68362,0.709639L21.2892,0.709639L25.8309,5.39326L25.8309,50.2425L40.8752,3.97398L45.275,0.709639L63.5837,0.709639L67.9834,6.81254L51.236,56.3454Z" style="fill:rgb(250,243,241);fill-rule:nonzero;"/>
                    <path d="M141.928,120.071C146.848,120.071 151.532,116.807 155.979,110.278C158.25,105.169 159.48,93.152 159.669,74.2283L159.669,71.8155C159.669,54.3111 158.675,43.0514 156.688,38.0367C152.052,30.751 147.132,27.1082 141.928,27.1082C137.386,27.1082 133.034,29.8522 128.87,35.34C126.41,40.7333 125.038,53.2229 124.755,72.809L124.755,78.9119C124.755,94.997 125.795,105.452 127.877,110.278C132.324,116.807 137.008,120.071 141.928,120.071ZM106.162,124.329C103.229,119.976 101.195,112.36 100.059,101.478C99.3022,93.8143 98.9237,85.204 98.9237,75.6475L98.9237,72.3832C99.113,61.5021 99.7753,51.8037 100.911,43.288C102.33,32.4069 104.648,24.7901 107.865,20.4376C117.327,7.6641 128.681,1.27735 141.928,1.27735C148.93,1.27735 155.648,3.31165 162.082,7.38025C168.516,11.4488 174.051,17.1733 178.687,24.5535C183.134,31.6499 185.358,46.8362 185.358,70.1124L185.358,74.3702C185.263,84.8729 184.743,94.1928 183.797,102.33C182.472,112.738 180.39,120.071 177.552,124.329C167.995,138.711 156.121,145.902 141.928,145.902C127.64,145.902 115.719,138.711 106.162,124.329Z" style="fill:rgb(250,243,241);fill-rule:nonzero;"/>
                    <path d="M300.603,0L305.145,4.68362L305.145,141.218L300.603,145.902L283.856,145.902L279.172,141.218L279.172,40.5914L262.567,56.7711L255.612,63.8675L248.941,64.0095L225.24,40.8752L225.24,141.218L220.556,145.902L203.95,145.902L199.267,141.218L199.267,4.68362L203.95,0L220.556,0L221.975,1.41928L222.117,1.41928L252.064,30.6564L282.295,1.27735L282.578,1.41928L283.856,0L300.603,0Z" style="fill:rgb(250,243,241);fill-rule:nonzero;"/>
                    <path d="M342.472,26.2567L342.472,51.8037L376.96,51.8037L381.502,56.4873L381.502,73.0928L376.96,77.7765L342.472,77.7765L342.472,119.929L383.063,119.929L387.747,124.613L387.747,141.218L383.063,145.902L321.183,145.902L316.499,141.218L316.499,4.96747L321.183,0.283856L383.063,0.283856L387.747,4.96747L387.747,21.573L383.063,26.2567L342.472,26.2567Z" style="fill:rgb(250,243,241);fill-rule:nonzero;"/>
                    <path d="M475.316,0.851567L480,5.53519L480,141.218L475.316,145.902L458.853,145.902L456.014,143.205L454.169,141.218L454.169,138.947L425.358,74.5121L425.358,141.218L420.816,145.902L404.211,145.902L399.527,141.218L399.527,5.53519L404.211,0.851567L420.816,0.851567L425.358,5.53519L425.358,10.9284L454.169,75.3637L454.169,5.53519L458.853,0.851567L475.316,0.851567Z" style="fill:rgb(250,243,241);fill-rule:nonzero;"/>
                </g>
                <g>
                    <path d="M65.5778,233.428C63.5713,230.811 61.2595,228.543 58.6424,226.624L58.1189,226.362C54.3677,224.268 47.9994,222.218 39.0139,220.212L38.0979,219.95C34.5212,219.165 31.9913,217.9 30.5082,216.155C29.6359,214.498 29.2869,211.008 29.4614,205.687C29.6359,200.452 30.1593,197.007 31.0317,195.349C33.1254,193.255 35.3935,192.208 37.8362,192.208C40.6278,192.208 43.1141,193.517 45.295,196.134C45.5567,196.832 45.7748,197.879 45.9493,199.275L51.707,204.378L65.1852,204.378L70.9429,197.704L70.9429,197.574C70.9429,197.312 70.8992,197.094 70.812,196.919C70.0269,190.987 68.3257,186.364 65.7086,183.048C58.5551,173.976 49.2643,169.439 37.8362,169.439C32.6019,169.439 27.5858,170.574 22.7877,172.842C18.6875,174.761 15.0672,177.378 11.9266,180.693C8.78607,184.095 6.69237,188.937 5.64552,195.218C4.94762,198.969 4.55505,203.157 4.46781,207.78C4.46781,212.317 4.68591,216.46 5.12209,220.212C5.99447,226.667 10.0946,232.032 17.4226,236.307C20.5631,238.139 27.1932,240.189 37.3128,242.457C40.9767,243.242 43.5939,244.595 45.1642,246.514C46.0365,248.956 46.4727,253.885 46.4727,261.301C46.3855,268.716 45.9057,273.645 45.0333,276.087C42.8524,278.443 40.4533,279.621 37.8362,279.621C36.1787,279.621 34.0414,279.184 31.4242,278.312C28.8943,277.352 27.1496,276.436 26.19,275.564C25.3176,273.296 24.925,269.065 25.0123,262.871L19.1237,256.852L5.77638,256.852L0.0186938,262.609C-0.0685438,267.058 0.14955,271.115 0.672976,274.779C1.45811,281.06 3.2901,285.902 6.16894,289.304C9.3095,292.968 13.0171,295.89 17.2917,298.071C22.9622,300.95 29.8103,302.39 37.8362,302.39C43.5066,302.39 48.8718,301.125 53.9315,298.595C58.1189,296.414 61.8265,293.491 65.0543,289.827C67.8459,286.512 69.6779,281.845 70.5503,275.826C71.161,272.249 71.4663,268.28 71.4663,263.918C71.5535,259.469 71.3791,255.456 70.9429,251.879C69.6343,242.37 67.8459,236.22 65.5778,233.428Z" style="fill:rgb(250,243,241);fill-rule:nonzero;"/>
                    <path d="M125.903,217.856C131.66,214.105 134.539,210.267 134.539,206.341C134.539,202.939 132.402,199.58 128.127,196.265C124.987,194.956 118.313,193.953 108.106,193.255L108.106,219.95C117.179,219.601 123.111,218.903 125.903,217.856ZM142.129,176.506C153.208,184.706 158.748,194.651 158.748,206.341C158.748,212.535 157.003,218.423 153.513,224.007C149.937,229.677 144.92,234.519 138.465,238.532C134.714,240.887 128.345,242.501 119.36,243.373C115.957,243.722 112.206,243.984 108.106,244.158L108.106,298.071L103.919,302.39L88.6085,302.39L84.2902,298.071L84.2902,172.973L88.6085,168.654L103.919,168.654L104.05,168.916C110.68,169.178 116.699,169.658 122.108,170.355C131.529,171.577 138.203,173.627 142.129,176.506Z" style="fill:rgb(250,243,241);fill-rule:nonzero;"/>
                    <path d="M192.378,192.078L192.378,215.632L224.176,215.632L228.363,219.95L228.363,235.26L224.176,239.578L192.378,239.578L192.378,278.443L229.803,278.443L234.121,282.761L234.121,298.071L229.803,302.39L172.749,302.39L168.431,298.071L168.431,172.449L172.749,168.131L229.803,168.131L234.121,172.449L234.121,187.759L229.803,192.078L192.378,192.078Z" style="fill:rgb(250,243,241);fill-rule:nonzero;"/>
                    <path d="M314.074,278.443L318.392,282.761L318.392,298.071L314.074,302.39L251.001,302.39L246.683,298.071L246.683,172.318L251.001,168L266.311,168L270.63,172.318L270.63,278.443L314.074,278.443Z" style="fill:rgb(250,243,241);fill-rule:nonzero;"/>
                    <path d="M353.2,192.078L353.2,215.632L384.998,215.632L389.186,219.95L389.186,235.26L384.998,239.578L353.2,239.578L353.2,278.443L390.625,278.443L394.943,282.761L394.943,298.071L390.625,302.39L333.572,302.39L329.253,298.071L329.253,172.449L333.572,168.131L390.625,168.131L394.943,172.449L394.943,187.759L390.625,192.078L353.2,192.078Z" style="fill:rgb(250,243,241);fill-rule:nonzero;"/>
                    <path d="M475.682,168.654L480,172.973L480,298.071L475.682,302.39L460.502,302.39L457.885,299.903L456.184,298.071L456.184,295.978L429.62,236.569L429.62,298.071L425.433,302.39L410.123,302.39L405.804,298.071L405.804,172.973L410.123,168.654L425.433,168.654L429.62,172.973L429.62,177.945L456.184,237.354L456.184,172.973L460.502,168.654L475.682,168.654Z" style="fill:rgb(250,243,241);fill-rule:nonzero;"/>
                </g>
            </g>
        </g>
    </g>
</svg>
