<?xml version="1.0" standalone="no"?>
<!DOCTYPE svg PUBLIC "-//W3C//DTD SVG 1.1//EN" "http://www.w3.org/Graphics/SVG/1.1/DTD/svg11.dtd">
<svg width="40px" height="40px" version="1.1" xmlns="http://www.w3.org/2000/svg" xmlns:xlink="http://www.w3.org/1999/xlink" xml:space="preserve" style="fill-rule:evenodd;clip-rule:evenodd;stroke-linejoin:round;stroke-miterlimit:1.41421;">
    <g>
        <g id="Layer1">
            <g>
                <path d="M21.25,11.25C26.7728,11.25 31.25,15.7272 31.25,21.25C31.25,26.7728 26.7728,31.25 21.25,31.25C15.7272,31.25 11.25,26.7728 11.25,21.25C11.25,15.7272 15.7272,11.25 21.25,11.25ZM21.25,15C24.7018,15 27.5,17.7982 27.5,21.25C27.5,24.7018 24.7018,27.5 21.25,27.5C17.7982,27.5 15,24.7018 15,21.25C15,17.7982 17.7982,15 21.25,15Z" style="fill:rgb(236,0,53);"/>
            </g>
            <g>
                <path d="M21.25,8.75C28.1536,8.75 33.75,14.3464 33.75,21.25C33.75,28.1536 28.1536,33.75 21.25,33.75C14.3464,33.75 8.75,28.1536 8.75,21.25C8.75,14.3464 14.3464,8.75 21.25,8.75ZM13.75,2.5L38.75,2.5L38.75,40L1.25,40L1.25,2.5L2.5,2.5L2.5,3.55271e-13L7.5,3.55271e-13L7.5,2.5L8.75,2.5L8.75,3.55271e-13L13.75,3.55271e-13L13.75,2.5Z" style="fill:rgb(236,0,53);"/>
            </g>
        </g>
    </g>
</svg>
