<?xml version="1.0" standalone="no"?>
<!DOCTYPE svg PUBLIC "-//W3C//DTD SVG 1.1//EN" "http://www.w3.org/Graphics/SVG/1.1/DTD/svg11.dtd">
<svg width="40px" height="40px" version="1.1" xmlns="http://www.w3.org/2000/svg" xmlns:xlink="http://www.w3.org/1999/xlink" xml:space="preserve" style="fill-rule:evenodd;clip-rule:evenodd;stroke-linejoin:round;stroke-miterlimit:1.41421;">
    <g>
        <g id="Layer1">
            <g>
                <clipPath id="tag1">
                    <path d="M20,-2.46687C32.4081,-2.46687 42.4669,7.59189 42.4669,20C42.4669,32.4081 32.4081,42.4669 20,42.4669C7.59189,42.4669 -2.46687,32.4081 -2.46687,20C-2.46687,7.59189 7.59189,-2.46687 20,-2.46687Z"/>
                </clipPath>
                <g clip-path="url(#tag1)">
                    <g>
                        <path d="M16.5011,36.3961L0.216717,36.3961C0.216717,36.3961 -0.104086,25.9928 3.4721,25.9928C5.84825,25.9928 6.50397,24.4464 6.67648,22.9102C4.8106,21.815 3.47952,18.9507 3.47952,15.5896C3.47952,11.2837 5.66409,7.79308 8.35889,7.79308C11.0537,7.79308 13.2383,11.2837 13.2383,15.5896C13.2383,18.9507 11.9072,21.815 10.0413,22.9102C10.2131,24.4405 10.8645,25.981 13.2185,25.9928C13.7292,25.1384 14.3965,24.5944 15.2675,24.5944C17.9631,24.5944 18.7069,22.8401 18.9026,21.0974C16.7859,19.855 15.2759,16.6056 15.2759,12.7927C15.2759,7.90795 17.7542,3.9481 20.8112,3.9481C23.8682,3.9481 26.3465,7.90795 26.3465,12.7927C26.3465,16.6056 24.8365,19.855 22.7198,21.0974C22.8957,22.6641 23.5147,24.2403 25.5968,24.5425C26.0276,23.5815 26.6332,22.9286 27.4833,22.9286C29.6229,22.9286 30.2134,21.5361 30.3687,20.1529C28.6886,19.1667 27.49,16.5875 27.49,13.5609C27.49,9.68362 29.4571,6.54046 31.8837,6.54046C34.3102,6.54046 36.2774,9.68362 36.2774,13.5609C36.2774,16.5875 35.0788,19.1667 33.3986,20.1529C33.554,21.5361 34.1444,22.9286 36.284,22.9286C38.4319,22.9286 39.0186,27.0962 39.1712,29.8716L39.2221,29.8716L39.2221,36.3961L16.5011,36.3961Z" style="fill:rgb(236,0,53);"/>
                    </g>
                </g>
            </g>
        </g>
    </g>
</svg>
