<?xml version="1.0" standalone="no"?>
<!DOCTYPE svg PUBLIC "-//W3C//DTD SVG 1.1//EN" "http://www.w3.org/Graphics/SVG/1.1/DTD/svg11.dtd" >
<svg xmlns="http://www.w3.org/2000/svg" xmlns:xlink="http://www.w3.org/1999/xlink" version="1.1">
<metadata></metadata>
<defs>
<font id="retrosansregular" horiz-adv-x="670" >
<font-face units-per-em="2048" ascent="1638" descent="-410" />
<missing-glyph horiz-adv-x="508" />
<glyph horiz-adv-x="0" />
<glyph unicode="&#xd;" horiz-adv-x="508" />
<glyph unicode=" "  horiz-adv-x="508" />
<glyph unicode="&#x09;" horiz-adv-x="508" />
<glyph unicode="&#xa0;" horiz-adv-x="508" />
<glyph unicode="!" horiz-adv-x="334" d="M27 53v163l49 45h175l49 -45v-163l-49 -46h-175zM27 422v969l49 46h175l49 -46v-969l-49 -46h-175z" />
<glyph unicode="&#x22;" horiz-adv-x="672" d="M101 1500q0 37 20.5 57t59.5 20t60.5 -19.5t21.5 -56.5q0 -8 -4 -34l-62 -359h-30l-62 359q-4 23 -4 33zM413 1500q0 37 20.5 57t59.5 20t60.5 -19.5t21.5 -56.5q0 -8 -4 -34l-62 -359h-30l-62 359q-4 23 -4 33z" />
<glyph unicode="#" horiz-adv-x="1456" d="M4 384v164l46 46h205l53 249h-258l-46 46v163l46 46h312l64 301l55 35l159 -34l36 -54l-53 -248h353l64 301l55 35l159 -34l36 -54l-53 -248h150l46 -46v-163l-46 -46h-205l-53 -249h258l46 -46v-164l-46 -45h-312l-64 -301l-55 -36l-159 34l-36 55l53 248h-353l-64 -301 l-55 -36l-159 34l-36 55l53 248h-150zM515 594h354l53 249h-354z" />
<glyph unicode="$" horiz-adv-x="899" d="M24 495v145l41 40h138q0 28 1 54q0 9 1 22h-140l-41 41v144l41 41h163q38 208 128 282q204 165 471 165l40 -40v-163l-40 -40q-180 0 -317 -111q-16 -20 -33 -93h307l41 -41v-144l-41 -41h-336v-10q-1 -33 -1 -66h337l41 -40v-145l-41 -41h-318q14 -66 26 -85 q142 -125 335 -125l40 -41v-162l-40 -41q-288 0 -499 189q-80 72 -109 265h-154z" />
<glyph unicode="%" horiz-adv-x="1407" d="M20 1010v21q1 88 10 157q12 89 39 125q77 105 187 105q123 0 203 -128q22 -35 31 -120q6 -65 6 -149q-1 -84 -9 -150q-11 -85 -35 -121q-78 -118 -196 -118q-117 0 -196 119q-25 36 -34 125q-6 60 -6 134zM172 1000q0 -126 16 -167q33 -49 68 -49t69 49q17 43 19 189v16 q0 132 -16 174q-34 54 -72 54q-32 0 -63 -41q-19 -44 -21 -196v-29zM274 137l594 1274l64 23l156 -72l23 -64l-594 -1275l-64 -23l-156 73zM900 423v21q1 88 11 156q12 89 38 126q78 105 187 105q123 0 203 -128q22 -36 31 -120q6 -58 6 -129v-21q-1 -84 -9 -150 q-10 -85 -34 -120q-79 -118 -197 -118q-117 0 -196 118q-24 36 -34 125q-6 60 -6 135zM1052 413q0 -127 16 -168q33 -49 68 -49q36 0 69 49q18 43 19 190v17q0 132 -15 172q-35 55 -73 55q-31 0 -63 -41q-19 -45 -21 -196v-29z" />
<glyph unicode="&#x26;" horiz-adv-x="1346" d="M63 405q0 75 24 142q22 64 51 109q30 46 88 97q55 47 91 72q24 18 61 43q-6 9 -18 26q-13 20 -19 30l-16 27q-13 22 -19 39q-4 10 -11 28q-10 22 -13 42q-3 14 -6 32q-3 22 -3 42q0 152 102 249q101 96 251 96q140 0 240 -90q104 -93 104 -234q0 -67 -21 -125 q-23 -60 -74 -113q-44 -47 -73 -71q-15 -14 -40 -33l193 -247l100 116l88 8l107 -88l8 -90l-136 -158l194 -250l-49 -101h-187l-50 25l-102 134q-223 -182 -415 -182q-181 0 -314 120q-136 123 -136 305zM333 416q0 -70 52 -124q52 -53 119 -53q47 0 105 28q64 32 96 57 q23 17 58 48l-223 287l-15 -10q-68 -46 -102 -73q-29 -23 -62 -73q-28 -43 -28 -87zM539 1145q0 -13 2 -25q2 -8 8 -19q11 -19 16 -28q4 -6 21 -31q12 -16 16 -22q29 21 38 28q7 6 27 26q16 16 21 24q5 9 11 27q5 16 5 30q0 32 -22 51q-24 22 -60 22q-35 0 -59 -24 q-24 -23 -24 -59z" />
<glyph unicode="'" horiz-adv-x="346" d="M101 1500q0 37 20.5 57t59.5 20t60.5 -19.5t21.5 -56.5q0 -8 -4 -34l-62 -359h-30l-62 359q-4 23 -4 33z" />
<glyph unicode="(" horiz-adv-x="758" d="M252 601q2 277 99.5 530t268.5 442h80q-172 -242 -230 -438q-57 -193 -57 -523v-22q0 -330 57 -522q58 -196 230 -438h-80q-171 189 -268.5 441.5t-99.5 529.5z" />
<glyph unicode=")" horiz-adv-x="758" d="M58 -370q172 242 230 438q57 192 57 522v22q0 330 -57 523q-58 196 -230 438h80q171 -189 268.5 -442t99.5 -530q-2 -277 -99.5 -529.5t-268.5 -441.5h-80z" />
<glyph unicode="*" horiz-adv-x="579" d="M79 1421l6 27l77 50l-78 56l-5 26l35 60l26 8l79 -39l5 90l20 19h75l20 -20v-89l81 40l26 -8l35 -61l-6 -27l-73 -47l76 -54l6 -26l-34 -60l-26 -8l-83 43l-2 -88l-19 -20l-73 -1l-20 19l-5 85l-79 -42l-26 7z" />
<glyph unicode="," horiz-adv-x="557" d="M153 41v151l39 39h171l39 -39v-62q3 -19 3 -41q0 -21 -3 -46v-2q-12 -98 -57 -204l-76 16v18q0 65 -6 131h-71z" />
<glyph unicode="-" d="M116 437v83q0 29 41 29h356q41 0 41 -29v-83q0 -28 -40 -28h-358q-40 0 -40 28z" />
<glyph unicode="." horiz-adv-x="351" d="M109 71q0 26 19 45t46 19q26 0 45 -19t19 -45q0 -27 -19 -46t-45 -19q-27 0 -46 19t-19 46z" />
<glyph unicode="/" horiz-adv-x="683" d="M6 110l418 1293l59 30l158 -51l30 -58l-418 -1294l-59 -30l-158 51z" />
<glyph unicode="0" horiz-adv-x="966" d="M60 695v41q2 158 18 280q22 160 70 225q138 188 335 188q105 0 200 -60t163 -169q40 -64 55 -215q11 -110 11 -245v-23q-1 -150 -16 -268q-19 -153 -61 -217q-142 -211 -352 -211q-211 0 -352 212q-44 65 -60 224q-11 107 -11 238zM332 686q0 -231 28 -306 q60 -87 123 -87t123 87q31 77 34 340v33q0 233 -27 307q-62 97 -130 97q-57 0 -113 -74q-34 -80 -38 -351v-46z" />
<glyph unicode="1" horiz-adv-x="525" d="M26 860l191 528l2 5l6 3l38 38h165l46 -46v-1343l-46 -46h-165l-46 46v705l-9 -4l-154 56z" />
<glyph unicode="2" horiz-adv-x="1014" d="M30 1172q46 54 88 97q117 120 196 144q84 25 159 25q129 0 231 -76q87 -64 128 -172q32 -85 32 -185q0 -27 -2 -55q-9 -97 -140 -294l-247 -379h437l45 -50v-178l-45 -50h-756l-45 50v178l2 3l-1 2l490 744q1 18 1 34q0 102 -54 143q-32 24 -79 24q-34 0 -77 -13 q-46 -24 -154 -148z" />
<glyph unicode="3" horiz-adv-x="848" d="M32 160l9 65l126 96l65 -9q56 -73 142 -73q76 0 130 60q55 61 55 146t-55 145q-54 60 -130 60l-47 46v159l47 46q51 0 87 42q36 41 36 99t-36 99t-87 41q-42 0 -76 -29l-65 5l-104 120l5 65q104 90 240 90q155 0 265 -115q110 -114 110 -276q0 -143 -89 -253 q150 -137 150 -344q0 -189 -128 -323t-308 -134q-211 0 -342 172z" />
<glyph unicode="4" horiz-adv-x="897" d="M73 766v623l46 46h163l46 -46v-414h264v414l46 46h164l46 -46v-1338l-46 -46h-164l-46 46v669h-478z" />
<glyph unicode="5" horiz-adv-x="832" d="M78 154l171 144q59 -72 135 -72q73 0 131 67q26 59 28 233v26q0 153 -22 208q-60 74 -137 74q-70 0 -127 -61l-5 -4h-132l-37 37v603l37 37h578l37 -37v-132l-37 -37h-409v-196q47 13 95 13q187 0 316 -163q40 -51 55 -169q11 -82 11 -184v-17q-3 -283 -77 -370 q-126 -150 -305 -150t-306 150z" />
<glyph unicode="6" horiz-adv-x="755" d="M44 424v32q1 98 14 175q13 76 36 119l168 650l44 26l125 -33l26 -44l-116 -451q15 1 26 1q162 0 271 -141q57 -73 57 -292v-22q-3 -239 -66 -315q-108 -130 -262 -130t-262 130q-39 47 -53 153q-8 64 -8 142zM261 427q0 -115 16 -165q42 -46 90 -46q49 0 90 47 q19 51 20 183v27q0 110 -15 157q-43 51 -95 51q-44 0 -83 -39q-21 -53 -23 -189v-26z" />
<glyph unicode="7" horiz-adv-x="788" d="M51 1222v164l46 47h583l79 -110l-401 -1288l-58 -30l-157 49l-31 57l331 1064h-346z" />
<glyph unicode="8" horiz-adv-x="798" d="M35 421v30q4 256 83 334q27 26 58 47q-5 6 -9 10q-56 61 -56 234v18q3 190 68 252q87 86 205 86q132 0 223 -106q53 -61 53 -230v-12q-3 -180 -60 -242q-4 -5 -10 -10q45 -31 82 -73q64 -75 64 -300v-20q-3 -244 -74 -321q-117 -126 -279 -126q-163 0 -280 126 q-43 47 -59 156q-9 67 -9 147zM247 424q0 -117 18 -167q52 -53 118 -53t118 53q21 51 23 184v13q0 122 -18 171q-53 59 -123 59q-61 0 -111 -46q-22 -52 -25 -190v-24zM324 1067q0 -56 8 -89q24 -21 52 -21t52 21q10 33 11 108v15q0 63 -8 94q-25 25 -55 25q-26 0 -48 -18 q-11 -39 -12 -112v-23z" />
<glyph unicode="9" horiz-adv-x="740" d="M43 962v23q2 240 66 316q108 131 263 131t264 -131q39 -47 53 -154q8 -64 8 -143v-32q-1 -98 -14 -175t-37 -120l-168 -653l-44 -26l-126 32l-27 45l117 453q-14 -1 -26 -1q-162 0 -272 142q-57 73 -57 293zM261 969q0 -121 16 -171q43 -52 95 -52q45 0 84 39 q20 54 23 191v25q0 116 -17 166q-41 46 -90 46t-90 -46q-19 -52 -21 -184v-14z" />
<glyph unicode=":" horiz-adv-x="557" d="M129 136q0 15 16 31l82 84q15 14 29 14q13 0 31 -16l80 -86q12 -16 12 -29q0 -15 -14 -31l-80 -88q-20 -20 -29 -20q-16 0 -29 14l-88 101q-10 13 -10 26zM129 829q0 15 16 31l82 84q15 14 29 14q13 0 31 -16l80 -86q12 -16 12 -29q0 -15 -14 -31l-80 -88 q-20 -20 -29 -20q-16 0 -29 14l-88 101q-10 13 -10 26z" />
<glyph unicode=";" horiz-adv-x="557" d="M119 91v42l119 125q44 0 88.5 -65.5t44.5 -151.5q0 -109 -71 -226.5t-139 -117.5v43q73 43 87 190q0 119 -129 161zM129 828q0 15 16 31l82 84q15 14 29 14q13 0 31 -16l80 -86q12 -16 12 -29q0 -15 -14 -31l-80 -88q-20 -20 -29 -20q-16 0 -29 14l-88 101q-10 13 -10 26 z" />
<glyph unicode="?" horiz-adv-x="1035" d="M28 965l44 -58l200 -36l62 46q28 215 170 215q60 0 95 -35q35 -33 35 -95q0 -86 -110 -170q-91 -71 -121 -113q-35 -49 -35 -129v-124l54 -53h178l54 53q1 73 7 90q4 11 29 29q133 97 175 137q48 45 84 124q37 80 37 169q0 178 -132 298q-130 118 -326 118t-338 -125 t-162 -341zM351 57l54 -54h215l54 54v229l-54 54h-215l-54 -54v-229z" />
<glyph unicode="@" horiz-adv-x="2019" d="M100 508q0 242 124 464.5t345.5 342t456.5 119.5q362 0 609 -230t247 -566q0 -270 -176 -439q-175 -168 -346 -170q-63 1 -100.5 18t-61.5 54q-29 -37 -82 -64.5t-133 -27.5q-144 0 -256.5 100.5t-112.5 233.5q1 87 53 166.5t132.5 115t173.5 49.5q67 16 110 42.5 t43 74.5q-2 69 -41 125t-129 56q-72 0 -121.5 -59t-50.5 -125h-45v159q0 20 72 40q73 20 178 20q109 -2 193.5 -64.5t84.5 -157.5v-589q0 -117 94 -117q185 35 267 191.5t82 382.5q-20 335 -232 540q-197 188 -480 188q-205 0 -392.5 -137.5t-269.5 -355.5 q-67 -178 -67 -361q0 -313 129.5 -511.5t305 -290.5t318.5 -92q274 0 575 208v-75q-263 -184 -571 -184q-240 0 -461 122.5t-343 342t-122 461.5zM753 343q0 -107 64 -194t183 -87q97 5 126 167v476q-54 -63 -154 -83q-83 -10 -151 -80t-68 -199z" />
<glyph unicode="A" horiz-adv-x="983" d="M2 58l367 1341l44 34h162l45 -34l367 -1341l-45 -58h-140l-45 34l-67 246h-391l-68 -246l-44 -34h-141zM370 538h249l-125 454z" />
<glyph unicode="B" horiz-adv-x="843" d="M39 56l45 -45h161l20 21q75 -32 156 -32q170 0 293 128q78 82 82 329v19q0 230 -71 309q-28 31 -61 56q32 76 34 209v11q0 190 -66 259q-107 113 -260 113q-62 0 -122 -22l-5 5h-161l-45 -45v-1315zM300 466q2 119 21 172q45 38 100 38q62 0 111 -49q15 -50 15 -154v-13 q-2 -115 -20 -167q-47 -44 -106 -44t-106 43q-15 48 -15 142v32zM307 946q-12 51 -12 101q0 60 17 118q27 19 60 19q38 0 69 -25q12 -51 12 -101q0 -56 -15 -111q-30 -23 -66 -23q-35 0 -65 22z" />
<glyph unicode="C" horiz-adv-x="1061" d="M54 697v31q3 142 24 256q33 180 120 267q183 182 430 182q139 0 265 -63q59 -29 112 -71l4 -67l-144 -155l-60 -5q-82 59 -177 59q-122 0 -217 -94q-50 -50 -55 -314v-41q0 -226 42 -272q98 -108 230 -108q102 0 186 67l65 -8l129 -166l-8 -65q-166 -130 -372 -130 q-133 0 -254 58q-113 53 -200 149q-80 88 -106 267q-14 101 -14 223z" />
<glyph unicode="D" horiz-adv-x="917" d="M57 46v1343l46 46h164l7 -7q21 7 151 7q105 0 201 -61q96 -60 164 -170q67 -108 67 -463v-31q-1 -156 -16 -277q-20 -155 -62 -219q-143 -214 -352 -214h-2q-125 1 -147 11l-11 -11h-164zM313 269q13 -2 113 -2q80 0 139 86q34 77 36 359v47q0 240 -29 312 q-69 108 -147 108q-14 0 -55 3q-28 2 -46 2h-11v-915z" />
<glyph unicode="E" horiz-adv-x="857" d="M86 46v1356l46 47h616l47 -47v-165l-47 -47h-403v-253h342l46 -47v-166l-46 -46h-342v-419h403l47 -47v-166l-47 -46h-616z" />
<glyph unicode="F" horiz-adv-x="955" d="M55 46v1356l46 47h788l46 -47v-165l-46 -47h-576v-271h379l47 -46v-166l-47 -46h-379v-615l-46 -46h-166z" />
<glyph unicode="G" horiz-adv-x="899" d="M74 696v30q1 136 11 243q14 151 50 222q47 94 114 153q100 87 224 87q137 0 243 -105q31 -31 58 -71l17 -49v-127l-49 -49h-101l-49 49q-4 30 -21 60q-34 60 -98 60h-1q-73 0 -130 -113q-33 -65 -36 -362v-50q0 -252 28 -313q59 -129 139 -129q75 0 132 115v144h-168 l-49 49v127l49 49h347l49 -49v-345l-4 -49q-5 -6 -6 -9q-47 -102 -115 -166q-103 -98 -235 -98t-235 98q-68 65 -115 167q-32 70 -42 218q-7 95 -7 213z" />
<glyph unicode="H" horiz-adv-x="847" d="M58 46v1340l46 46h164l46 -46v-746h222v746l46 46h164l45 -46v-1340l-45 -46h-164l-46 46v338h-222v-338l-46 -46h-164z" />
<glyph unicode="I" horiz-adv-x="404" d="M69 47v1358l47 47h166l46 -47v-1358l-46 -47h-166z" />
<glyph unicode="J" horiz-adv-x="794" d="M39 134l1 65l117 116l68 -2q48 -55 104 -55q67 0 120 76q15 23 24 138v910l47 47h168l47 -47v-154q0 -667 -8 -898q-2 -51 -67 -144q-57 -81 -134 -129q-92 -57 -197 -57t-198 57q-50 31 -92 77z" />
<glyph unicode="K" horiz-adv-x="963" d="M60 46v1346l46 46h164l47 -46v-444l148 458l44 32h181l44 -61l-166 -490l331 -824l-43 -63h-179l-43 29l-317 794v-777l-47 -46h-164z" />
<glyph unicode="L" horiz-adv-x="882" d="M65 46v1343l46 46h164l46 -46v-1133h464l46 -46v-164l-46 -46h-674z" />
<glyph unicode="M" horiz-adv-x="1181" d="M73 46v1341l46 46h164l13 -13h2l294 -288l296 288h3l13 13h164l46 -46v-1341l-46 -46h-164l-46 46v988l-163 -158l-69 -71h-65l-232 227v-986l-46 -46h-164z" />
<glyph unicode="N" horiz-adv-x="928" d="M66 46v1336l46 46h163l46 -46v-53l283 -635v688l46 46h163l46 -46v-1336l-46 -46h-163l-27 27l-19 19v23l-283 635v-658l-46 -46h-163z" />
<glyph unicode="O" horiz-adv-x="962" d="M47 689v43q2 163 19 290q22 163 70 228q140 191 338 191q106 0 202 -61t165 -172q67 -107 67 -465v-31q-1 -156 -16 -278q-20 -155 -62 -219q-144 -215 -356 -215t-355 215q-44 65 -61 227q-11 111 -11 247zM304 669q0 -242 30 -314q67 -98 140 -98q74 0 140 98 q35 77 37 360v47q0 241 -29 313q-69 109 -148 109q-67 0 -129 -83q-38 -80 -41 -373v-59z" />
<glyph unicode="P" horiz-adv-x="918" d="M93 46v1335l46 46h163l2 -2q107 -4 192 -16q152 -20 214 -66q178 -131 178 -317q0 -100 -57 -190t-160 -155q-61 -37 -204 -52q-54 -5 -119 -8v-575l-46 -46h-163zM348 879q145 7 190 24q92 58 92 123q0 54 -70 107q-50 21 -212 31v-285z" />
<glyph unicode="Q" horiz-adv-x="975" d="M28 677v46q1 141 14 251q19 160 67 236q60 93 140 148q102 71 219 71q116 0 216 -69q101 -68 168 -192q39 -73 53 -223q8 -96 8 -214v-26q-1 -135 -12 -242q-16 -151 -59 -225q-1 -2 -4 -7l98 -149l-10 -47l-101 -66l-46 10l-69 104l-10 -8q-106 -79 -232 -79t-232 79 q-83 62 -142 164q-44 75 -58 233q-8 93 -8 205zM252 678q0 -263 36 -327q76 -131 180 -131q63 0 118 52l-144 221l10 46l100 66l47 -10l77 -118q13 109 13 242q0 46 -2 96q-6 197 -33 246q-77 143 -186 143q-96 0 -170 -115q-43 -67 -46 -369v-42z" />
<glyph unicode="R" horiz-adv-x="883" d="M47 46v1339l46 45h163l2 -2q108 -4 193 -15q152 -21 214 -66q179 -132 179 -319q0 -146 -117 -265q93 -83 101 -205v-509l-49 -49h-175l-49 49v455q-19 108 -127 127h-6q-54 -6 -120 -9v-576l-46 -46h-163zM302 881q146 7 191 24q92 59 92 123q0 55 -70 108 q-50 21 -213 31v-286z" />
<glyph unicode="S" horiz-adv-x="866" d="M46 426v-16q0 -62 7 -114q13 -101 60 -155q50 -60 119 -95q91 -46 221 -46q91 0 172 41q68 35 119 94q45 53 60 150q9 57 10 129v15q0 61 -7 113q-20 153 -56 199q-33 41 -75 72l-6 4q-60 33 -205 65l-10 3q-57 13 -82 40q-11 24 -11 91v22q3 85 18 110q33 34 72 34 q45 0 80 -42q4 -11 8 -33l62 -55h143l63 71l-1 3v6q-13 96 -55 149q-116 146 -300 146q-85 0 -161 -36q-66 -31 -116 -85q-51 -54 -69 -156q-10 -60 -11 -134v-16q0 -64 7 -118q13 -104 132 -172q50 -30 212 -67h1q59 -12 84 -43q14 -39 14 -159q-1 -119 -16 -159 q-34 -38 -76 -38q-28 0 -69 15q-42 15 -57 29q-13 35 -13 124v13l-62 64h-143z" />
<glyph unicode="T" horiz-adv-x="821" d="M-5 1230v165l46 46h691l46 -46v-165l-46 -46h-217v-1138l-46 -46h-165l-46 46v1138h-217z" />
<glyph unicode="U" horiz-adv-x="970" d="M84 407v988l46 46h164l46 -46v-928q25 -222 136 -222q112 0 142 191q9 60 10 132q0 60 -2 60v767l46 46h164l46 -46v-1025q0 -111 -111 -232q-128 -138 -295 -138q-170 0 -289 147q-103 128 -103 260z" />
<glyph unicode="V" horiz-adv-x="920" d="M1 1332l33 56l159 42l56 -33l213 -818l213 818l56 33l159 -42l32 -56l-338 -1299l-56 -33h-132l-56 33z" />
<glyph unicode="W" horiz-adv-x="1593" d="M10 1335l33 56l159 41l56 -33l214 -819l184 708l21 103l8 8l56 33h95l56 -33l8 -8l21 -103l184 -708l214 819l56 33l159 -41l33 -56l-339 -1302l-56 -33h-133l-56 33l-195 746l-194 -746l-56 -33h-133l-56 33z" />
<glyph unicode="X" horiz-adv-x="965" d="M44 68l285 725l-224 573l43 64h187l43 -29l96 -241l94 241l44 29h181l44 -63l-220 -567l291 -732l-42 -64l-193 -4l-45 30l-155 398l-155 -398l-44 -30l-187 4z" />
<glyph unicode="Y" horiz-adv-x="978" d="M11 1277l353 -509v-722l46 -46h165l47 46v745l337 486l-12 65l-135 94l-65 -12l-262 -378l-262 378l-65 12l-135 -94z" />
<glyph unicode="Z" horiz-adv-x="1079" d="M45 51v182l11 11l529 904h-443l-51 51v181l51 51h752l51 -51v-181l-23 -23l-525 -892h574l51 -51v-182l-51 -51h-875z" />
<glyph unicode="[" horiz-adv-x="517" d="M43 46v1342l46 46h338l46 -46v-164l-46 -46h-128v-922h128l46 -46v-164l-46 -46h-338z" />
<glyph unicode="\" horiz-adv-x="679" d="M0 1322l30 58l158 51l58 -30l418 -1292l-30 -58l-158 -51l-59 30z" />
<glyph unicode="]" horiz-adv-x="508" d="M38 46v164l46 47h129v924h-129l-46 46v165l46 46h339l46 -46v-1346l-46 -46h-339z" />
<glyph unicode="^" horiz-adv-x="1014" />
<glyph unicode="_" horiz-adv-x="1108" d="M183 53v166l47 47h645l47 -47v-166l-47 -47h-645z" />
<glyph unicode="`" horiz-adv-x="1024" d="M212 1363q0 31 20.5 51t53.5 20q20 0 40.5 -12t55.5 -47l291 -296h-69l-330 202q-31 20 -46.5 40t-15.5 42z" />
<glyph unicode="a" horiz-adv-x="739" d="M8 41l262 959l32 24h116l31 -24l263 -959l-32 -41h-101l-31 24l-49 176h-279l-48 -176l-32 -24h-100zM271 385h178l-89 324z" />
<glyph unicode="b" horiz-adv-x="843" d="M39 40l32 -32h114l14 14q53 -22 110 -22q121 0 208 91q56 57 58 233v13q0 163 -50 219q-20 22 -43 40q22 53 23 147q0 6 1 11q0 132 -47 181q-76 79 -184 79q-44 0 -86 -15l-4 4h-114l-32 -32v-931zM224 330q1 84 15 122q32 27 70 27q44 0 79 -35q11 -35 11 -106v-12 q-2 -81 -14 -118q-34 -32 -76 -32q-41 0 -75 31q-10 33 -10 100v23zM229 670q-9 37 -9 73q0 42 12 82q20 13 43 13q27 0 49 -18q9 -36 9 -71q0 -39 -11 -78q-22 -16 -47 -16t-46 15z" />
<glyph unicode="c" horiz-adv-x="780" d="M55 489v28q1 101 16 182q24 128 86 189q130 130 305 130q99 0 188 -45q42 -21 80 -50l3 -48l-103 -110l-43 -4q-57 42 -125 42q-87 0 -154 -67q-36 -35 -39 -222v-31q0 -159 29 -192q70 -77 164 -77q72 0 133 48l45 -6l92 -118l-6 -45q-118 -93 -264 -93q-94 0 -180 41 q-80 38 -142 106q-57 63 -75 190q-10 69 -10 152z" />
<glyph unicode="d" horiz-adv-x="656" d="M47 33v959l33 33h117l5 -5q15 5 108 5q75 0 143 -43q69 -44 118 -122q47 -76 47 -323v-30q-1 -111 -11 -198q-14 -111 -44 -156q-102 -153 -251 -153h-2q-89 1 -105 8l-8 -8h-117zM230 192q9 -1 80 -1q58 0 100 61q24 55 26 256v17q0 186 -21 240q-49 77 -105 77 q-10 0 -40 2q-17 1 -29 1h-11v-653z" />
<glyph unicode="e" horiz-adv-x="580" d="M36 33v960l33 33h436l33 -33v-117l-33 -33h-286v-180h243l32 -33v-117l-32 -33h-243v-297h286l33 -33v-117l-33 -33h-436z" />
<glyph unicode="f" horiz-adv-x="683" d="M35 33v960l33 33h557l33 -33v-118l-33 -32h-407v-192h268l33 -33v-117l-33 -33h-268v-435l-33 -33h-117z" />
<glyph unicode="g" horiz-adv-x="645" d="M45 488v32q1 98 8 175q10 107 35 158q34 68 82 110q72 63 161 63q98 0 174 -76q22 -22 41 -50l13 -35v-92l-36 -35h-72l-35 35q-3 22 -15 43q-24 43 -70 44q-53 0 -94 -81q-24 -48 -26 -260v-34q0 -182 20 -226q42 -93 100 -93q54 0 95 83v103h-121l-35 35v91l35 35h248 l36 -35v-247l-3 -35q-4 -4 -5 -7q-33 -73 -82 -119q-74 -70 -168 -70q-95 0 -169 70q-49 46 -82 120q-23 50 -31 156q-4 64 -4 142z" />
<glyph unicode="h" horiz-adv-x="612" d="M43 33v962l33 33h117l33 -33v-536h160v536l33 33h117l33 -33v-962l-33 -33h-117l-33 33v243h-160v-243l-33 -33h-117z" />
<glyph unicode="i" horiz-adv-x="257" d="M35 33v967l33 33h118l33 -33v-967l-33 -33h-118z" />
<glyph unicode="j" horiz-adv-x="565" d="M27 96l1 46l83 83l49 -2q34 -39 74 -39q47 0 85 54q11 17 17 98v649l34 34h119l34 -34v-136q0 -454 -6 -614q-1 -36 -47 -103q-41 -57 -96 -91q-66 -41 -140 -41q-75 0 -141 41q-36 22 -66 55z" />
<glyph unicode="k" horiz-adv-x="687" d="M42 33v957l33 33h117l32 -33v-316l106 326l31 23h129l31 -43l-118 -349l236 -586l-31 -45h-127l-31 21l-226 565v-553l-32 -33h-117z" />
<glyph unicode="l" horiz-adv-x="649" d="M54 33v961l33 33h117l33 -33v-811h332l33 -33v-117l-33 -33h-482z" />
<glyph unicode="m" horiz-adv-x="833" d="M43 33v962l33 33h117l10 -10h1l211 -206l213 207l2 -1l9 10h118l32 -33v-962l-32 -33h-118l-33 33v709l-117 -114l-49 -50l-47 -1l-167 163v-707l-33 -33h-117z" />
<glyph unicode="n" horiz-adv-x="656" d="M41 33v956l33 33h117l32 -33v-38l203 -454v492l33 33h116l33 -33v-956l-33 -33h-116l-20 19l-13 14v16l-203 454v-470l-32 -33h-117z" />
<glyph unicode="o" horiz-adv-x="716" d="M52 495v23q2 115 14 205q15 115 49 161q100 135 240 135q74 0 142 -43t117 -121q47 -75 47 -321v-30q-1 -111 -11 -197q-14 -110 -44 -155q-101 -152 -251 -152q-151 0 -252 152q-31 46 -43 161q-8 81 -8 182zM234 472q0 -170 22 -221q47 -69 99 -69t99 69q24 54 26 254 v17q0 185 -21 238q-49 77 -104 77q-48 0 -92 -58q-26 -57 -29 -264v-43z" />
<glyph unicode="p" horiz-adv-x="647" d="M40 33v956l33 33h117l1 -2q76 -3 138 -11q108 -14 153 -47q127 -94 127 -228q0 -71 -40 -135q-41 -65 -115 -111q-43 -27 -146 -37q-39 -4 -86 -6v-412l-32 -33h-117zM222 630q104 4 136 16q66 43 66 88q0 39 -49 77q-36 15 -153 23v-204z" />
<glyph unicode="q" horiz-adv-x="719" d="M27 488v25q1 102 11 183q13 116 49 172q43 67 101 107q74 52 160 52q84 0 157 -50t122 -140q29 -53 39 -162q6 -68 6 -151v-24q-1 -99 -9 -176q-12 -110 -43 -164q-1 -2 -3 -5l71 -109l-7 -34l-73 -48l-34 7l-50 76q-4 -3 -7 -6q-78 -58 -169 -58q-92 0 -169 58 q-60 45 -104 120q-31 54 -42 169q-6 71 -6 158zM191 471q0 -184 26 -229q55 -95 131 -95q45 0 86 38l-105 160l7 34l73 48l34 -7l56 -86q9 78 9 172q0 36 -1 74q-4 143 -24 179q-56 104 -135 104q-70 0 -124 -84q-31 -48 -33 -268v-40z" />
<glyph unicode="r" horiz-adv-x="642" d="M40 33v952l33 33h116l1 -2q77 -3 138 -11q108 -14 152 -47q127 -94 127 -227q0 -104 -83 -188q66 -59 71 -146v-362l-35 -35h-124l-35 35v324q-13 76 -90 90h-4q-39 -4 -85 -6v-410l-33 -33h-116zM222 627q103 5 135 17q66 42 66 87q0 39 -50 77q-35 15 -151 22v-203z " />
<glyph unicode="s" horiz-adv-x="650" d="M46 304v-14q0 -43 5 -79q9 -72 42 -111q36 -42 85 -67q65 -33 157 -33q65 0 123 29q48 25 85 67q32 38 42 107q7 41 7 91v17q0 41 -4 75q-15 109 -41 141q-23 30 -53 52l-4 2q-43 24 -146 47l-7 2q-41 9 -58 29q-8 16 -8 61v19q2 60 12 79q24 24 52 24q32 0 57 -30 q3 -8 5 -24l44 -39h103l44 51v1q0 3 -1 5q-9 68 -39 106q-82 104 -213 104q-60 0 -115 -26q-47 -22 -83 -60q-36 -39 -48 -111q-8 -43 -9 -96q0 -52 5 -95q10 -74 94 -123q36 -21 152 -47q42 -9 60 -31q10 -28 10 -113q-1 -85 -11 -113q-25 -27 -55 -27q-19 0 -49 10 q-29 11 -40 21q-9 24 -9 84v13l-45 46h-102z" />
<glyph unicode="t" horiz-adv-x="607" d="M24 872v117l33 33h489l33 -33v-117l-33 -33h-153v-806l-33 -33h-117l-33 33v806h-153z" />
<glyph unicode="u" horiz-adv-x="664" d="M48 289v703l33 33h116l33 -33v-660q18 -158 97 -158t101 136q6 43 7 94q0 42 -1 42v546l32 33h117l32 -33v-731q0 -78 -78 -163q-91 -98 -210 -98q-121 0 -206 105q-73 91 -73 184z" />
<glyph unicode="v" horiz-adv-x="732" d="M72 950l23 40l114 30l40 -24l152 -583l152 583l40 24l113 -30l23 -40l-241 -927l-40 -23h-95l-40 23z" />
<glyph unicode="w" horiz-adv-x="1162" d="M10 955l24 40l113 30l41 -24l152 -586l132 506l15 74l6 6l40 24h68l40 -24l6 -6l15 -74l132 -506l152 586l41 24l113 -30l24 -40l-243 -931l-40 -24h-95l-40 24l-139 534l-139 -534l-40 -24h-95l-40 24z" />
<glyph unicode="x" horiz-adv-x="711" d="M43 49l205 521l-161 412l31 46h134l31 -21l69 -173l68 173l31 21h130l32 -46l-158 -407l209 -526l-31 -46l-138 -3l-32 21l-112 286l-111 -285l-32 -22l-134 3z" />
<glyph unicode="y" horiz-adv-x="718" d="M8 907l251 -361v-513l32 -33h118l32 33v528l240 346l-8 45l-97 67l-45 -8l-187 -268l-186 268l-45 8l-97 -67z" />
<glyph unicode="z" horiz-adv-x="789" d="M50 36v130l8 8l377 645h-316l-37 36v130l37 36h537l36 -36v-130l-16 -16l-375 -637h410l36 -36v-130l-36 -36h-625z" />
<glyph unicode="|" horiz-adv-x="926" d="M320 58v1693l58 58h207l58 -58v-1693l-58 -58h-207z" />
<glyph unicode="~" horiz-adv-x="1014" d="M98 729q10 9 41 42q33 34 54 53q23 21 63 41q43 21 88 21q80 0 180 -58q75 -43 122 -43q21 0 54 67l43 8l146 -92l5 -26q-24 -31 -41 -49q-17 -19 -48 -48q-34 -30 -73 -45q-41 -17 -85 -17q-20 0 -39 3q-20 3 -43 11q-18 6 -28 9q-10 4 -34 15q-22 9 -25 11h-1 q-16 7 -52 24q-34 17 -52 24q-15 5 -26 5q-4 0 -15 -10q-20 -18 -44 -59l-42 -7l-144 92z" />
<glyph unicode="&#xaa;" horiz-adv-x="648" />
<glyph unicode="&#xab;" horiz-adv-x="944" d="M174 479l342 303h14v-37l-205 -266l205 -266v-37h-14zM487 479l342 303h14v-37l-205 -266l205 -266v-37h-14z" />
<glyph unicode="&#xad;" d="M116 437v83q0 29 41 29h356q41 0 41 -29v-83q0 -28 -40 -28h-358q-40 0 -40 28z" />
<glyph unicode="&#xaf;" />
<glyph unicode="&#xb0;" horiz-adv-x="674" d="M60 1164q0 116 81.5 197t197.5 81q115 0 196 -81.5t81 -196.5q0 -114 -82 -196t-197 -82q-117 0 -197 81t-80 197zM130 1163q0 -87 61 -147t148 -60t147 60t60 147t-60.5 148t-146.5 61t-147.5 -61t-61.5 -148z" />
<glyph unicode="&#xb4;" horiz-adv-x="1024" d="M316 1078l291 297q35 35 55.5 47t40.5 12q33 0 53.5 -20t20.5 -51q0 -22 -15.5 -42t-46.5 -40l-330 -203h-69z" />
<glyph unicode="&#xb5;" horiz-adv-x="778" d="M18 36v954l33 33h116l10 -10h1l209 -204l211 205l2 -1l9 10h117l32 -33v-954l-32 -33h-117l-33 33v703l-116 -113l-49 -50h-46l-165 162v-702l-33 -33h-116z" />
<glyph unicode="&#xb7;" horiz-adv-x="508" d="M129 709q0 15 16 31l82 84q15 14 29 14q13 0 31 -16l80 -86q12 -16 12 -29q0 -15 -14 -31l-80 -88q-20 -20 -29 -20q-16 0 -29 14l-88 101q-10 13 -10 26z" />
<glyph unicode="&#xb9;" horiz-adv-x="1014" />
<glyph unicode="&#xba;" horiz-adv-x="718" />
<glyph unicode="&#xbb;" horiz-adv-x="944" d="M101 176v37l205 266l-205 266v37h14l342 -303l-342 -303h-14zM414 176v37l205 266l-205 266v37h14l342 -303l-342 -303h-14z" />
<glyph unicode="&#x2dc;" horiz-adv-x="1024" d="M234 1132q19 106 68 158.5t129 52.5q46 -1 113 -24q64 -23 112 -23h4q36 0 58 20t36 66h54q-20 -103 -68.5 -154t-126.5 -51h-4q-50 0 -113 23q-66 24 -114 24q-39 0 -60.5 -20.5t-33.5 -71.5h-54z" />
<glyph unicode="&#x2000;" horiz-adv-x="904" />
<glyph unicode="&#x2001;" horiz-adv-x="1809" />
<glyph unicode="&#x2002;" horiz-adv-x="904" />
<glyph unicode="&#x2003;" horiz-adv-x="1809" />
<glyph unicode="&#x2004;" horiz-adv-x="603" />
<glyph unicode="&#x2005;" horiz-adv-x="452" />
<glyph unicode="&#x2006;" horiz-adv-x="301" />
<glyph unicode="&#x2007;" horiz-adv-x="301" />
<glyph unicode="&#x2008;" horiz-adv-x="226" />
<glyph unicode="&#x2009;" horiz-adv-x="361" />
<glyph unicode="&#x200a;" horiz-adv-x="100" />
<glyph unicode="&#x2010;" d="M116 437v83q0 29 41 29h356q41 0 41 -29v-83q0 -28 -40 -28h-358q-40 0 -40 28z" />
<glyph unicode="&#x2011;" d="M116 437v83q0 29 41 29h356q41 0 41 -29v-83q0 -28 -40 -28h-358q-40 0 -40 28z" />
<glyph unicode="&#x2012;" d="M116 437v83q0 29 41 29h356q41 0 41 -29v-83q0 -28 -40 -28h-358q-40 0 -40 28z" />
<glyph unicode="&#x2013;" horiz-adv-x="1108" d="M183 471v166l47 47h645l47 -47v-166l-47 -47h-645z" />
<glyph unicode="&#x2014;" horiz-adv-x="2048" d="M3 447v205l129 58h1790l130 -58v-205l-130 -58h-1790z" />
<glyph unicode="&#x2018;" horiz-adv-x="557" d="M186 1233q0 109 71 226.5t139 117.5v-43q-73 -43 -87 -190q0 -119 129 -161v-42l-119 -125q-44 0 -88.5 65.5t-44.5 151.5z" />
<glyph unicode="&#x2019;" horiz-adv-x="557" d="M119 1410v42l119 125q44 0 88.5 -65.5t44.5 -151.5q0 -109 -71 -226.5t-139 -117.5v43q73 43 87 190q0 119 -129 161z" />
<glyph unicode="&#x201a;" horiz-adv-x="557" d="M119 114v42l119 125q44 0 88.5 -65.5t44.5 -151.5q0 -109 -71 -226.5t-139 -117.5v43q73 43 87 190q0 119 -129 161z" />
<glyph unicode="&#x201c;" horiz-adv-x="910" d="M186 1233q0 109 71 226.5t139 117.5v-43q-73 -43 -87 -190q0 -119 129 -161v-42l-119 -125q-44 0 -88.5 65.5t-44.5 151.5zM539 1233q0 109 71 226.5t139 117.5v-43q-73 -43 -87 -190q0 -119 129 -161v-42l-119 -125q-44 0 -88.5 65.5t-44.5 151.5z" />
<glyph unicode="&#x201d;" horiz-adv-x="910" d="M119 1410v42l119 125q44 0 88.5 -65.5t44.5 -151.5q0 -109 -71 -226.5t-139 -117.5v43q73 43 87 190q0 119 -129 161zM472 1410v42l119 125q44 0 88.5 -65.5t44.5 -151.5q0 -109 -71 -226.5t-139 -117.5v43q73 43 87 190q0 119 -129 161z" />
<glyph unicode="&#x201e;" horiz-adv-x="910" d="M119 114v42l119 125q44 0 88.5 -65.5t44.5 -151.5q0 -109 -71 -226.5t-139 -117.5v43q73 43 87 190q0 119 -129 161zM472 114v42l119 125q44 0 88.5 -65.5t44.5 -151.5q0 -109 -71 -226.5t-139 -117.5v43q73 43 87 190q0 119 -129 161z" />
<glyph unicode="&#x2026;" horiz-adv-x="2048" d="M129 136q0 15 16 31l82 84q15 14 29 14q13 0 31 -16l80 -86q12 -16 12 -29q0 -15 -14 -31l-80 -88q-20 -20 -29 -20q-16 0 -29 14l-88 101q-10 13 -10 26zM812 136q0 15 16 31l82 84q15 14 29 14q13 0 31 -16l80 -86q12 -16 12 -29q0 -15 -14 -31l-80 -88 q-20 -20 -29 -20q-16 0 -29 14l-88 101q-10 13 -10 26zM1495 136q0 15 16 31l82 84q15 14 29 14q13 0 31 -16l80 -86q12 -16 12 -29q0 -15 -14 -31l-80 -88q-20 -20 -29 -20q-16 0 -29 14l-88 101q-10 13 -10 26z" />
<glyph unicode="&#x202f;" horiz-adv-x="361" />
<glyph unicode="&#x205f;" horiz-adv-x="452" />
<glyph unicode="&#x20ac;" horiz-adv-x="1014" d="M-44 653l17 60h87v29q0 16 1 31h-71l17 60h58q14 145 76 281q81 178 226 274t298 96q43 0 87 -8q40 -10 82 -29q8 -6 16 -6q20 0 34 45h41l84 -281l-40 -1q-49 134 -138 178q-43 22 -81 32v3q-50 16 -101 16q-17 0 -34 -2q-120 -12 -226 -113.5t-157 -273.5 q-32 -104 -39 -211h706l-17 -60h-692q0 -30 2 -60h674l-17 -60h-652q17 -158 83 -298q74 -157 193 -236q102 -68 216 -69q186 3 256 91q74 91 74 185h48v-143q0 -70 -111 -127q-105 -54 -267 -56q-181 0 -325.5 98t-223.5 274q-62 135 -76 281h-108z" />
<glyph unicode="&#x2122;" horiz-adv-x="1497" />
<glyph unicode="&#x25fc;" horiz-adv-x="1030" d="M0 0v1030h1030v-1030h-1030z" />
</font>
</defs>
</svg>
