<?xml version="1.0" standalone="no"?>
<!DOCTYPE svg PUBLIC "-//W3C//DTD SVG 1.1//EN" "http://www.w3.org/Graphics/SVG/1.1/DTD/svg11.dtd">
<svg width="476px" height="32px" version="1.1" xmlns="http://www.w3.org/2000/svg" xmlns:xlink="http://www.w3.org/1999/xlink" xml:space="preserve" style="fill-rule:evenodd;clip-rule:evenodd;stroke-linejoin:round;stroke-miterlimit:1.41421;">
    <g>
        <g id="Layer1">
            <g>
                <path d="M30.6695,32C29.7539,31.9975 28.8387,31.9752 27.925,31.9168C27.209,31.871 26.4942,31.8045 25.7834,31.7106C25.2258,31.637 24.6706,31.5465 24.1202,31.4345C23.688,31.3466 23.2587,31.2453 22.8345,31.1277C22.5016,31.0355 22.1719,30.9331 21.8467,30.8189C21.5529,30.7156 21.2628,30.6026 20.9782,30.4782C20.7559,30.3811 20.537,30.277 20.3225,30.1653C19.2633,29.6131 18.2697,28.85 17.688,27.8307C17.6048,27.685 17.5335,27.5347 17.4694,27.3807L17.4541,27.3411L0.299598,5.8937L0.0182168,5.34424C-0.0185649,4.73908 -0.0173764,4.73116 0.194154,4.15885L0.624687,3.70339L1.20724,3.43799L1.85314,3.40307C2.45999,3.6026 2.46728,3.60667 2.94693,4.01001L20.2798,25.6803C20.4741,25.9932 20.4747,25.9945 20.5872,26.3411C20.5825,26.3168 20.5772,26.2928 20.5695,26.2692C20.569,26.2676 20.5706,26.2722 20.5712,26.2737C20.5858,26.3086 20.6043,26.3415 20.6236,26.3741C20.6438,26.4064 20.665,26.4377 20.6871,26.4688C20.9179,26.7747 21.2315,27.0166 21.5624,27.2212C22.1029,27.5553 22.705,27.7976 23.3156,27.9919C24.2646,28.294 25.2526,28.4823 26.2432,28.613C27.6279,28.7958 29.0261,28.8602 30.4232,28.8715C171.615,29.2527 312.808,28.8722 454.001,28.8722C455.113,27.8782 456.197,26.8549 457.267,25.8199C458.765,24.3703 460.229,22.8891 461.65,21.3723C463.049,19.8791 464.408,18.3513 465.703,16.7768C466.782,15.4655 467.818,14.1218 468.779,12.7313C469.407,11.8235 470.003,10.8954 470.546,9.94031C471.01,9.12461 471.437,8.2884 471.796,7.42639C472.288,6.24363 472.674,4.9901 472.684,3.71054L472.815,3.11298L473.179,2.60817L473.719,2.27297L474.355,2.15842L474.988,2.28194C475.167,2.39621 475.372,2.47985 475.524,2.62475C475.675,2.76964 475.798,2.94614 475.879,3.13463C476.007,3.43271 476.006,3.69693 475.996,3.99377C475.985,4.35948 475.95,4.7244 475.897,5.08679C475.766,5.98531 475.521,6.86724 475.211,7.72498C474.824,8.79808 474.333,9.83677 473.787,10.8458C472.895,12.4926 471.853,14.0653 470.741,15.5872C469.408,17.412 467.968,19.1664 466.469,20.8728C464.666,22.9262 462.776,24.9109 460.827,26.8422C459.211,28.4441 457.558,30.0154 455.848,31.529L455.789,31.5809C455.269,31.8896 455.262,31.8921 454.659,32C313.329,32 171.999,32 30.6695,32Z" style="fill:rgb(250,243,241);fill-rule:nonzero;"/>
            </g>
            <g>
                <path d="M30.395,26.7747C30.2634,26.7693 30.1367,26.7596 30.0082,26.73C29.6698,26.6519 29.3618,26.4721 29.1367,26.2214C29.0512,26.1262 28.9854,26.0236 28.9216,25.9149C27.8736,23.9544 26.8274,21.9931 25.7754,20.0345C25.3674,19.2812 24.9404,18.5377 24.4955,17.8032C23.517,16.188 22.466,14.6131 21.435,13.0277C21.1504,12.5877 20.8676,12.1468 20.5867,11.7047C19.5264,10.0204 18.5187,8.30592 17.6628,6.51978C17.4848,6.14821 17.3076,5.77481 17.1488,5.3955C16.9991,5.03821 16.8623,4.67609 16.7162,4.31751C16.6468,4.14983 16.5763,3.98267 16.5045,3.8159C16.3007,3.3541 16.0893,2.89274 15.8186,2.46163L15.7851,2.41006L15.7566,2.36783L15.6844,2.34864C15.576,2.3109 15.5473,2.30435 15.444,2.25473C15.1728,2.12437 14.9421,1.92326 14.783,1.67843C14.6923,1.53876 14.6251,1.38568 14.5845,1.22639C14.4511,0.702188 14.6202,0.136666 15.0243,-0.244535C15.1471,-0.360371 15.2893,-0.457765 15.444,-0.532137C15.6588,-0.635376 15.8981,-0.695528 16.1377,-0.716019C16.3029,-0.730152 16.4698,-0.724641 16.6337,-0.700703C16.7454,-0.684393 16.8555,-0.65911 16.963,-0.626134C17.0593,-0.59657 17.1533,-0.560308 17.2444,-0.51859C17.9388,-0.200681 18.4082,0.421708 18.7776,1.0392C18.8549,1.16834 18.9285,1.29941 18.9995,1.4317C19.1055,1.62928 19.2055,1.82972 19.3015,2.03177C19.4543,2.35307 19.5965,2.67873 19.7334,3.0063C19.9052,3.41736 20.0633,3.83326 20.2326,4.24519C20.3074,4.42004 20.3872,4.59294 20.4661,4.76617C20.9671,5.84373 21.5199,6.89754 22.1167,7.9308C23.3129,10.0022 24.6597,11.992 25.9628,14.0039C26.2007,14.3738 26.4377,14.7441 26.6725,15.1158C27.1979,15.9529 27.7119,16.7964 28.1989,17.6541C28.5181,18.2162 28.822,18.7855 29.1275,19.3543C29.7849,20.5808 30.4406,21.808 31.0962,23.0353L31.8827,24.5068L31.9367,24.6186C31.9762,24.721 31.9895,24.7459 32.016,24.8523C32.0459,24.9718 32.0608,25.0947 32.0602,25.2175C32.0583,25.6294 31.8796,26.0314 31.5695,26.3214C31.4462,26.4367 31.3036,26.5336 31.1486,26.6073C31.0323,26.6626 30.9091,26.7049 30.7823,26.7331C30.6695,26.7581 30.64,26.7581 30.5252,26.7704C30.4818,26.7719 30.4384,26.7733 30.395,26.7747ZM16.6359,2.36812C16.6731,2.35914 16.673,2.35973 16.7092,2.34863C16.6848,2.35513 16.6604,2.36162 16.6359,2.36812Z" style="fill:rgb(250,243,241);fill-rule:nonzero;"/>
            </g>
            <g>
                <path d="M42.4951,24.4828C42.3784,24.4769 42.2653,24.4675 42.1511,24.4425C41.8499,24.3764 41.5707,24.2299 41.3524,24.0233C41.2418,23.9187 41.1553,23.8014 41.0752,23.6752C39.7704,21.4464 38.4653,19.2177 37.1583,16.99C36.1775,15.3202 35.1963,13.6506 34.2127,11.9822C33.873,11.4062 33.5362,10.8286 33.1928,10.2546C33.1528,10.1894 33.1122,10.1247 33.0711,10.0601C32.6761,9.45526 32.249,8.86975 31.8362,8.27565C31.7398,8.13522 31.6438,7.99448 31.5483,7.85345C31.1294,7.22341 30.7257,6.58313 30.396,5.90659C30.1773,5.45793 29.9899,4.99348 29.8664,4.51298C29.7905,4.21732 29.739,3.91564 29.722,3.61168C29.7162,3.50767 29.7122,3.40231 29.719,3.29825C29.7283,3.15292 29.7593,3.00892 29.8108,2.87166C29.8752,2.70004 29.9715,2.53935 30.0942,2.39884C30.4415,2.00111 30.9885,1.78721 31.5323,1.83642C31.686,1.85032 31.8375,1.88457 31.9811,1.93788C32.1607,2.00454 32.3276,2.10093 32.4722,2.2215C32.7332,2.43909 32.9171,2.73342 32.9926,3.05412C33.0094,3.12521 33.0208,3.19731 33.0269,3.2699C33.0343,3.35751 33.0313,3.4447 33.0415,3.53208C33.0472,3.57478 33.0547,3.61702 33.0626,3.65939C33.1266,3.95567 33.2386,4.23965 33.3685,4.51547C33.5135,4.82333 33.6811,5.12145 33.8583,5.4138C34.3749,6.26643 34.9734,7.07234 35.5425,7.89373C35.6649,8.07279 35.7854,8.2526 35.9039,8.43397C35.9609,8.52336 36.0171,8.61309 36.0724,8.70341C36.4221,9.2878 36.7651,9.87568 37.1109,10.4621C37.7673,11.5755 38.4225,12.6896 39.0777,13.8036C40.7137,16.5888 42.3464,19.3758 43.9783,22.1633L44.0306,22.2606C44.0706,22.3499 44.0832,22.3715 44.1132,22.4645C44.1581,22.6038 44.1822,22.7489 44.1846,22.8945C44.192,23.3343 43.9972,23.7653 43.6556,24.0647C43.5425,24.1639 43.4148,24.248 43.2771,24.3138C43.1394,24.3797 42.9921,24.4273 42.8405,24.4549C42.7394,24.4733 42.7132,24.4728 42.6108,24.4811C42.5723,24.4817 42.5337,24.4823 42.4951,24.4828Z" style="fill:rgb(250,243,241);fill-rule:nonzero;"/>
            </g>
            <g>
                <path d="M57.7775,19.6015C57.6218,19.6104 57.4705,19.6092 57.3169,19.5822C56.9369,19.5153 56.5896,19.3205 56.3467,19.0382C56.2485,18.9241 56.1757,18.7995 56.1102,18.6667C55.9696,18.3532 55.8298,18.0394 55.6906,17.7254C54.5212,15.0573 53.4315,12.3589 52.3103,9.67224C52.1134,9.2029 51.9155,8.73398 51.7164,8.26549C51.252,7.181 50.7802,6.0995 50.2866,5.02678C49.9694,4.33753 49.6404,3.65326 49.3186,2.96598C49.2487,2.81857 49.1779,2.6717 49.1058,2.5253C48.9488,2.21512 48.7858,1.90772 48.5955,1.61454C48.4741,1.42737 48.3425,1.24475 48.1905,1.07849C48.1016,0.981356 48.0051,0.886955 47.8935,0.812771C47.853,0.785819 47.8032,0.751405 47.7521,0.744101C47.7382,0.742105 47.723,0.744529 47.7094,0.745616L47.5938,0.750989C47.4911,0.748991 47.4651,0.751025 47.3631,0.738878C47.0952,0.706979 46.8377,0.612388 46.6185,0.465348C46.4933,0.381418 46.3809,0.280818 46.2854,0.16732C45.9226,-0.264091 45.831,-0.862555 46.0486,-1.37887C46.1202,-1.54869 46.2233,-1.7067 46.3518,-1.84378C46.5578,-2.06346 46.828,-2.22683 47.1248,-2.31129C47.3116,-2.36443 47.5058,-2.38124 47.6995,-2.38538C48.0298,-2.39245 48.36,-2.35358 48.6774,-2.27076C48.8283,-2.23139 48.9762,-2.1822 49.12,-2.12417C50.2377,-1.67307 51.0204,-0.728241 51.6051,0.244751C51.7164,0.429888 51.8224,0.618071 51.9229,0.808742C52.0444,1.03957 52.1599,1.2729 52.273,1.50755C52.387,1.74798 52.498,1.98965 52.6116,2.23023C52.7774,2.58146 52.9454,2.9317 53.1106,3.28319C53.5467,4.22433 53.9719,5.16975 54.3845,6.12047C55.408,8.47844 56.3702,10.8601 57.3579,13.2318C57.5542,13.7011 57.7514,14.17 57.9497,14.6385C58.3467,15.5694 58.7505,16.4972 59.1648,17.4212L59.2059,17.5228C59.2357,17.6153 59.2458,17.638 59.2652,17.7332C59.287,17.8403 59.2968,17.9496 59.2945,18.0588C59.2835,18.5744 58.9952,19.0652 58.5364,19.3494C58.4068,19.4297 58.2655,19.4929 58.1178,19.5366C58.0193,19.5657 57.9933,19.5681 57.8924,19.5874C57.8541,19.5921 57.8158,19.5968 57.7775,19.6015Z" style="fill:rgb(250,243,241);fill-rule:nonzero;"/>
            </g>
            <g>
                <path d="M432.757,24.3354C432.651,24.334 432.625,24.3363 432.52,24.3244C432.324,24.302 432.133,24.2463 431.958,24.1608C431.817,24.0923 431.688,24.0049 431.574,23.902C431.17,23.5374 430.985,22.9912 431.092,22.4735C431.122,22.3273 431.175,22.1853 431.247,22.0531C431.296,21.9648 431.313,21.9454 431.371,21.8627C431.615,21.54 431.86,21.2178 432.106,20.8961C432.955,19.7968 433.818,18.707 434.704,17.6339C436.126,15.912 437.602,14.2301 439.132,12.5925C440.139,11.5139 441.169,10.4544 442.22,9.41276C442.649,8.98723 443.081,8.56469 443.516,8.14495C443.728,7.94118 443.941,7.73973 444.149,7.53389C444.477,7.20718 444.802,6.87776 445.126,6.54765C446.321,5.32565 447.508,4.09561 448.647,2.82657L448.751,2.70939L448.792,2.66235L448.802,2.57834C448.821,2.48082 448.823,2.45568 448.853,2.36045C448.898,2.2177 448.964,2.08114 449.05,1.95611C449.136,1.83109 449.24,1.71777 449.36,1.6206C449.444,1.55265 449.534,1.49173 449.625,1.43182C449.799,1.3162 449.981,1.21181 450.179,1.1359C450.426,1.04096 450.69,1.00816 450.955,1.0189L450.961,1.01927C451.077,1.03084 451.077,1.03064 451.192,1.04999C451.283,1.06543 451.372,1.09572 451.459,1.12553L451.463,1.12715C451.566,1.16935 451.661,1.21554 451.758,1.27032L451.761,1.27255C451.844,1.32678 451.866,1.3385 451.942,1.40048C452.041,1.48092 452.13,1.57223 452.206,1.67205C452.303,1.79892 452.38,1.93927 452.434,2.08725C452.477,2.20586 452.505,2.32972 452.518,2.45456C452.544,2.72238 452.497,2.99213 452.392,3.24147C452.273,3.52258 452.081,3.77385 451.889,4.01392C451.735,4.20732 451.574,4.39588 451.411,4.58279C450.716,5.37997 449.987,6.15096 449.256,6.91838C448.366,7.852 447.469,8.78071 446.551,9.6903C446.193,10.046 445.824,10.3931 445.461,10.7448C445.181,11.0187 444.901,11.2931 444.623,11.5682C443.941,12.2479 443.264,12.932 442.598,13.6261C441.42,14.855 440.272,16.1098 439.157,17.3901C438.029,18.6841 436.933,20.003 435.872,21.346C435.262,22.1183 434.662,22.8974 434.069,23.681L433.997,23.7695C433.917,23.8537 433.837,23.9329 433.743,24.0027C433.556,24.1406 433.338,24.2399 433.108,24.2922C433.006,24.3155 432.979,24.3161 432.875,24.3289C432.835,24.331 432.796,24.3332 432.757,24.3354Z" style="fill:rgb(250,243,241);fill-rule:nonzero;"/>
            </g>
            <g>
                <path d="M452.299,22.209C452.196,22.2085 452.17,22.2109 452.068,22.2003C451.876,22.1804 451.688,22.1287 451.515,22.0481C450.989,21.8032 450.632,21.2997 450.594,20.7475C450.584,20.6022 450.596,20.4556 450.629,20.3134C450.67,20.1355 450.744,19.9647 450.847,19.8108C450.902,19.7286 450.92,19.711 450.984,19.6349C452.307,18.1616 453.628,16.686 454.951,15.2125C456.683,13.2891 458.421,11.3704 460.193,9.47982C461.425,8.16527 462.676,6.86628 463.944,5.58287C464.009,5.51878 464.075,5.45601 464.142,5.39387C464.316,5.23587 464.495,5.08326 464.675,4.93144C465.116,4.56521 465.56,4.20358 466,3.83704C466.556,3.36914 467.11,2.89544 467.617,2.38037C467.785,2.21044 467.948,2.03582 468.098,1.85203C468.207,1.71884 468.315,1.57991 468.393,1.4275C468.399,1.41446 468.396,1.41413 468.397,1.39859L468.411,1.29028L468.434,1.1832C468.464,1.07682 468.498,0.974473 468.548,0.874396C468.663,0.643548 468.838,0.440699 469.055,0.287817C469.209,0.178712 469.384,0.0954177 469.568,0.0427313C470.053,-0.095457 470.59,-0.0136694 471.004,0.261393C471.13,0.345272 471.243,0.445814 471.34,0.559248C471.461,0.70107 471.555,0.862789 471.618,1.03509C471.72,1.31813 471.724,1.61829 471.676,1.91143C471.595,2.41536 471.358,2.8845 471.066,3.30903C470.959,3.46477 470.844,3.61551 470.724,3.7624C470.603,3.91016 470.477,4.05394 470.347,4.19475C470.183,4.37346 470.012,4.54726 469.838,4.71765C469.626,4.92421 469.409,5.12562 469.189,5.32363C468.866,5.61396 468.535,5.89677 468.202,6.17616C467.763,6.54376 467.317,6.90441 466.877,7.27067C466.749,7.37837 466.622,7.48673 466.497,7.59718C466.459,7.63138 466.422,7.6658 466.385,7.70089C466.098,7.98482 465.817,8.27647 465.534,8.5645C464.434,9.69317 463.347,10.8326 462.274,11.9835C459.304,15.1673 456.42,18.4215 453.514,21.6568L453.436,21.7375C453.362,21.8045 453.345,21.8233 453.263,21.8827C453.111,21.9941 452.938,22.08 452.754,22.1354C452.642,22.1691 452.53,22.1871 452.414,22.2019C452.376,22.2043 452.337,22.2066 452.299,22.209Z" style="fill:rgb(250,243,241);fill-rule:nonzero;"/>
            </g>
            <g>
                <path d="M204.92,19.7001C204.77,19.6989 204.625,19.6888 204.48,19.6549C204.01,19.5454 203.607,19.2398 203.392,18.8305C203.308,18.6719 203.262,18.5063 203.233,18.3324C203.169,17.8563 203.103,17.3804 203.036,16.9047C202.967,16.4282 202.897,15.952 202.826,15.4757C202.571,13.7973 202.306,12.1203 202.051,10.442C201.888,9.35325 201.731,8.26405 201.587,7.17292L201.538,6.79399C201.525,6.66599 201.515,6.53806 201.506,6.40971C201.475,5.92945 201.447,5.449 201.414,4.96882C201.367,4.31244 201.314,3.65623 201.232,3.0028C201.171,2.51918 201.101,2.0322 200.967,1.56115L200.965,1.55707L200.932,1.53144L200.851,1.46014C200.784,1.39241 200.765,1.3769 200.705,1.30304C200.57,1.13686 200.472,0.945289 200.416,0.742685C200.37,0.5739 200.354,0.398 200.37,0.224309C200.385,0.0506189 200.431,-0.120448 200.506,-0.279822C200.566,-0.407299 200.644,-0.527124 200.737,-0.635168C200.948,-0.878855 201.236,-1.0592 201.556,-1.14767C201.855,-1.23053 202.185,-1.23192 202.487,-1.15574C202.672,-1.10898 202.847,-1.04273 203.012,-0.948545C203.093,-0.902262 203.17,-0.849883 203.243,-0.793335C203.771,-0.385057 204.03,0.237966 204.196,0.844076C204.232,0.97373 204.264,1.10433 204.293,1.23543C204.333,1.41571 204.367,1.59701 204.399,1.77878C204.44,2.01482 204.475,2.25175 204.506,2.48906C204.545,2.77989 204.577,3.07136 204.607,3.36313C204.653,3.82918 204.691,4.29605 204.723,4.76315C204.762,5.31042 204.785,5.85879 204.83,6.40559C204.844,6.53467 204.862,6.6633 204.879,6.79206C204.909,7.02938 204.941,7.26657 204.973,7.50377C205.088,8.33718 205.21,9.1696 205.334,10.0018C205.553,11.4395 205.778,12.8763 205.999,14.3138C206.164,15.4012 206.325,16.489 206.474,17.5785L206.523,17.941C206.54,18.1164 206.539,18.2876 206.5,18.4607C206.399,18.9075 206.089,19.2981 205.663,19.5143C205.497,19.598 205.323,19.6472 205.14,19.6809C205.03,19.6939 205.031,19.6939 204.92,19.7001ZM201.941,1.91504L201.851,1.90807C201.896,1.91427 201.896,1.91295 201.941,1.91504Z" style="fill:rgb(250,243,241);fill-rule:nonzero;"/>
            </g>
            <g>
                <path d="M334.553,28.0766C334.473,28.0763 334.453,28.0777 334.373,28.0713C334.194,28.0567 334.018,28.0146 333.853,27.9469C333.716,27.8905 333.587,27.8165 333.471,27.7276C333.047,27.4037 332.817,26.8912 332.863,26.3791C332.879,26.2102 332.923,26.044 332.995,25.8886C333.027,25.8195 333.038,25.8036 333.076,25.7372C333.199,25.5466 333.331,25.361 333.458,25.1729C333.623,24.9289 333.786,24.6839 333.949,24.4387C334.862,23.0556 335.745,21.655 336.637,20.2597C336.956,19.7623 337.278,19.2659 337.601,18.7707C337.766,18.5203 337.932,18.2702 338.099,18.0209C338.157,17.9345 338.217,17.8497 338.273,17.7618C338.334,17.6597 338.391,17.5555 338.448,17.4511C338.629,17.1134 338.809,16.7749 338.994,16.4389C339.09,16.2672 339.09,16.2675 339.187,16.0963C339.325,15.8599 339.465,15.6253 339.613,15.3943C339.727,15.2161 339.847,15.0409 339.973,14.87C340.417,14.2674 340.972,13.6742 341.731,13.4327C341.853,13.3938 341.979,13.3643 342.106,13.3461C342.227,13.3288 342.349,13.321 342.471,13.3242C342.651,13.329 342.83,13.3615 342.998,13.42C343.195,13.4884 343.377,13.5922 343.533,13.7244C343.667,13.8376 343.781,13.9714 343.869,14.119C343.943,14.242 343.998,14.3744 344.034,14.5114C344.166,15.0103 344.023,15.5506 343.658,15.9329C343.518,16.08 343.348,16.2015 343.16,16.2892C343.082,16.3258 343.002,16.354 342.919,16.3802C342.88,16.4225 342.843,16.4663 342.807,16.5106C342.574,16.8038 342.376,17.1205 342.188,17.4403C341.887,17.9507 341.617,18.4762 341.335,18.9955C341.27,19.1109 341.271,19.1104 341.205,19.2247C341.155,19.3089 341.155,19.3089 341.103,19.3918C340.931,19.6541 340.754,19.9139 340.58,20.1756C339.671,21.5552 338.792,22.9519 337.902,24.3426C337.579,24.8442 337.255,25.345 336.928,25.8438C336.592,26.3522 336.253,26.8582 335.908,27.3614L335.858,27.4313C335.803,27.4989 335.747,27.5639 335.682,27.624C335.512,27.7831 335.305,27.9065 335.08,27.9835C334.966,28.0223 334.851,28.0458 334.732,28.0636C334.642,28.0724 334.642,28.0724 334.553,28.0766ZM342.468,16.4509C342.47,16.4508 342.47,16.4508 342.468,16.4509Z" style="fill:rgb(250,243,241);fill-rule:nonzero;"/>
            </g>
            <g>
                <path d="M355.81,22.9968C355.712,22.9957 355.687,22.9977 355.589,22.9873C355.405,22.9678 355.225,22.9192 355.058,22.8439C354.925,22.7838 354.8,22.7067 354.689,22.6155C354.294,22.293 354.08,21.8016 354.121,21.3104C354.133,21.1714 354.164,21.034 354.214,20.9028C354.248,20.8153 354.261,20.7952 354.303,20.7115C354.456,20.4347 354.609,20.1582 354.763,19.882C356.401,16.9743 358.155,14.119 360.148,11.4132C360.863,10.4426 361.609,9.49185 362.397,8.57302C362.67,8.25447 362.948,7.93982 363.232,7.62991C363.366,7.484 363.499,7.33692 363.639,7.19567C363.964,6.86606 364.327,6.56948 364.685,6.27278C365.165,5.87491 365.65,5.48223 366.13,5.08418C366.341,4.90799 366.55,4.73084 366.759,4.55231C367.07,4.28171 367.379,4.00918 367.673,3.72189C367.868,3.53124 368.059,3.33517 368.223,3.1194L368.238,3.09794L368.248,3.0533L368.277,2.95241C368.313,2.8527 368.352,2.75673 368.405,2.66382C368.511,2.48006 368.657,2.31701 368.83,2.18687C368.946,2.10015 369.074,2.02815 369.21,1.97335C369.761,1.75098 370.414,1.83187 370.885,2.18113C371.031,2.28873 371.157,2.41931 371.257,2.56593C371.377,2.74193 371.458,2.94046 371.496,3.14665C371.515,3.25046 371.52,3.35382 371.519,3.45896C371.513,4.03001 371.216,4.55963 370.867,5.00931C370.814,5.07733 370.758,5.14529 370.702,5.21116C370.617,5.31142 370.529,5.40937 370.44,5.50568C370.316,5.63767 370.189,5.76644 370.06,5.89306C369.891,6.05758 369.719,6.21836 369.544,6.37677C369.292,6.60572 369.034,6.82963 368.774,7.05093C368.48,7.3019 368.181,7.54935 367.882,7.79533C367.488,8.11856 367.093,8.44017 366.702,8.76588C366.558,8.88718 366.415,9.00923 366.273,9.13327C366.203,9.19606 366.133,9.25883 366.068,9.32549C365.956,9.43903 365.848,9.55859 365.741,9.67589C365.48,9.9599 365.225,10.2483 364.975,10.5402C364.292,11.3368 363.643,12.1595 363.019,12.9983C360.855,15.9084 358.983,19.0045 357.245,22.155L357.191,22.2461C357.129,22.3343 357.067,22.4183 356.991,22.4959C356.815,22.675 356.594,22.8141 356.352,22.8992C356.247,22.936 356.14,22.9585 356.031,22.9783C355.92,22.9911 355.921,22.991 355.81,22.9968ZM368.204,3.3637L368.208,3.3149C368.205,3.33945 368.205,3.33902 368.204,3.3637Z" style="fill:rgb(250,243,241);fill-rule:nonzero;"/>
            </g>
        </g>
    </g>
</svg>
