<?xml version="1.0" standalone="no"?>
<!DOCTYPE svg PUBLIC "-//W3C//DTD SVG 1.1//EN" "http://www.w3.org/Graphics/SVG/1.1/DTD/svg11.dtd">
<svg width="200px" height="200px" version="1.1" xmlns="http://www.w3.org/2000/svg" xmlns:xlink="http://www.w3.org/1999/xlink" xml:space="preserve" style="fill-rule:evenodd;clip-rule:evenodd;stroke-linejoin:round;stroke-miterlimit:1.41421;">
    <g>
        <g id="Layer1">
            <path d="M100,140.878C98.9352,140.874 97.871,140.851 96.8075,140.797C94.8426,140.697 92.8823,140.505 90.9356,140.22C85.3769,139.407 79.9336,137.832 74.8004,135.548C68.6457,132.811 62.9494,129.062 57.992,124.502C52.7719,119.7 48.3802,114.008 45.0702,107.734C42.2878,102.461 40.2757,96.7867 39.117,90.9378C37.7879,84.2287 37.5764,77.2982 38.4816,70.5193C39.3262,64.1934 41.1561,58.0064 43.8914,52.2401C47.0419,45.5986 51.3821,39.5336 56.6411,34.3985C62.1756,28.9944 68.7151,24.6344 75.84,21.6209C79.7111,19.9835 83.7493,18.744 87.8724,17.9272C91.7322,17.1625 95.6642,16.7687 99.5988,16.7438C103.543,16.7189 107.488,17.0635 111.367,17.7813C115.506,18.5475 119.565,19.7384 123.462,21.3305C130.627,24.258 137.222,28.5411 142.823,33.8816C148.141,38.9516 152.552,44.9617 155.782,51.5617C158.583,57.2857 160.487,63.4402 161.41,69.7457C162.401,76.5146 162.274,83.4498 161.029,90.1768C159.942,96.0474 157.998,101.754 155.276,107.068C152.098,113.272 147.868,118.929 142.823,123.739C137.861,128.47 132.118,132.375 125.887,135.238C120.79,137.58 115.375,139.22 109.835,140.103C107.896,140.411 105.943,140.628 103.984,140.752C102.924,140.819 101.864,140.856 100.802,140.873C100.534,140.875 100.267,140.877 100,140.878ZM100,137.336C101.005,137.333 102.009,137.311 103.013,137.26C104.867,137.166 106.715,136.985 108.551,136.716C113.791,135.949 118.922,134.465 123.76,132.312C129.671,129.683 135.133,126.065 139.868,121.657C144.592,117.26 148.585,112.084 151.631,106.394C154.282,101.443 156.211,96.1096 157.337,90.607C158.655,84.1671 158.878,77.5032 158.008,70.988C157.212,65.0252 155.487,59.1934 152.909,53.758C149.938,47.4946 145.844,41.7753 140.885,36.9325C135.666,31.8365 129.499,27.7246 122.78,24.8828C119.132,23.3395 115.325,22.1712 111.439,21.4013C107.799,20.6801 104.09,20.3089 100.379,20.2854C96.6585,20.2619 92.9364,20.5867 89.278,21.2639C85.3768,21.986 81.5507,23.1085 77.878,24.6091C71.1215,27.3696 64.9028,31.409 59.6208,36.4449C54.6057,41.2264 50.4456,46.8941 47.3995,53.1185C44.7591,58.514 42.9641,64.315 42.0942,70.2586C41.1596,76.6438 41.2791,83.1865 42.4537,89.5321C43.478,95.0657 45.3104,100.444 47.8758,105.453C50.873,111.305 54.8628,116.639 59.6208,121.175C64.3005,125.637 69.7161,129.32 75.5917,132.019C80.3963,134.227 85.5003,135.774 90.722,136.605C92.5502,136.896 94.3921,137.1 96.2396,137.217C97.2399,137.281 98.241,137.315 99.2431,137.331C99.4954,137.334 99.7477,137.335 100,137.336Z" style="fill:white;fill-rule:nonzero;"/>
            <path d="M100,175.397C99.2003,175.394 98.4011,175.382 97.6019,175.351C96.0226,175.291 94.4455,175.172 92.8752,174.992C88.2771,174.467 83.7395,173.425 79.3743,171.887C74.8744,170.302 70.5612,168.192 66.5449,165.618C62.4653,163.002 58.6939,159.908 55.3291,156.421C52.1349,153.111 49.3081,149.446 46.9193,145.515C44.6352,141.756 42.7527,137.754 41.3171,133.596C39.8479,129.341 38.8483,124.926 38.3371,120.454C38.1576,118.884 38.038,117.307 37.9779,115.727C37.9476,114.929 37.935,114.131 37.9324,113.332L37.9324,80.9035C37.9397,80.8112 37.9398,80.718 37.9542,80.6265C38.0124,80.2591 38.188,79.9144 38.4511,79.6514C38.5825,79.52 38.7338,79.4101 38.8993,79.3257C39.0649,79.2414 39.2427,79.1836 39.4263,79.1545C39.6098,79.1254 39.7968,79.1254 39.9803,79.1545C40.5354,79.2424 41.0259,79.5988 41.2811,80.0996C41.3655,80.2652 41.4232,80.443 41.4523,80.6265C41.4668,80.718 41.4668,80.8112 41.4741,80.9035C41.4741,91.8384 41.4406,102.773 41.4753,113.708C41.4825,114.462 41.4991,115.215 41.5325,115.968C41.6039,117.579 41.7411,119.186 41.9444,120.786C42.5086,125.224 43.5847,129.596 45.149,133.788C47.212,139.317 50.1215,144.523 53.7397,149.184C57.6193,154.183 62.3074,158.547 67.5714,162.057C72.4043,165.28 77.7162,167.777 83.2844,169.434C89.5461,171.297 96.1135,172.086 102.639,171.797C105.836,171.655 109.022,171.253 112.154,170.592C115.559,169.873 118.9,168.847 122.122,167.53C128.879,164.77 135.097,160.73 140.379,155.695C145.909,150.422 150.397,144.072 153.502,137.09C155.654,132.251 157.139,127.12 157.906,121.881C158.175,120.045 158.356,118.196 158.45,116.343C158.501,115.338 158.523,114.332 158.526,113.327L158.526,78.8101C158.533,78.7178 158.533,78.6246 158.548,78.5331C158.577,78.3496 158.635,78.1718 158.719,78.0062C158.803,77.8406 158.913,77.6894 159.045,77.558C159.442,77.1605 160.019,76.9732 160.574,77.0611C160.757,77.0902 160.935,77.148 161.101,77.2323C161.266,77.3167 161.418,77.4266 161.549,77.558C161.812,77.821 161.988,78.1657 162.046,78.5331C162.06,78.6246 162.06,78.7178 162.068,78.8101L162.068,113.332C162.065,114.131 162.052,114.929 162.022,115.727C161.962,117.307 161.842,118.884 161.663,120.454C161.152,124.926 160.152,129.341 158.683,133.596C157.247,137.754 155.365,141.756 153.081,145.515C150.756,149.34 148.017,152.913 144.929,156.152C141.499,159.75 137.639,162.935 133.455,165.618C129.546,168.124 125.355,170.19 120.984,171.76C116.755,173.279 112.36,174.332 107.903,174.898C106.339,175.097 104.767,175.236 103.193,175.316C102.396,175.357 101.599,175.379 100.802,175.392C100.535,175.394 100.267,175.396 100,175.397Z" style="fill:white;fill-rule:nonzero;"/>
            <path d="M19.0745,148.704C18.8606,148.699 18.6488,148.683 18.4373,148.65C17.8498,148.557 17.2881,148.356 16.7381,148.135C16.4179,148.003 16.101,147.864 15.7797,147.734C15.7011,147.704 15.7014,147.704 15.6224,147.675L15.5732,147.658C15.2509,147.632 14.928,147.614 14.6057,147.588C14.4529,147.575 14.3004,147.561 14.148,147.544C13.8442,147.506 13.5444,147.456 13.2609,147.335C13.0677,147.252 12.8869,147.131 12.7339,146.987C12.593,146.855 12.4716,146.704 12.3725,146.538C12.3056,146.426 12.2491,146.307 12.2037,146.185C12.1731,146.102 12.1488,146.026 12.1274,145.94C11.9621,145.272 12.107,144.575 12.3271,143.938C12.3736,143.804 12.4239,143.67 12.4772,143.538C12.5386,143.386 12.6042,143.236 12.6726,143.087C12.7763,142.861 12.8871,142.638 13.0039,142.418C13.1676,142.111 13.3395,141.805 13.5522,141.529C13.8217,141.207 14.0929,140.886 14.3647,140.566C15.1538,139.643 15.9488,138.726 16.7366,137.802C16.9933,137.499 17.2488,137.196 17.5027,136.89C17.9375,136.364 18.3675,135.834 18.7846,135.293C19.0769,134.914 19.3615,134.53 19.6413,134.142L19.6965,134.069C19.7557,133.999 19.8157,133.932 19.8835,133.87C20.0632,133.705 20.2767,133.579 20.5071,133.501C20.6798,133.442 20.8615,133.41 21.0439,133.407C21.2263,133.403 21.4091,133.428 21.584,133.48C22.1743,133.656 22.6402,134.141 22.7931,134.738C22.846,134.944 22.8612,135.159 22.8379,135.371C22.818,135.552 22.7698,135.73 22.6956,135.897C22.6583,135.981 22.6133,136.059 22.5656,136.138C22.4569,136.297 22.4551,136.295 22.3361,136.46C21.9067,137.045 21.4661,137.622 21.0126,138.189C19.7386,139.783 18.3866,141.313 17.0605,142.863C16.8185,143.148 16.5768,143.433 16.3368,143.72C16.2799,143.811 16.2274,143.905 16.1753,143.999L16.1302,144.083L16.0946,144.15L16.1927,144.164C16.4982,144.223 16.7893,144.327 17.079,144.44C17.4502,144.589 17.8157,144.751 18.1869,144.9C18.4477,145.002 18.7134,145.104 18.9907,145.151C19.0121,145.154 19.0335,145.157 19.0551,145.159C19.2069,145.065 19.3396,144.939 19.4597,144.807C19.6714,144.576 19.8497,144.314 20.0069,144.043C20.2564,143.614 20.4549,143.154 20.6113,142.683C20.7566,142.245 20.8682,141.793 20.9225,141.335C20.9447,141.148 20.9486,140.961 20.9553,140.773L20.9632,140.682C20.9758,140.591 20.9905,140.502 21.0148,140.414C21.079,140.179 21.192,139.958 21.3449,139.769C21.4595,139.627 21.5961,139.503 21.7484,139.403C22.2628,139.064 22.9335,139.018 23.4889,139.285C23.6534,139.364 23.8054,139.468 23.9381,139.593C24.093,139.739 24.221,139.914 24.3143,140.105C24.4077,140.296 24.4661,140.504 24.4859,140.716C24.4949,140.812 24.4944,140.908 24.4925,141.005C24.4901,141.129 24.4843,141.253 24.4755,141.376C24.4389,141.889 24.3522,142.397 24.2317,142.896C24.126,143.333 23.9935,143.764 23.8366,144.186C23.724,144.489 23.5987,144.787 23.4602,145.079C23.3402,145.332 23.2103,145.58 23.0696,145.822C22.6154,146.604 22.045,147.336 21.3243,147.89C20.976,148.158 20.5876,148.395 20.1698,148.536C19.8888,148.631 19.5995,148.678 19.3046,148.699C19.1894,148.703 19.1899,148.703 19.0745,148.704Z" style="fill:white;fill-rule:nonzero;"/>
            <path d="M23.6027,41.2757C23.495,41.2726 23.3898,41.2665 23.2835,41.2472C23.0377,41.2025 22.8021,41.1053 22.5963,40.9637C22.5073,40.9025 22.4284,40.8326 22.3498,40.7589C21.6581,40.0691 20.962,39.3837 20.274,38.6902C19.7846,38.1925 19.3039,37.687 18.8566,37.1507C18.3528,36.5468 17.888,35.9115 17.4331,35.2703C17.1583,34.8828 16.8872,34.4928 16.6171,34.102C16.4361,33.8402 16.2544,33.5788 16.0814,33.3116C15.7164,32.7481 15.3711,32.1722 15.0152,31.603C14.8913,31.4078 14.7664,31.2134 14.6379,31.0212C14.4951,30.8106 14.3447,30.6062 14.1967,30.3994C14.1444,30.3203 14.1445,30.3207 14.0943,30.2401C13.8125,29.7634 13.5941,29.25 13.3949,28.7344C13.1871,28.1968 13.0048,27.6483 12.8583,27.0907C12.737,26.6287 12.6391,26.1586 12.5915,25.6829C12.5238,25.0064 12.5609,24.2965 12.8619,23.6754C13.0239,23.3412 13.2573,23.0479 13.5493,22.8182C13.7578,22.6541 14.0001,22.5443 14.2409,22.4369C14.5482,22.2998 14.8591,22.1712 15.1714,22.0459C15.3524,21.9733 15.5346,21.9033 15.7175,21.8356C15.9844,21.7369 16.2534,21.6424 16.527,21.564C16.8385,21.4747 17.1572,21.4077 17.483,21.4159C17.7237,21.4219 17.9683,21.4782 18.1886,21.5747C18.2827,21.616 18.3758,21.6643 18.4605,21.7224C18.5557,21.7878 18.6462,21.8576 18.7291,21.9382C18.7919,21.9993 18.848,22.0658 18.904,22.133C18.9861,22.2493 19.0688,22.3648 19.154,22.4788C19.7012,23.1992 20.32,23.8618 20.9487,24.5111C21.5729,25.1557 22.2092,25.7886 22.8375,26.4292C23.016,26.6128 23.1937,26.797 23.3706,26.9821C23.6669,27.2951 23.9608,27.6103 24.247,27.9326C24.4774,28.1919 24.7034,28.4552 24.9231,28.7237C25.9686,30.0018 26.9035,31.4263 27.3448,33.0337C27.4769,33.5149 27.5628,34.009 27.5935,34.5072C27.606,34.7097 27.6179,34.9175 27.5955,35.1198C27.5759,35.297 27.5293,35.4712 27.4577,35.6346C27.3719,35.8307 27.2504,36.0108 27.1006,36.1637C26.9758,36.2911 26.8317,36.3994 26.6746,36.484C26.264,36.705 25.7729,36.7547 25.3262,36.6206C25.1554,36.5693 24.9925,36.4921 24.8447,36.3923C24.6969,36.2925 24.5644,36.1703 24.4529,36.0311C24.2968,35.8361 24.1829,35.6081 24.1206,35.3662C24.0936,35.2616 24.0799,35.1571 24.0691,35.0498C24.0647,34.9416 24.0639,34.8334 24.0584,34.7252C24.0469,34.5659 24.0272,34.4079 23.9959,34.2512C23.8979,33.7607 23.7063,33.2925 23.4737,32.8515C23.0834,32.1117 22.5769,31.4363 22.0413,30.7966C21.7974,30.5053 21.5454,30.2209 21.2887,29.9409C20.9664,29.5893 20.6359,29.2455 20.3035,28.9035C19.7295,28.3183 19.1511,27.7376 18.5771,27.1525C17.9655,26.5234 17.3642,25.8854 16.802,25.2116C16.6191,25.2814 16.4376,25.3542 16.2561,25.4276L16.1341,25.4783C16.148,25.5727 16.1649,25.6665 16.1831,25.7602C16.3039,26.3398 16.4853,26.9058 16.6985,27.4576C16.7758,27.6579 16.8579,27.8565 16.947,28.0519C16.9993,28.1667 17.0534,28.2813 17.1156,28.3913C17.1399,28.4324 17.2394,28.5603 17.2605,28.5897C17.3312,28.6878 17.3517,28.7178 17.421,28.8168C17.9077,29.5233 18.3465,30.2603 18.8,30.9882C18.9232,31.1831 19.0473,31.3773 19.1748,31.5694C19.5489,32.1253 19.9339,32.6744 20.3216,33.2209C20.723,33.7867 21.1316,34.3489 21.5762,34.8819C21.96,35.342 22.374,35.7744 22.7938,36.2015C23.4755,36.8885 24.1652,37.5676 24.8505,38.2509C24.9157,38.32 24.9337,38.3359 24.9925,38.4107C25.1248,38.5791 25.2261,38.7713 25.29,38.9756C25.4736,39.5617 25.334,40.2169 24.9274,40.6772C24.8093,40.8109 24.671,40.9265 24.5185,41.019C24.366,41.1115 24.1996,41.1807 24.0264,41.2236C23.9341,41.2465 23.9101,41.2481 23.8162,41.2625C23.7097,41.2723 23.71,41.2723 23.6027,41.2757Z" style="fill:white;fill-rule:nonzero;"/>
            <path d="M182.829,187.215C182.693,187.213 182.558,187.206 182.422,187.192C182.009,187.147 181.603,187.046 181.208,186.922C180.691,186.759 180.19,186.553 179.693,186.339C179.329,186.182 178.961,186.036 178.601,185.873C177.62,185.429 176.674,184.91 175.767,184.331C174.83,183.731 173.934,183.068 173.074,182.363C171.327,180.931 169.729,179.332 168.133,177.738L168.064,177.664C167.998,177.586 167.936,177.508 167.882,177.422C167.775,177.25 167.698,177.06 167.654,176.862C167.619,176.698 167.606,176.528 167.618,176.36C167.63,176.191 167.666,176.025 167.725,175.867C167.915,175.357 168.34,174.955 168.86,174.793C169.086,174.723 169.325,174.699 169.56,174.723C169.762,174.743 169.959,174.798 170.142,174.884C170.223,174.923 170.242,174.936 170.32,174.981L170.345,174.998C170.343,174.954 170.343,174.954 170.342,174.91L170.343,174.809C170.35,174.719 170.349,174.697 170.363,174.608C170.394,174.408 170.459,174.213 170.556,174.036C170.636,173.887 170.738,173.751 170.857,173.631C171.24,173.245 171.794,173.054 172.334,173.122C172.535,173.148 172.731,173.208 172.912,173.299C173.123,173.405 173.311,173.554 173.464,173.735C173.53,173.812 173.585,173.895 173.639,173.982L173.645,173.993C173.926,174.059 174.21,174.108 174.492,174.168C174.609,174.194 174.725,174.222 174.841,174.253C175.153,174.341 175.458,174.454 175.733,174.63C175.816,174.684 175.886,174.735 175.963,174.798C176.053,174.872 176.134,174.956 176.223,175.031C176.287,175.083 176.351,175.132 176.418,175.179C176.908,175.514 177.471,175.723 178.033,175.903C178.597,176.084 179.168,176.238 179.734,176.41C179.905,176.464 180.075,176.518 180.245,176.574C180.541,176.676 180.833,176.783 181.121,176.903C181.657,177.127 182.175,177.402 182.65,177.737C183.345,178.228 183.94,178.852 184.389,179.575C184.765,180.18 185.031,180.841 185.227,181.525C185.348,181.946 185.447,182.374 185.515,182.807C185.54,182.972 185.561,183.138 185.577,183.304C185.668,184.213 185.584,185.188 185.097,185.983C185.028,186.096 184.951,186.205 184.866,186.308C184.749,186.451 184.618,186.584 184.471,186.698C184.315,186.82 184.142,186.921 183.96,187C183.67,187.125 183.364,187.184 183.051,187.209C182.94,187.214 182.94,187.214 182.829,187.215ZM182.031,183.463C181.98,183.061 181.878,182.662 181.754,182.277C181.639,181.918 181.483,181.569 181.259,181.264C181.178,181.154 181.09,181.051 180.994,180.954C180.549,180.508 179.962,180.236 179.378,180.023C179.246,179.975 179.112,179.929 178.977,179.885C178.785,179.823 178.592,179.764 178.399,179.707C178.028,179.598 177.656,179.492 177.286,179.38C177.117,179.328 176.948,179.275 176.78,179.22C176.205,179.026 175.64,178.807 175.105,178.52C174.668,178.285 174.259,178.007 173.879,177.687L173.838,177.652C173.702,177.618 173.564,177.592 173.426,177.565C173.253,177.53 173.08,177.495 172.907,177.457L172.892,177.454C174.287,178.786 175.742,180.065 177.351,181.135C177.941,181.528 178.552,181.892 179.181,182.219C179.53,182.4 179.884,182.567 180.243,182.727C180.473,182.827 180.707,182.921 180.938,183.019C181.175,183.119 181.411,183.223 181.649,183.319C181.776,183.369 181.903,183.417 182.031,183.463ZM173.883,174.848L173.883,174.839L173.881,174.807C173.882,174.821 173.883,174.835 173.883,174.848Z" style="fill:white;fill-rule:nonzero;"/>
            <path d="M189.932,81.992C189.728,81.9904 189.525,81.9754 189.324,81.937C188.86,81.8489 188.426,81.6551 188.029,81.4032C187.695,81.1912 187.395,80.9348 187.078,80.6997C187.04,80.6726 187.002,80.6463 186.963,80.6209C186.399,80.2716 185.814,79.957 185.223,79.6565C184.644,79.3618 184.057,79.0818 183.46,78.8235C183.07,78.6545 182.676,78.4935 182.274,78.355C182.126,78.3039 181.976,78.2558 181.825,78.2149C181.732,78.1899 181.638,78.1657 181.543,78.1536C181.508,78.1492 181.472,78.1506 181.437,78.1489L181.352,78.1408C181.267,78.1285 181.183,78.1144 181.1,78.0919C180.88,78.0322 180.671,77.9295 180.49,77.7911C180.354,77.6873 180.233,77.5638 180.132,77.4254C179.81,76.9831 179.71,76.4031 179.865,75.8785C179.914,75.7144 179.987,75.5575 180.08,75.4141C180.205,75.223 180.367,75.0566 180.555,74.9266C180.743,74.7966 180.956,74.7036 181.179,74.654C181.546,74.5722 181.934,74.6188 182.299,74.6901C182.604,74.7496 182.903,74.8344 183.198,74.9297C183.515,75.0321 183.828,75.1469 184.137,75.2702C185.135,75.6679 186.109,76.1259 187.062,76.6194C187.49,76.8408 187.914,77.0698 188.331,77.3115C188.545,77.4354 188.759,77.5607 188.964,77.6979C189.254,77.8914 189.52,78.1177 189.8,78.3249L189.843,78.3557C189.951,78.151 190.003,77.9143 190.038,77.6871C190.101,77.2758 190.1,76.8549 190.063,76.4412C190.03,76.0696 189.967,75.7003 189.875,75.3388C189.796,75.0286 189.696,74.7227 189.565,74.4302C189.49,74.2613 189.405,74.0959 189.302,73.9419C189.243,73.8534 189.177,73.7629 189.096,73.693C189.08,73.6792 189.063,73.6724 189.043,73.6634C189.015,73.6503 188.986,73.6379 188.957,73.6262C188.854,73.5839 188.747,73.5491 188.639,73.519C188.28,73.4189 187.908,73.3682 187.538,73.3363C186.84,73.2764 186.137,73.2872 185.438,73.3169C184.501,73.3568 183.566,73.4376 182.63,73.4978C182.363,73.5134 182.363,73.5134 182.097,73.5267C181.925,73.5335 181.753,73.5405 181.581,73.5436C181.414,73.5467 181.247,73.552 181.082,73.5287C180.656,73.4687 180.26,73.2511 179.981,72.9238C179.852,72.7718 179.748,72.5978 179.676,72.4114C179.501,71.9557 179.523,71.4371 179.738,70.9983C179.813,70.8445 179.91,70.7017 180.026,70.5757C180.142,70.4498 180.276,70.3408 180.423,70.2533C180.595,70.1512 180.784,70.0784 180.98,70.0391C181.064,70.0221 181.149,70.0135 181.234,70.0069C181.395,70.0022 181.556,70.0021 181.717,69.9973C182.601,69.9624 183.482,69.8864 184.364,69.8284C184.568,69.816 184.772,69.8042 184.976,69.7931C185.823,69.7532 186.673,69.731 187.52,69.7839C188.056,69.8174 188.592,69.8797 189.118,69.9916C189.519,70.0771 189.915,70.1916 190.295,70.3465C190.596,70.4694 190.886,70.616 191.151,70.8066C191.666,71.1774 192.076,71.6771 192.401,72.218C192.734,72.7714 192.984,73.3733 193.174,73.9896C193.418,74.7808 193.565,75.6038 193.613,76.4302C193.663,77.2942 193.606,78.1758 193.369,79.0111C193.133,79.8447 192.702,80.6352 192.031,81.1969C191.908,81.2998 191.778,81.3944 191.642,81.4794C191.437,81.6078 191.218,81.7145 190.991,81.7972C190.717,81.8969 190.435,81.9549 190.145,81.9827C190.039,81.9892 190.039,81.9892 189.932,81.992Z" style="fill:white;fill-rule:nonzero;"/>
            <path d="M163.499,30.7703C163.392,30.7694 163.286,30.7655 163.18,30.7484C162.933,30.7088 162.695,30.6166 162.487,30.4793C162.338,30.3813 162.204,30.2607 162.091,30.1228C161.725,29.6767 161.599,29.0653 161.758,28.5108C161.807,28.3394 161.883,28.1756 161.981,28.0266C162.217,27.6675 162.583,27.4025 162.998,27.2904C163.101,27.2625 163.207,27.244 163.314,27.2351C163.335,27.2334 163.399,27.2347 163.436,27.2282C163.481,27.2192 163.525,27.2067 163.569,27.1935C163.962,27.0673 164.334,26.8761 164.7,26.6884C165.155,26.4549 165.604,26.2103 166.059,25.9758C166.238,25.8848 166.238,25.885 166.418,25.7957C166.883,25.5724 167.352,25.3666 167.848,25.2244C168.299,25.1061 168.752,24.9959 169.202,24.8771C169.681,24.7487 170.159,24.6157 170.633,24.4682C170.961,24.3659 171.287,24.2574 171.61,24.1397C171.859,24.0486 172.107,23.9512 172.352,23.8486C172.557,23.7632 172.758,23.6713 172.958,23.5744C173.924,23.104 174.864,22.4815 175.484,21.5846C175.58,21.4451 175.668,21.2997 175.747,21.1494C175.877,20.9017 175.981,20.6408 176.059,20.3725C176.168,20.0045 176.229,19.6236 176.255,19.2412C176.273,18.9618 176.269,18.6828 176.262,18.4031C176.256,18.148 176.249,17.893 176.239,17.6381C176.218,17.1457 176.186,16.6535 176.132,16.1636C176.086,15.7464 176.025,15.33 175.922,14.9227L175.905,14.8567L175.889,14.8015C175.764,14.7757 175.64,14.7521 175.515,14.7293C174.661,14.5842 173.791,14.5204 172.929,14.6296C172.468,14.6881 172.013,14.7958 171.578,14.9591C171.344,15.0465 171.117,15.1496 170.897,15.2673C169.582,15.9723 168.61,17.1685 167.854,18.4298C167.729,18.6389 167.609,18.8512 167.493,19.0659C167.332,19.3651 167.18,19.669 167.035,19.9762C166.844,20.3799 166.666,20.7892 166.497,21.2023C166.283,21.7249 166.085,22.2537 165.893,22.785L165.854,22.8845C165.814,22.9706 165.806,22.9932 165.758,23.0754C165.65,23.2604 165.509,23.4254 165.342,23.5601C165.176,23.6949 164.985,23.799 164.782,23.8661C164.613,23.9219 164.435,23.952 164.257,23.9549C164.078,23.9578 163.9,23.9336 163.729,23.8834C163.139,23.7103 162.672,23.2301 162.515,22.6363C162.452,22.3947 162.44,22.1402 162.481,21.8937C162.499,21.7872 162.528,21.686 162.562,21.5836C162.631,21.3912 162.701,21.1989 162.772,21.0069C162.953,20.5269 163.138,20.049 163.337,19.5762C163.495,19.2022 163.659,18.8311 163.832,18.464C164.776,16.4656 166,14.5358 167.737,13.1345C168.007,12.9172 168.287,12.7137 168.578,12.5262C168.958,12.2813 169.356,12.0638 169.768,11.8771C170.382,11.5983 171.028,11.3888 171.688,11.2497C172.614,11.0546 173.565,10.9982 174.509,11.0507C175.242,11.0915 175.972,11.1972 176.69,11.3507C176.815,11.3776 176.944,11.4067 177.069,11.4365C177.212,11.4704 177.353,11.5029 177.491,11.5531C177.599,11.5927 177.705,11.6407 177.806,11.696C177.931,11.7638 178.05,11.8432 178.16,11.9317C178.843,12.4764 179.178,13.3264 179.38,14.1509C179.411,14.275 179.438,14.3999 179.464,14.5251C179.506,14.733 179.541,14.9421 179.572,15.1519C179.61,15.401 179.641,15.6511 179.666,15.9017C179.737,16.6101 179.777,17.3212 179.796,18.0328C179.805,18.3591 179.816,18.6858 179.809,19.0123C179.8,19.4204 179.768,19.8281 179.707,20.2318C179.548,21.3027 179.186,22.34 178.617,23.2627C178.071,24.1471 177.347,24.9089 176.521,25.5372C175.153,26.579 173.541,27.2558 171.913,27.7777C171.613,27.8741 171.31,27.9653 171.007,28.0528C170.564,28.1806 170.118,28.3006 169.671,28.4154C169.527,28.4524 169.383,28.4892 169.239,28.5257C169.08,28.5661 168.915,28.603 168.755,28.6488C168.682,28.6713 168.61,28.6971 168.539,28.7244C168.188,28.8643 167.85,29.036 167.514,29.2103C167.114,29.4182 166.717,29.6324 166.317,29.8397C166.136,29.9315 166.136,29.9313 165.955,30.0216C165.39,30.2946 164.811,30.5562 164.195,30.6883C164.038,30.7219 163.881,30.7437 163.722,30.76C163.61,30.7671 163.611,30.7678 163.499,30.7703Z" style="fill:white;fill-rule:nonzero;"/>
            <path d="M64.2274,195.733C63.7694,195.727 63.3133,195.697 62.8571,195.657C62.5156,195.627 62.1746,195.587 61.8325,195.564C61.755,195.56 61.6766,195.566 61.5991,195.568C61.1895,195.588 60.7805,195.619 60.3708,195.638C60.2207,195.644 60.0707,195.649 59.9206,195.653C59.367,195.658 58.8096,195.64 58.2672,195.52C57.9353,195.446 57.6103,195.335 57.3124,195.17C57.1327,195.07 56.9707,194.953 56.8239,194.81C56.7492,194.737 56.6826,194.653 56.6231,194.568C56.5612,194.479 56.5093,194.385 56.4626,194.287C56.1766,193.688 56.2783,193 56.4035,192.374C56.4327,192.228 56.4648,192.083 56.4985,191.938C56.5549,191.695 56.6163,191.453 56.6809,191.212C56.7594,190.919 56.8433,190.627 56.9328,190.337C56.995,190.136 57.0631,189.937 57.1486,189.744C57.2415,189.559 57.2412,189.559 57.3358,189.376C57.5988,188.876 57.878,188.387 58.174,187.906C59.036,186.507 60.0134,185.184 60.9605,183.842C61.0955,183.65 61.23,183.457 61.3641,183.263C61.7846,182.649 62.1976,182.03 62.58,181.392C62.836,180.964 63.0763,180.529 63.3018,180.085L63.3476,180C63.3981,179.918 63.4499,179.839 63.5111,179.764C63.6531,179.591 63.8279,179.445 64.0239,179.337C64.4752,179.087 65.0249,179.048 65.5072,179.23C65.6567,179.287 65.7985,179.364 65.9275,179.458C66.0823,179.572 66.2183,179.71 66.3287,179.867C66.4576,180.05 66.5512,180.258 66.6032,180.476C66.6552,180.693 66.6653,180.921 66.633,181.142C66.6145,181.269 66.5823,181.393 66.537,181.513C66.4694,181.692 66.373,181.861 66.2843,182.029C66.0739,182.43 65.8509,182.824 65.6185,183.212C64.6401,184.845 63.4979,186.372 62.4058,187.93C62.209,188.213 62.0139,188.498 61.8208,188.784C61.3108,189.55 60.8273,190.331 60.406,191.149L60.3682,191.225C60.2802,191.483 60.2075,191.747 60.1338,192.011L60.1084,192.104C60.5559,192.086 61.0024,192.051 61.4497,192.03C61.574,192.025 61.5736,192.025 61.6978,192.022C61.8125,192.021 61.9257,192.023 62.0402,192.028C62.2514,192.043 62.4621,192.063 62.6728,192.083C62.923,192.107 63.1732,192.129 63.4236,192.15C63.5887,192.163 63.7537,192.174 63.919,192.182C64.0282,192.186 64.1372,192.19 64.2464,192.191L64.2923,192.191C65.1049,191.24 65.5743,190.043 65.8523,188.837C66.038,188.031 66.1436,187.208 66.2078,186.384C66.2975,185.234 66.3041,184.08 66.3051,182.928L66.3078,182.832C66.3148,182.747 66.3148,182.726 66.3287,182.642C66.3599,182.452 66.4221,182.268 66.5121,182.099C66.6172,181.901 66.7599,181.724 66.9307,181.579C67.0527,181.475 67.1887,181.389 67.3338,181.322C67.8926,181.064 68.5619,181.119 69.071,181.465C69.2297,181.573 69.3707,181.706 69.4866,181.859C69.6414,182.063 69.7509,182.3 69.8057,182.55C69.8264,182.645 69.8365,182.739 69.8443,182.835C69.8513,183.102 69.8462,183.37 69.8452,183.638C69.8387,184.515 69.8229,185.393 69.7665,186.269C69.7198,186.995 69.6471,187.719 69.5337,188.437C69.4492,188.973 69.3422,189.505 69.2064,190.03C68.8173,191.533 68.1817,192.981 67.218,194.207C67.0572,194.411 66.888,194.609 66.7109,194.8C66.6237,194.894 66.5354,194.987 66.4435,195.077C66.3146,195.201 66.1637,195.309 66.007,195.395C65.5581,195.642 65.0435,195.709 64.5395,195.729C64.3833,195.732 64.3836,195.732 64.2274,195.733Z" style="fill:white;fill-rule:nonzero;"/>
            <path d="M79.0375,171.905C78.9229,171.896 78.8937,171.897 78.7805,171.876C78.6533,171.853 78.5287,171.815 78.4096,171.765C77.9294,171.561 77.5568,171.145 77.4064,170.645C77.3692,170.521 77.3455,170.393 77.3361,170.264C77.3329,170.221 77.3329,170.178 77.3313,170.135L77.3313,146.327C77.3361,146.196 77.3452,146.07 77.3737,145.942C77.4489,145.604 77.6241,145.292 77.8731,145.052C77.9973,144.932 78.139,144.831 78.2925,144.752C78.4459,144.673 78.6109,144.617 78.7805,144.585C79.3376,144.482 79.9234,144.659 80.3313,145.052C80.4866,145.202 80.614,145.38 80.7056,145.575C80.7788,145.731 80.829,145.898 80.8541,146.069C80.8709,146.183 80.8688,146.212 80.873,146.327L80.873,170.135C80.8714,170.178 80.8714,170.221 80.8683,170.264C80.8588,170.393 80.8352,170.521 80.7979,170.645C80.6476,171.145 80.275,171.561 79.7948,171.765C79.6757,171.815 79.5511,171.853 79.4238,171.876C79.3106,171.897 79.2814,171.896 79.1669,171.905C79.1237,171.905 79.0806,171.905 79.0375,171.905Z" style="fill:white;fill-rule:nonzero;"/>
            <path d="M108.287,175.622C108.09,175.618 107.898,175.59 107.712,175.526C107.223,175.359 106.825,174.976 106.637,174.495C106.566,174.312 106.53,174.121 106.518,173.925C106.464,171.323 106.516,168.719 106.516,166.117C106.522,165.846 106.577,165.583 106.696,165.339C106.793,165.142 106.926,164.963 107.088,164.814C107.249,164.665 107.439,164.547 107.643,164.467C107.802,164.405 107.97,164.366 108.141,164.352C108.63,164.311 109.125,164.481 109.486,164.814C109.612,164.93 109.721,165.063 109.808,165.21C109.921,165.399 109.997,165.608 110.034,165.825C110.046,165.898 110.052,165.97 110.056,166.043C110.11,168.646 110.058,171.249 110.058,173.852C110.054,174.048 110.026,174.24 109.962,174.427C109.802,174.891 109.448,175.276 108.998,175.473C108.818,175.552 108.629,175.596 108.433,175.616C108.36,175.621 108.36,175.621 108.287,175.622Z" style="fill:white;fill-rule:nonzero;"/>
            <path d="M139.871,160.317C139.669,160.312 139.472,160.283 139.281,160.215C138.78,160.039 138.378,159.636 138.201,159.136C138.142,158.969 138.113,158.797 138.102,158.621C138.044,155.927 138.1,153.231 138.1,150.536C138.105,150.283 138.153,150.038 138.257,149.807C138.35,149.601 138.483,149.414 138.646,149.258C138.808,149.101 139.001,148.977 139.211,148.893C139.373,148.827 139.546,148.786 139.721,148.772C140.198,148.731 140.681,148.89 141.041,149.207C141.173,149.323 141.287,149.458 141.379,149.608C141.497,149.8 141.578,150.014 141.616,150.237C141.629,150.311 141.635,150.386 141.64,150.461C141.697,153.155 141.642,155.851 141.642,158.546C141.637,158.748 141.608,158.945 141.541,159.136C141.381,159.587 141.037,159.962 140.6,160.159C140.439,160.232 140.27,160.276 140.096,160.302C140.021,160.31 139.947,160.315 139.871,160.317Z" style="fill:white;fill-rule:nonzero;"/>
            <path d="M123.537,146.082C123.324,146.077 123.116,146.044 122.915,145.969C122.44,145.79 122.058,145.408 121.879,144.933C121.814,144.758 121.781,144.576 121.768,144.39C121.701,141.384 121.766,138.376 121.766,135.368C121.768,135.288 121.772,135.21 121.782,135.13C121.811,134.92 121.877,134.716 121.978,134.529C122.205,134.106 122.604,133.789 123.066,133.661C123.219,133.619 123.378,133.597 123.537,133.597C123.723,133.597 123.908,133.627 124.085,133.684C124.286,133.75 124.476,133.852 124.641,133.984C124.828,134.132 124.984,134.319 125.097,134.529C125.185,134.692 125.247,134.87 125.28,135.052C125.294,135.131 125.301,135.209 125.306,135.289C125.374,138.295 125.308,141.303 125.308,144.311C125.304,144.497 125.279,144.68 125.221,144.858C125.065,145.34 124.7,145.74 124.233,145.939C124.061,146.013 123.882,146.053 123.696,146.074C123.616,146.08 123.617,146.08 123.537,146.082Z" style="fill:white;fill-rule:nonzero;"/>
            <path d="M51.7017,137.907C51.5083,137.901 51.3204,137.876 51.1363,137.814C50.6476,137.649 50.2475,137.27 50.0567,136.791C49.9975,136.643 49.9586,136.486 49.9413,136.327C49.9321,136.243 49.9332,136.221 49.9309,136.136L49.9309,123.026C49.9335,122.929 49.9386,122.835 49.9542,122.739C49.9905,122.518 50.0689,122.305 50.1844,122.113C50.4333,121.699 50.8496,121.4 51.3211,121.296C51.4772,121.262 51.638,121.249 51.7976,121.258C51.9892,121.268 52.1789,121.31 52.3572,121.381C52.5652,121.464 52.757,121.586 52.9195,121.74C53.0821,121.894 53.2149,122.079 53.3089,122.282C53.3895,122.457 53.4414,122.644 53.4622,122.834C53.4714,122.919 53.4703,122.941 53.4726,123.026L53.4726,136.136C53.4673,136.329 53.4419,136.517 53.3799,136.701C53.2257,137.159 52.8834,137.54 52.4453,137.743C52.269,137.825 52.085,137.87 51.8932,137.896C51.7973,137.904 51.7976,137.904 51.7017,137.907Z" style="fill:white;fill-rule:nonzero;"/>
        </g>
    </g>
</svg>
