<?xml version="1.0" standalone="no"?>
<!DOCTYPE svg PUBLIC "-//W3C//DTD SVG 1.1//EN" "http://www.w3.org/Graphics/SVG/1.1/DTD/svg11.dtd">
<svg width="160px" height="160px" version="1.1" xmlns="http://www.w3.org/2000/svg" xmlns:xlink="http://www.w3.org/1999/xlink" xml:space="preserve" style="fill-rule:evenodd;clip-rule:evenodd;stroke-linejoin:round;stroke-miterlimit:1.41421;">
    <g>
        <g id="Layer1">
            <g>
                <g>
                    <g>
                        <path d="M97.6677,8.43158L97.6677,14.2804L105.564,14.2804L106.603,15.3527L106.603,19.1544L105.564,20.2267L97.6677,20.2267L97.6677,29.8772L106.961,29.8772L108.033,30.9495L108.033,34.7513L106.961,35.8235L92.7937,35.8235L91.7214,34.7513L91.7214,3.55757L92.7937,2.48528L106.961,2.48528L108.033,3.55757L108.033,7.3593L106.961,8.43158L97.6677,8.43158Z" style="fill:rgb(236,0,53);fill-rule:nonzero;"/>
                    </g>
                    <g>
                        <path d="M116.514,8.43158L116.514,14.2804L124.41,14.2804L125.45,15.3527L125.45,19.1544L124.41,20.2267L116.514,20.2267L116.514,29.8772L125.807,29.8772L126.879,30.9495L126.879,34.7513L125.807,35.8235L111.64,35.8235L110.568,34.7513L110.568,3.55757L111.64,2.48528L125.807,2.48528L126.879,3.55757L126.879,7.3593L125.807,8.43158L116.514,8.43158Z" style="fill:rgb(236,0,53);fill-rule:nonzero;"/>
                    </g>
                    <g>
                        <path d="M146.928,2.61526L148,3.68754L148,34.7513L146.928,35.8235L143.158,35.8235L142.509,35.2062L142.086,34.7513L142.086,34.2314L135.49,19.4793L135.49,34.7513L134.45,35.8235L130.649,35.8235L129.576,34.7513L129.576,3.68754L130.649,2.61526L134.45,2.61526L135.49,3.68754L135.49,4.92229L142.086,19.6743L142.086,3.68754L143.158,2.61526L146.928,2.61526Z" style="fill:rgb(236,0,53);fill-rule:nonzero;"/>
                    </g>
                </g>
                <g>
                    <path d="M24.2261,15.8347L32.0631,35.2943L31.0337,36.7886L26.8163,36.7886L25.7869,36.0913L18.282,17.329L18.282,35.6928L17.2194,36.7886L13.3341,36.7886L12.2382,35.6928L12.2382,3.9132L13.3341,2.81736L17.2194,2.81736L18.282,3.9132L18.282,14.4068L21.802,3.58113L22.8314,2.81736L27.1152,2.81736L28.1446,4.24528L24.2261,15.8347Z" style="fill:rgb(236,0,53);fill-rule:nonzero;"/>
                </g>
                <g>
                    <path d="M39.8337,2.48528L40.9295,3.58113L40.9295,35.6928L39.8337,36.7886L35.9152,36.7886L34.8193,35.6928L34.8193,3.58113L35.9152,2.48528L39.8337,2.48528Z" style="fill:rgb(236,0,53);fill-rule:nonzero;"/>
                </g>
                <g>
                    <path d="M49.4638,8.7947L49.4638,14.7721L57.5332,14.7721L58.5959,15.8679L58.5959,19.7532L57.5332,20.849L49.4638,20.849L49.4638,30.7116L58.9612,30.7116L60.057,31.8075L60.057,35.6928L58.9612,36.7886L44.4827,36.7886L43.3869,35.6928L43.3869,3.81358L44.4827,2.71773L58.9612,2.71773L60.057,3.81358L60.057,7.69886L58.9612,8.7947L49.4638,8.7947Z" style="fill:rgb(236,0,53);fill-rule:nonzero;"/>
                </g>
                <g>
                    <path d="M79.6162,19.2883C79.107,18.6241 78.5204,18.0485 77.8562,17.5615L77.7234,17.4951C76.7714,16.9637 75.1554,16.4435 72.8751,15.9343L72.6427,15.8679C71.735,15.6687 71.093,15.3476 70.7166,14.9049C70.4952,14.4843 70.4067,13.5987 70.451,12.2483C70.4952,10.92 70.6281,10.0455 70.8494,9.62489C71.3808,9.09357 71.9564,8.82791 72.5762,8.82791C73.2847,8.82791 73.9156,9.15999 74.4691,9.82414C74.5355,10.0012 74.5908,10.2669 74.6351,10.6211L76.0962,11.9162L79.5166,11.9162L80.9777,10.2226L80.9777,10.1894C80.9777,10.123 80.9667,10.0677 80.9445,10.0234C80.7453,8.51797 80.3136,7.34464 79.6494,6.50339C77.8341,4.201 75.4764,3.04981 72.5762,3.04981C71.2479,3.04981 69.975,3.33761 68.7574,3.9132C67.7169,4.40025 66.7981,5.0644 66.0012,5.90565C65.2042,6.76905 64.6729,7.99772 64.4072,9.59168C64.2301,10.5436 64.1305,11.6063 64.1083,12.7796C64.1083,13.9308 64.1637,14.9824 64.2744,15.9343C64.4957,17.5725 65.5362,18.9341 67.3959,20.0188C68.1928,20.4837 69.8754,21.004 72.4434,21.5796C73.3732,21.7788 74.0374,22.122 74.4359,22.609C74.6572,23.2289 74.7679,24.4797 74.7679,26.3615C74.7458,28.2432 74.624,29.494 74.4026,30.1139C73.8492,30.7116 73.2404,31.0105 72.5762,31.0105C72.1556,31.0105 71.6132,30.8998 70.9491,30.6784C70.3071,30.4349 69.8643,30.2025 69.6208,29.9811C69.3994,29.4055 69.2998,28.3318 69.3219,26.76L67.8276,25.2324L64.4404,25.2324L62.9793,26.6935C62.9571,27.8226 63.0125,28.852 63.1453,29.7818C63.3446,31.3758 63.8095,32.6045 64.54,33.4679C65.337,34.3977 66.2779,35.1393 67.3627,35.6928C68.8017,36.4233 70.5395,36.7886 72.5762,36.7886C74.0152,36.7886 75.3767,36.4676 76.6608,35.8256C77.7234,35.2721 78.6643,34.5305 79.4834,33.6007C80.1918,32.7594 80.6567,31.575 80.8781,30.0475C81.0331,29.1398 81.1106,28.1325 81.1106,27.0256C81.1327,25.8966 81.0884,24.8782 80.9777,23.9705C80.6457,21.5574 80.1918,19.9967 79.6162,19.2883Z" style="fill:rgb(236,0,53);fill-rule:nonzero;"/>
                </g>
                <g>
                    <path d="M30.4481,85.9923C29.2636,87.1012 27.9279,87.6557 26.441,87.6557C24.954,87.6557 23.6183,87.1138 22.4338,86.0301C21.9801,84.6188 21.7911,82.4262 21.8667,79.4523C21.9171,76.4532 22.1818,74.2858 22.6606,72.9501C23.7947,71.9924 25.0548,71.5136 26.441,71.5136C28.0035,71.5136 29.4022,72.131 30.6372,73.3659C31.0404,74.7017 31.2294,76.8061 31.2042,79.6791C31.1538,82.5774 30.9018,84.6818 30.4481,85.9923ZM24.5886,52.3093C25.5463,52.3093 26.4158,52.6244 27.197,53.2544C27.8523,55.9763 27.8145,58.6477 27.0836,61.2688C26.3276,61.8484 25.4959,62.1383 24.5886,62.1383C23.7065,62.1383 22.8874,61.861 22.1314,61.3066C21.4509,58.4839 21.5139,55.7243 22.3204,53.0276C23.0008,52.5488 23.7569,52.3093 24.5886,52.3093ZM35.6272,65.276C36.4337,63.3606 36.8621,60.7269 36.9126,57.375C36.963,52.3597 36.1313,48.9574 34.4175,47.1681C31.7209,44.3202 28.4446,42.8963 24.5886,42.8963C23.026,42.8963 21.4887,43.1735 19.9766,43.7279L19.7875,43.5389L13.7012,43.5389L12,45.2401L12,94.9518L13.7012,96.6529L19.7875,96.6529L20.5436,95.8591C22.4338,96.6655 24.3996,97.0688 26.441,97.0688C30.7254,97.0688 34.4175,95.4558 37.5174,92.2299C39.4832,90.1633 40.5165,86.0175 40.6173,79.7925C40.6929,73.5928 39.7982,69.4596 37.9332,67.393C37.2276,66.6117 36.4589,65.906 35.6272,65.276Z" style="fill:rgb(236,0,53);fill-rule:nonzero;"/>
                    <path d="M65.7945,76.7304L61.069,59.5676L56.3814,76.7304L65.7945,76.7304ZM65.8323,44.1816L79.7062,94.8762L78.005,97.0688L72.7125,97.0688L71.0114,95.7834L68.4785,86.4838L53.6973,86.4838L51.1267,95.7834L49.4633,97.0688L44.133,97.0688L42.4697,94.8762L56.3436,44.1816L58.0069,42.8963L64.1311,42.8963L65.8323,44.1816Z" style="fill:rgb(236,0,53);fill-rule:nonzero;"/>
                    <path d="M110.289,43.0853L112.028,44.8242L112.028,95.3298L110.289,97.0688L104.127,97.0688L102.388,95.3298L102.388,94.4603L91.6899,70.4551L91.6899,95.3298L89.951,97.0688L83.789,97.0688L82.05,95.3298L82.05,44.8242L83.789,43.0853L89.951,43.0853L91.6899,44.8242L91.6899,46.8278L102.388,70.8331L102.388,44.8242L104.127,43.0853L110.289,43.0853Z" style="fill:rgb(236,0,53);fill-rule:nonzero;"/>
                    <path d="M137.357,70.1526L137.357,68.3759C137.357,62.3273 136.991,58.3957 136.26,56.5811C134.521,53.8593 132.669,52.4984 130.703,52.4984C130.35,52.4984 129.657,52.4606 128.624,52.385C127.918,52.3345 127.339,52.3093 126.885,52.3093L126.469,52.3093L126.469,86.8996C126.797,86.95 128.221,86.9752 130.741,86.9752C132.757,86.9752 134.509,85.8915 135.996,83.7241C136.853,81.7835 137.306,77.2597 137.357,70.1526ZM144.502,51.5533C146.19,54.2751 147.034,60.1095 147.034,69.0563L147.034,70.2282C147.009,74.1598 146.808,77.6503 146.429,80.6998C145.925,84.6062 145.144,87.3659 144.086,88.9788C140.482,94.3721 136.046,97.0688 130.779,97.0688L130.703,97.0688C127.553,97.0436 125.701,96.905 125.146,96.6529L124.73,97.0688L118.53,97.0688L116.791,95.3298L116.791,44.5596L118.53,42.8206L124.73,42.8206L124.995,43.0853C125.524,42.9089 127.427,42.8206 130.703,42.8206C133.349,42.8206 135.882,43.5893 138.302,45.1267C140.721,46.6388 142.788,48.781 144.502,51.5533Z" style="fill:rgb(236,0,53);fill-rule:nonzero;"/>
                    <g>
                        <path d="M43.5849,102.737L45.3238,104.514L45.3238,110.752L43.5849,112.528L21.81,112.528L21.81,122.773L36.1376,122.773L37.9143,124.512L37.9143,130.788L36.1376,132.527L21.81,132.527L21.81,155.776L20.0711,157.515L13.7957,157.515L12.0567,155.776L12.0567,104.514L13.7957,102.737L43.5849,102.737Z" style="fill:rgb(236,0,53);fill-rule:nonzero;"/>
                    </g>
                    <g>
                        <path d="M63.9988,147.799C65.8638,147.799 67.628,146.564 69.2913,144.094C70.1734,142.154 70.6396,137.617 70.69,130.485L70.69,128.708C70.69,122.635 70.3246,118.69 69.5937,116.876C67.8548,114.129 65.9898,112.755 63.9988,112.755C62.3102,112.755 60.6847,113.801 59.1221,115.893C58.1645,117.909 57.6478,122.609 57.5722,129.994L57.5722,132.224C57.5722,138.323 57.9502,142.28 58.7063,144.094C60.3949,146.564 62.159,147.799 63.9988,147.799ZM50.5785,149.387C49.4696,147.749 48.701,144.888 48.2725,140.806C47.9953,138.008 47.8567,134.896 47.8567,131.468L47.8567,129.843C47.9071,125.735 48.1465,122.08 48.575,118.879C49.1294,114.771 50.0115,111.898 51.2212,110.26C54.7495,105.447 59.0087,103.04 63.9988,103.04C66.6703,103.04 69.2157,103.808 71.6351,105.346C74.0546,106.883 76.1338,109.051 77.8727,111.848C79.5613,114.545 80.4056,120.404 80.4056,129.427L80.4056,130.599C80.3804,134.53 80.1787,138.033 79.8007,141.108C79.2967,145.014 78.5154,147.774 77.4569,149.387C73.8277,154.805 69.3417,157.515 63.9988,157.515C58.6559,157.515 54.1825,154.805 50.5785,149.387Z" style="fill:rgb(236,0,53);fill-rule:nonzero;"/>
                    </g>
                    <g>
                        <path d="M110.119,103.04L111.858,104.779L111.858,111.016L110.119,112.755L101.916,112.755L101.916,155.776L100.177,157.515L93.9392,157.515L92.2003,155.776L92.2003,112.755L83.9969,112.755L82.2579,111.016L82.2579,104.779L83.9969,103.04L110.119,103.04Z" style="fill:rgb(236,0,53);fill-rule:nonzero;"/>
                    </g>
                    <g>
                        <path d="M131.403,147.799C133.268,147.799 135.032,146.564 136.695,144.094C137.577,142.154 138.043,137.617 138.094,130.485L138.094,128.708C138.094,122.635 137.728,118.69 136.997,116.876C135.259,114.129 133.394,112.755 131.403,112.755C129.714,112.755 128.088,113.801 126.526,115.893C125.568,117.909 125.052,122.609 124.976,129.994L124.976,132.224C124.976,138.323 125.354,142.28 126.11,144.094C127.799,146.564 129.563,147.799 131.403,147.799ZM117.982,149.387C116.873,147.749 116.105,144.888 115.676,140.806C115.399,138.008 115.26,134.896 115.26,131.468L115.26,129.843C115.311,125.735 115.55,122.08 115.979,118.879C116.533,114.771 117.415,111.898 118.625,110.26C122.153,105.447 126.413,103.04 131.403,103.04C134.074,103.04 136.619,103.808 139.039,105.346C141.458,106.883 143.538,109.051 145.276,111.848C146.965,114.545 147.809,120.404 147.809,129.427L147.809,130.599C147.784,134.53 147.582,138.033 147.204,141.108C146.7,145.014 145.919,147.774 144.861,149.387C141.231,154.805 136.745,157.515 131.403,157.515C126.06,157.515 121.586,154.805 117.982,149.387Z" style="fill:rgb(236,0,53);fill-rule:nonzero;"/>
                    </g>
                </g>
            </g>
        </g>
    </g>
</svg>
