<?xml version="1.0" standalone="no"?>
<!DOCTYPE svg PUBLIC "-//W3C//DTD SVG 1.1//EN" "http://www.w3.org/Graphics/SVG/1.1/DTD/svg11.dtd">
<svg width="46px" height="38px" version="1.1" xmlns="http://www.w3.org/2000/svg" xmlns:xlink="http://www.w3.org/1999/xlink" xml:space="preserve" style="fill-rule:evenodd;clip-rule:evenodd;stroke-linejoin:round;stroke-miterlimit:1.41421;">
    <g>
        <g id="Layer1">
            <g>
                <g>
                    <path d="M7.52744,8.89707C8.56897,8.22234 9.08974,7.53191 9.08974,6.8258C9.08974,6.21383 8.70311,5.60971 7.92985,5.01343C7.36174,4.77806 6.15451,4.59761 4.30816,4.47207L4.30816,9.27367C5.94936,9.2109 7.02245,9.08537 7.52744,8.89707ZM10.4627,1.45931C12.4668,2.93431 13.4689,4.72314 13.4689,6.8258C13.4689,7.93989 13.1533,8.99907 12.5221,10.0033C11.875,11.0233 10.9677,11.8941 9.79987,12.616C9.1213,13.0396 7.9693,13.3299 6.34388,13.4868C5.72843,13.5496 5.04985,13.5967 4.30816,13.6281L4.30816,23.3254L3.55068,24.1021L0.781149,24.1021L5.68434e-14,23.3254L5.68434e-14,0.823803L0.781149,0.0470745L3.55068,0.0470745L3.57435,0.0941489C4.77369,0.141223 5.86257,0.227527 6.84097,0.353058C8.5453,0.572739 9.75253,0.941489 10.4627,1.45931Z" style="fill:white;fill-rule:nonzero;"/>
                </g>
                <g>
                    <path d="M24.9968,15.0403L22.89,7.41423L20.7833,15.0403L24.9968,15.0403ZM24.9968,0.564894L31.2223,23.1371L30.4648,24.1021L28.074,24.1021L27.3402,23.5372L26.1803,19.3947L19.5761,19.3947L18.4399,23.5372L17.6824,24.1021L15.3153,24.1021L14.5578,23.1371L20.7596,0.564894L21.5171,0L24.263,0L24.9968,0.564894Z" style="fill:white;fill-rule:nonzero;"/>
                </g>
                <g>
                    <path d="M44.8096,11.698C44.4466,11.2273 44.0284,10.8193 43.555,10.4741L43.4603,10.427C42.7817,10.0504 41.6297,9.68165 40.0043,9.32074L39.8386,9.27367C39.1916,9.13245 38.734,8.90492 38.4657,8.59109C38.3079,8.29295 38.2448,7.66529 38.2763,6.70811C38.3079,5.76662 38.4026,5.14681 38.5604,4.84867C38.9391,4.47207 39.3494,4.28378 39.7913,4.28378C40.2963,4.28378 40.746,4.51915 41.1405,4.98989C41.1879,5.11542 41.2273,5.30372 41.2589,5.55479L42.3004,6.47274L44.7386,6.47274L45.7801,5.27234L45.7801,5.2488C45.7801,5.20173 45.7722,5.1625 45.7564,5.13112C45.6144,4.0641 45.3067,3.23245 44.8332,2.63617C43.5392,1.00426 41.8586,0.188298 39.7913,0.188298C38.8444,0.188298 37.937,0.392287 37.0691,0.800266C36.3274,1.14548 35.6725,1.61622 35.1044,2.2125C34.5363,2.82447 34.1575,3.69535 33.9682,4.82513C33.8419,5.49987 33.7709,6.25306 33.7551,7.08471C33.7551,7.90066 33.7946,8.64601 33.8735,9.32074C34.0313,10.4819 34.773,11.4469 36.0986,12.2158C36.6667,12.5453 37.866,12.9141 39.6966,13.3221C40.3594,13.4633 40.8328,13.7065 41.1169,14.0517C41.2747,14.4911 41.3536,15.3777 41.3536,16.7114C41.3378,18.0452 41.251,18.9318 41.0932,19.3711C40.6987,19.7948 40.2647,20.0066 39.7913,20.0066C39.4914,20.0066 39.1048,19.9282 38.6314,19.7713C38.1737,19.5987 37.8581,19.4339 37.6845,19.277C37.5267,18.869 37.4557,18.108 37.4715,16.9939L36.4063,15.9112L33.9918,15.9112L32.9503,16.9468C32.9345,17.7471 32.974,18.4767 33.0687,19.1358C33.2107,20.2656 33.5421,21.1364 34.0628,21.7484C34.631,22.4074 35.3016,22.9331 36.0749,23.3254C37.1006,23.8432 38.3394,24.1021 39.7913,24.1021C40.817,24.1021 41.7875,23.8746 42.7028,23.4195C43.4603,23.0273 44.131,22.5016 44.7149,21.8426C45.2199,21.2463 45.5513,20.4068 45.7091,19.3241C45.8195,18.6807 45.8748,17.9668 45.8748,17.1822C45.8906,16.3819 45.859,15.6601 45.7801,15.0168C45.5434,13.3064 45.2199,12.2001 44.8096,11.698Z" style="fill:white;fill-rule:nonzero;"/>
                </g>
                <path d="M13.0437,26.1605L13.3309,26.6365L10.423,37.7144L9.94433,38L8.80749,38L8.32882,37.7144L6.66545,31.3604L5.00208,37.7144L4.52341,38L3.38658,38L2.90791,37.7144L0,26.6365L0.287201,26.1605L1.63944,25.8035L2.13007,26.0891L3.94901,33.0619L5.52862,27.041L5.70812,26.1605L5.77992,26.0891L6.25858,25.8035L7.07232,25.8035L7.55099,26.0891L7.62279,26.1605L7.80229,27.041L9.38189,33.0619L11.2008,26.0891L11.6915,25.8035L13.0437,26.1605Z" style="fill:white;fill-rule:nonzero;"/>
                <path d="M18.0338,35.8344C18.4487,35.8344 18.8436,35.5607 19.2185,35.0134C19.41,34.585 19.5137,33.5775 19.5297,31.991L19.5297,31.7887C19.5297,30.3212 19.4459,29.3772 19.2784,28.9568C18.8874,28.346 18.4726,28.0406 18.0338,28.0406C17.6509,28.0406 17.2839,28.2706 16.9329,28.7307C16.7255,29.1829 16.6098,30.23 16.5858,31.872L16.5858,32.3837C16.5858,33.7322 16.6736,34.6088 16.8491,35.0134C17.2241,35.5607 17.619,35.8344 18.0338,35.8344ZM15.0182,36.1914C14.7709,35.8265 14.5994,35.1879 14.5036,34.2756C14.4398,33.6331 14.4079,32.9112 14.4079,32.11L14.4079,31.8363C14.4239,30.9241 14.4797,30.111 14.5754,29.397C14.6951,28.4848 14.8906,27.8462 15.1618,27.4813C15.9596,26.4104 16.9169,25.8749 18.0338,25.8749C18.6242,25.8749 19.1906,26.0455 19.7331,26.3866C20.2756,26.7277 20.7423,27.2076 21.1332,27.8264C21.5082,28.4213 21.6956,29.6945 21.6956,31.6459L21.6956,32.0029C21.6877,32.8834 21.6438,33.6648 21.564,34.347C21.4523,35.2196 21.2768,35.8344 21.0375,36.1914C20.2317,37.3971 19.2305,38 18.0338,38C16.8292,38 15.824,37.3971 15.0182,36.1914Z" style="fill:white;fill-rule:nonzero;"/>
                <path d="M26.602,35.8344C27.0168,35.8344 27.4117,35.5607 27.7867,35.0134C27.9781,34.585 28.0819,33.5775 28.0978,31.991L28.0978,31.7887C28.0978,30.3212 28.014,29.3772 27.8465,28.9568C27.4556,28.346 27.0408,28.0406 26.602,28.0406C26.219,28.0406 25.8521,28.2706 25.501,28.7307C25.2936,29.1829 25.1779,30.23 25.154,31.872L25.154,32.3837C25.154,33.7322 25.2418,34.6088 25.4173,35.0134C25.7922,35.5607 26.1871,35.8344 26.602,35.8344ZM23.5864,36.1914C23.3391,35.8265 23.1675,35.1879 23.0718,34.2756C23.008,33.6331 22.9761,32.9112 22.9761,32.11L22.9761,31.8363C22.992,30.9241 23.0479,30.111 23.1436,29.397C23.2633,28.4848 23.4587,27.8462 23.73,27.4813C24.5277,26.4104 25.4851,25.8749 26.602,25.8749C27.1923,25.8749 27.7588,26.0455 28.3012,26.3866C28.8437,26.7277 29.3104,27.2076 29.7014,27.8264C30.0763,28.4213 30.2638,29.6945 30.2638,31.6459L30.2638,32.0029C30.2558,32.8834 30.2119,33.6648 30.1322,34.347C30.0205,35.2196 29.845,35.8344 29.6056,36.1914C28.7999,37.3971 27.7986,38 26.602,38C25.3973,38 24.3921,37.3971 23.5864,36.1914Z" style="fill:white;fill-rule:nonzero;"/>
                <path d="M33.5786,30.5393C34.4003,30.4997 34.9388,30.4322 35.1941,30.3371C35.7206,30.0039 35.9839,29.6588 35.9839,29.3018C35.9839,28.9925 35.7844,28.6871 35.3855,28.3856C35.1063,28.2666 34.504,28.1794 33.5786,28.1238L33.5786,30.5393ZM37.1925,31.5389C37.719,32.0069 38.0023,32.586 38.0421,33.2761L38.0421,37.5835L37.6233,38L36.1394,38L35.7206,37.5835L35.7206,33.7283C35.6169,33.1254 35.2579,32.7684 34.6436,32.6574L34.5957,32.6574C34.2846,32.6891 33.9455,32.7129 33.5786,32.7288L33.5786,37.6073L33.1837,38L31.7955,38L31.4006,37.6073L31.4006,26.2795L31.7955,25.8868L33.1837,25.8868L33.1956,25.9106C33.8099,25.9344 34.3604,25.9781 34.847,26.0415C35.7086,26.1526 36.3149,26.339 36.666,26.6008C37.6792,27.3464 38.1857,28.2468 38.1857,29.3018C38.1857,30.1268 37.8547,30.8725 37.1925,31.5389Z" style="fill:white;fill-rule:nonzero;"/>
                <path d="M43.8221,31.9553L43.8221,31.753C43.8221,30.2776 43.7383,29.3256 43.5708,28.8973C43.1798,28.2865 42.761,27.9811 42.3143,27.9811C42.2345,27.9811 42.0749,27.9731 41.8356,27.9573C41.7,27.9493 41.5843,27.9454 41.4886,27.9454L41.3569,27.9454L41.3569,35.7154C41.4287,35.7233 41.7478,35.7273 42.3143,35.7273C42.777,35.7273 43.1759,35.4853 43.5109,35.0015C43.7024,34.5652 43.8061,33.5498 43.8221,31.9553ZM45.4376,27.7669C45.8125,28.3698 46,29.6509 46,31.6102L46,31.9672C45.992,32.8477 45.9481,33.6331 45.8684,34.3232C45.7567,35.2037 45.5812,35.8225 45.3418,36.1795C44.5281,37.3932 43.5269,38 42.3382,38L42.3143,38C41.6042,37.9921 41.1854,37.9603 41.0578,37.9048L40.962,38L39.5619,38L39.167,37.6073L39.167,26.1962L39.5619,25.8035L40.962,25.8035L41.0219,25.863C41.1415,25.8234 41.5723,25.8035 42.3143,25.8035C42.9126,25.8035 43.483,25.9741 44.0255,26.3152C44.576,26.6642 45.0467,27.1481 45.4376,27.7669Z" style="fill:white;fill-rule:nonzero;"/>
            </g>
        </g>
    </g>
</svg>
