<?xml version="1.0" standalone="no"?>
<!DOCTYPE svg PUBLIC "-//W3C//DTD SVG 1.1//EN" "http://www.w3.org/Graphics/SVG/1.1/DTD/svg11.dtd">
<svg width="43px" height="36px" version="1.1" xmlns="http://www.w3.org/2000/svg" xmlns:xlink="http://www.w3.org/1999/xlink" xml:space="preserve" style="fill-rule:evenodd;clip-rule:evenodd;stroke-linejoin:round;stroke-miterlimit:1.41421;">
    <g>
        <g id="Layer1">
            <g>
                <g>
                    <path d="M5.76508,14.3397C5.38596,14.6965 4.96224,14.8749 4.49392,14.8749C4.03674,14.8749 3.6186,14.7021 3.23948,14.3564C3.10567,13.9215 3.04992,13.2358 3.07222,12.2991C3.08337,11.3625 3.167,10.6823 3.32311,10.2586C3.67993,9.95752 4.0702,9.80699 4.49392,9.80699C4.98454,9.80699 5.42499,10.0021 5.81525,10.3924C5.94906,10.8161 6.01039,11.474 5.99924,12.366C5.97694,13.2692 5.89888,13.9271 5.76508,14.3397ZM3.92524,3.80243C4.2263,3.80243 4.49949,3.90278 4.7448,4.10349C4.94551,4.95093 4.93436,5.78165 4.71135,6.59564C4.46604,6.77405 4.204,6.86325 3.92524,6.86325C3.64648,6.86325 3.39001,6.77962 3.15585,6.61236C2.93284,5.73147 2.94957,4.8673 3.20603,4.01986C3.42904,3.87491 3.66878,3.80243 3.92524,3.80243ZM7.38748,7.85007C7.63279,7.25909 7.76102,6.43953 7.77217,5.39138C7.79447,3.81915 7.53801,2.7487 7.00279,2.18003C6.15534,1.29913 5.1295,0.858688 3.92524,0.858688C3.43461,0.858688 2.95514,0.942317 2.48682,1.10957L2.41992,1.04267L0.513175,1.04267L-0.0220504,1.5779L-0.0220504,17.1496L0.513175,17.6848L2.41992,17.6848L2.65408,17.4507C3.24506,17.696 3.85834,17.8186 4.49392,17.8186C5.84313,17.8186 7.00279,17.3113 7.97288,16.2966C8.59731,15.661 8.92068,14.362 8.94298,12.3995C8.96528,10.4593 8.68652,9.16584 8.10669,8.5191C7.88368,8.27379 7.64394,8.05078 7.38748,7.85007Z" style="fill:white;fill-rule:nonzero;"/>
                </g>
                <g>
                    <path d="M16.51,11.3792L15.0214,5.96006L13.5328,11.3792L16.51,11.3792ZM16.51,1.09285L20.9088,17.1329L20.3736,17.8186L18.6843,17.8186L18.1658,17.4172L17.3462,14.4735L12.6797,14.4735L11.8769,17.4172L11.3417,17.8186L9.6691,17.8186L9.13388,17.1329L13.516,1.09285L14.0513,0.69143L15.9915,0.69143L16.51,1.09285Z" style="fill:white;fill-rule:nonzero;"/>
                </g>
                <g>
                    <path d="M30.9778,0.724882L31.5297,1.27683L31.5297,17.2667L30.9778,17.8186L29.0376,17.8186L28.7031,17.5009L28.4856,17.2667L28.4856,16.9991L25.0903,9.40557L25.0903,17.2667L24.5551,17.8186L22.5981,17.8186L22.0462,17.2667L22.0462,1.27683L22.5981,0.724882L24.5551,0.724882L25.0903,1.27683L25.0903,1.91241L28.4856,9.50593L28.4856,1.27683L29.0376,0.724882L30.9778,0.724882Z" style="fill:white;fill-rule:nonzero;"/>
                </g>
                <g>
                    <path d="M39.625,9.32194L39.625,9.0376C39.625,6.9636 39.5079,5.62554 39.2738,5.02341C38.7274,4.16482 38.142,3.73553 37.5176,3.73553C37.4061,3.73553 37.183,3.72437 36.8485,3.70207C36.659,3.69092 36.4973,3.68535 36.3635,3.68535L36.1795,3.68535L36.1795,14.6073C36.2798,14.6184 36.7259,14.624 37.5176,14.624C38.1643,14.624 38.7218,14.2839 39.1901,13.6037C39.4578,12.9905 39.6027,11.5632 39.625,9.32194ZM41.883,3.43446C42.4071,4.2819 42.6691,6.08271 42.6691,8.83689L42.6691,9.33867C42.658,10.5764 42.5966,11.6803 42.4851,12.6504C42.329,13.8881 42.0837,14.7578 41.7492,15.2596C40.6118,16.9656 39.2124,17.8186 37.551,17.8186L37.5176,17.8186C36.5252,17.8075 35.9398,17.7629 35.7613,17.6848L35.6275,17.8186L33.6706,17.8186L33.1187,17.2667L33.1187,1.22666L33.6706,0.674704L35.6275,0.674704L35.7112,0.758333C35.8784,0.70258 36.4806,0.674704 37.5176,0.674704C38.3538,0.674704 39.1511,0.914441 39.9093,1.39391C40.6787,1.88454 41.3366,2.56472 41.883,3.43446Z" style="fill:white;fill-rule:nonzero;"/>
                </g>
                <g>
                    <path d="M7.99056,19.9903L8.48572,20.4855L8.48572,34.8301L7.99056,35.3253L6.24999,35.3253L5.9499,35.0402L5.75483,34.8301L5.75483,34.5901L2.70884,27.7778L2.70884,34.8301L2.22868,35.3253L0.473111,35.3253L-0.0220504,34.8301L-0.0220504,20.4855L0.473111,19.9903L2.22868,19.9903L2.70884,20.4855L2.70884,21.0556L5.75483,27.8679L5.75483,20.4855L6.24999,19.9903L7.99056,19.9903Z" style="fill:white;fill-rule:nonzero;"/>
                </g>
                <g>
                    <path d="M15.9432,29.5484L14.6077,24.6868L13.2723,29.5484L15.9432,29.5484ZM15.9432,20.3204L19.8894,34.7101L19.4093,35.3253L17.8938,35.3253L17.4286,34.9652L16.6934,32.3243L12.507,32.3243L11.7868,34.9652L11.3066,35.3253L9.80615,35.3253L9.326,34.7101L13.2573,20.3204L13.7374,19.9603L15.478,19.9603L15.9432,20.3204Z" style="fill:white;fill-rule:nonzero;"/>
                </g>
                <g>
                    <path d="M27.0318,29.5484L25.6963,24.6868L24.3609,29.5484L27.0318,29.5484ZM27.0318,20.3204L30.9781,34.7101L30.4979,35.3253L28.9824,35.3253L28.5173,34.9652L27.782,32.3243L23.5957,32.3243L22.8754,34.9652L22.3953,35.3253L20.8948,35.3253L20.4146,34.7101L24.3459,20.3204L24.8261,19.9603L26.5666,19.9603L27.0318,20.3204Z" style="fill:white;fill-rule:nonzero;"/>
                </g>
                <g>
                    <path d="M42.7419,19.9003L43.2221,20.3954L43.2221,34.8301L42.7419,35.3253L40.9713,35.3253L40.4762,34.8301L40.4762,24.1917L38.7206,25.9022L37.9853,26.6525L37.2801,26.6675L34.7743,24.2217L34.7743,34.8301L34.2791,35.3253L32.5236,35.3253L32.0284,34.8301L32.0284,20.3954L32.5236,19.9003L34.2791,19.9003L34.4292,20.0503L34.4442,20.0503L37.6102,23.1413L40.8063,20.0353L40.8363,20.0503L40.9713,19.9003L42.7419,19.9003Z" style="fill:white;fill-rule:nonzero;"/>
                </g>
            </g>
        </g>
    </g>
</svg>
