<?xml version="1.0" standalone="no"?>
<!DOCTYPE svg PUBLIC "-//W3C//DTD SVG 1.1//EN" "http://www.w3.org/Graphics/SVG/1.1/DTD/svg11.dtd">
<svg width="160px" height="60px" version="1.1" xmlns="http://www.w3.org/2000/svg" xmlns:xlink="http://www.w3.org/1999/xlink" xml:space="preserve" style="fill-rule:evenodd;clip-rule:evenodd;stroke-linejoin:round;stroke-miterlimit:1.41421;">
    <g>
        <g id="Layer1">
            <g>
                <path d="M28.5143,30L30.3706,31.9369L30.3706,45.6056L30.2159,47.5424C30.0784,47.69 29.9925,47.8191 29.9581,47.9298C28.8237,50.623 27.4143,52.8181 25.7299,54.5151C23.1862,57.0976 20.2986,58.3889 17.0674,58.3889C13.8017,58.3889 10.897,57.0976 8.35321,54.5151C6.66882,52.8181 5.25943,50.6045 4.12504,47.8745C3.33441,46.0298 2.80159,43.1522 2.52659,39.2416C2.38909,36.8805 2.32034,34.2611 2.32034,31.3835L2.32034,29.6126C2.35471,25.9972 2.49221,22.769 2.73284,19.9283C3.07659,15.9808 3.67816,13.0663 4.53754,11.1848C5.70631,8.67607 7.11569,6.64698 8.76571,5.09749C11.2407,2.77326 14.0079,1.61114 17.0674,1.61114C20.4361,1.61114 23.4268,3.01306 26.0393,5.8169C26.7956,6.62853 27.5003,7.55085 28.1534,8.58384L28.8237,10.5207L28.8237,15.6119L26.9675,17.5487L23.2549,17.5487L21.4502,15.6119C21.3471,14.8002 21.0893,14.0071 20.6768,13.2323C19.8518,11.6459 18.6486,10.8343 17.0674,10.7974C15.2455,10.7974 13.6298,12.2915 12.2204,15.2798C11.3954,17.0507 10.9485,21.8467 10.8798,29.668L10.8798,31.5495C10.8798,38.2639 11.2235,42.4328 11.9111,44.0561C13.3548,47.4871 15.0736,49.2026 17.0674,49.2026C18.9236,49.2026 20.5565,47.6716 21.9658,44.6095L21.9658,38.9096L15.7267,38.9096L13.922,36.9727L13.922,31.9369L15.7267,30L28.5143,30Z" style="fill:white;fill-rule:nonzero;"/>
                <path d="M44.5504,11.7382L44.5504,21.6992L57.0802,21.6992L58.7303,23.5253L58.7303,30L57.0802,31.8262L44.5504,31.8262L44.5504,48.2618L59.2975,48.2618L60.999,50.088L60.999,56.5627L59.2975,58.3889L36.816,58.3889L35.1144,56.5627L35.1144,3.43732L36.816,1.61114L59.2975,1.61114L60.999,3.43732L60.999,9.91198L59.2975,11.7382L44.5504,11.7382Z" style="fill:white;fill-rule:nonzero;"/>
                <path d="M92.8134,1.83249L94.515,3.65868L94.515,56.5627L92.8134,58.3889L86.8321,58.3889L85.8008,57.3374L85.1305,56.5627L85.1305,55.6773L74.6632,30.5534L74.6632,56.5627L73.0132,58.3889L66.9803,58.3889L65.2788,56.5627L65.2788,3.65868L66.9803,1.83249L73.0132,1.83249L74.6632,3.65868L74.6632,5.76156L85.1305,30.8854L85.1305,3.65868L86.8321,1.83249L92.8134,1.83249Z" style="fill:white;fill-rule:nonzero;"/>
                <path d="M108.437,23.6914C111.978,23.5069 114.298,23.1933 115.398,22.7506C117.667,21.2011 118.801,19.5963 118.801,17.9361C118.801,16.4973 117.942,15.0769 116.223,13.675C115.02,13.1216 112.425,12.7158 108.437,12.4576L108.437,23.6914ZM124.009,28.3398C126.278,30.5165 127.498,33.2097 127.67,36.4193L127.67,56.452L125.865,58.3889L119.471,58.3889L117.667,56.452L117.667,38.5222C117.22,35.7184 115.673,34.0582 113.026,33.5417L112.82,33.5417C111.479,33.6893 110.018,33.7999 108.437,33.8737L108.437,56.5627L106.735,58.3889L100.754,58.3889L99.0525,56.5627L99.0525,3.88003L100.754,2.05385L106.735,2.05385L106.787,2.16453C109.434,2.27521 111.806,2.47812 113.903,2.77326C117.615,3.28975 120.228,4.15673 121.74,5.37418C126.106,8.84209 128.289,13.0294 128.289,17.9361C128.289,21.7729 126.862,25.2409 124.009,28.3398Z" style="fill:white;fill-rule:nonzero;"/>
                <path d="M141.386,11.7382L141.386,21.6992L153.916,21.6992L155.566,23.5253L155.566,30L153.916,31.8262L141.386,31.8262L141.386,48.2618L156.133,48.2618L157.834,50.088L157.834,56.5627L156.133,58.3889L133.651,58.3889L131.95,56.5627L131.95,3.43732L133.651,1.61114L156.133,1.61114L157.834,3.43732L157.834,9.91198L156.133,11.7382L141.386,11.7382Z" style="fill:white;fill-rule:nonzero;"/>
            </g>
        </g>
    </g>
</svg>
