<?xml version="1.0" standalone="no"?>
<!DOCTYPE svg PUBLIC "-//W3C//DTD SVG 1.1//EN" "http://www.w3.org/Graphics/SVG/1.1/DTD/svg11.dtd">
<svg width="38px" height="108px" version="1.1" xmlns="http://www.w3.org/2000/svg" xmlns:xlink="http://www.w3.org/1999/xlink" xml:space="preserve" style="fill-rule:evenodd;clip-rule:evenodd;stroke-linejoin:round;stroke-miterlimit:1.41421;">
    <g>
        <g id="hand">
            <g>
                <path d="M21.4488,59.5444C27.775,55.359 33.7733,50.9756 36.3332,43.6824C36.5501,43.0646 37.2962,41.1478 36.8379,40.5364C33.5437,36.1416 22.0467,54.3397 21.6436,51.0356C21.2834,48.0833 24.5359,43.7004 25.2705,40.7742C26.6929,35.1077 27.879,29.1012 28.8804,23.3434C29.1053,22.0506 30.3523,14.5698 28.9317,13.9362C26.4863,12.8455 22.5001,28.0631 22.0418,30.6979C21.8129,32.0141 21.4602,33.3435 21.0302,34.6074C20.82,35.2254 20.5148,35.8009 20.2475,36.3937C20.1506,36.6086 19.9319,37.2632 19.9343,37.0274C19.9602,34.4735 21.6399,31.6703 22.3472,29.2544C23.6566,24.7818 24.5375,19.7094 25.0156,15.0789C25.0985,14.2761 25.6848,7.63789 23.5158,8.05581C18.8813,8.94879 17.0458,22.4413 15.9001,26.3514C15.3761,28.1396 14.7382,29.9511 14.419,31.7866C14.2572,32.7169 13.9617,33.5878 13.7122,34.4932C13.7028,34.5274 13.6879,34.6333 13.6939,34.5982C14.1465,31.9964 18.9303,9.17285 13.2122,10.2073C12.0214,10.4227 9.55596,24.5798 9.16269,26.841C8.87698,28.4837 9.16839,30.1329 8.88111,31.7846C8.80861,32.2015 8.6636,33.0352 8.6636,33.0352C8.6636,33.0352 8.64281,31.2086 8.6149,30.2959C8.5595,28.4842 8.73655,11.6889 4.37479,13.5978C3.47626,13.9911 3.40198,15.808 3.19977,16.5947C1.69936,22.4325 1.39955,29.0573 2.13908,35.0692C2.52779,38.2292 3.4701,41.5106 3.30821,44.7331C3.30676,44.7619 3.29832,44.79 3.29338,44.8184C2.43822,49.7352 1.81415,53.8636 3.29096,58.6263C3.45652,59.1603 3.60739,59.5135 3.85786,58.9427C3.85786,58.9427 7.62043,64.2191 3.74376,86.5083L0.41514,105.768C3.34504,114.57 7.36755,114.224 11.8867,109.719L17.4284,66.8309C17.4284,66.8309 17.8536,61.9231 21.4488,59.5444Z" style="fill:rgb(236,0,53);"/>
            </g>
            <g>
                <path d="M6.38106,111.812C6.52228,111.81 6.66249,111.8 6.80233,111.78C7.33633,111.702 7.84587,111.496 8.31904,111.242C9.22392,110.757 10.0219,110.091 10.7676,109.391L10.8677,109.296L10.9253,109.24C12.767,94.9868 14.6215,80.7352 16.4479,66.4799C16.5879,65.4886 16.84,64.5125 17.1948,63.5763C17.744,62.1271 18.5551,60.7602 19.6732,59.6771C19.9931,59.3672 20.3369,59.0856 20.6994,58.8273C20.9562,58.6495 21.2183,58.4798 21.4784,58.3067C21.7715,58.1117 22.0635,57.915 22.3553,57.7181C22.9334,57.3258 23.5094,56.9305 24.0796,56.5268C24.5492,56.1943 25.0153,55.8568 25.4764,55.5126C28.39,53.3379 31.1473,50.8643 33.1591,47.8079C33.5495,47.2147 33.9106,46.6021 34.2384,45.9721C34.5475,45.3783 34.827,44.7692 35.0753,44.1475C35.2421,43.7297 35.3933,43.3055 35.5414,42.8808C35.6696,42.5131 35.7907,42.1415 35.8778,41.7617C35.9063,41.6375 35.9312,41.5122 35.9486,41.386C35.9627,41.2829 35.9732,41.1781 35.9677,41.0739C35.9436,41.0463 35.9171,41.021 35.8896,40.9967C35.8448,40.9596 35.7972,40.9274 35.7432,40.9052C35.6456,40.8652 35.5374,40.8581 35.4331,40.8643C35.2723,40.8739 35.1139,40.9143 34.9617,40.9653C34.895,40.9876 34.8291,41.0124 34.764,41.0391C34.6916,41.0687 34.6202,41.1007 34.5496,41.1343C34.4519,41.1809 34.3559,41.2308 34.2612,41.2832C34.1352,41.3529 34.0116,41.4269 33.8899,41.5039C33.733,41.6033 33.5793,41.7078 33.4283,41.8158C32.9807,42.1357 32.5548,42.4854 32.1412,42.8479C31.6698,43.261 31.2144,43.6921 30.7683,44.1323C29.7011,45.1853 28.6855,46.2895 27.6786,47.3998C27.1046,48.0327 26.5324,48.6672 25.9559,49.2978C25.6947,49.5815 25.4322,49.8638 25.1679,50.1446C24.7173,50.6177 24.2615,51.0885 23.7701,51.5198C23.6672,51.6101 23.5626,51.6986 23.4555,51.7839C23.3883,51.8373 23.3188,51.8906 23.2494,51.9411C22.8384,52.24 22.3503,52.5035 21.8246,52.4471C21.7566,52.4398 21.6902,52.4279 21.6241,52.4101C21.5021,52.3774 21.3907,52.3261 21.2827,52.2616C21.1411,52.1771 21.0194,52.0605 20.9219,51.928C20.8013,51.7639 20.7211,51.5735 20.6744,51.3759C20.6437,51.246 20.629,51.113 20.618,50.9802C20.5982,50.7425 20.5964,50.5035 20.609,50.2654C20.6641,49.2209 20.9814,48.2013 21.3581,47.2332C21.6381,46.5136 21.9608,45.8113 22.2934,45.1147C22.6165,44.4381 22.9496,43.7663 23.2727,43.0896C23.3719,42.8793 23.4697,42.6685 23.5658,42.4568C23.8301,41.8651 24.0788,41.2669 24.2559,40.6426C24.3604,40.2527 24.4523,39.8591 24.5486,39.4672C24.852,38.2157 25.1454,36.962 25.4252,35.705C26.2711,31.9049 27.0124,28.082 27.6912,24.2488C27.7983,23.6442 27.9063,23.0397 28.0034,22.4334C28.212,21.1311 28.3874,19.8219 28.4959,18.5072C28.5466,17.8936 28.583,17.278 28.5862,16.6621C28.5887,16.167 28.575,15.667 28.4884,15.1784L28.4823,15.1468C28.3332,15.3178 28.2036,15.5061 28.0819,15.6972C27.9265,15.941 27.7847,16.1935 27.6503,16.4494C27.255,17.2022 26.9195,17.9862 26.6059,18.7759C26.1858,19.8339 25.8088,20.9089 25.4539,21.9905C25.025,23.2978 24.6306,24.6163 24.259,25.941C24.1835,26.2698 24.1042,26.5976 24.024,26.9252C23.8242,27.7292 23.6114,28.5294 23.3832,29.3257L23.3482,29.4462C23.2574,29.8338 23.1679,30.2218 23.0904,30.6123C23.0562,30.7843 23.0263,30.9571 22.9953,31.1297C22.9459,31.3882 22.946,31.3877 22.8939,31.6454C22.7293,32.4182 22.5369,33.1838 22.3093,33.9406C22.2341,34.1908 22.1555,34.4399 22.0735,34.688C22.017,34.8592 21.9597,35.03 21.8956,35.1985C21.8314,35.3669 21.761,35.5327 21.689,35.6978C21.586,35.928 21.4785,36.156 21.371,36.3841C21.3009,36.5328 21.2288,36.6813 21.1635,36.8323C21.1047,36.976 21.0499,37.1214 20.9922,37.2656C20.9589,37.3445 20.959,37.3442 20.924,37.422C20.8869,37.4965 20.8496,37.569 20.8026,37.6379C20.7666,37.6907 20.7018,37.7578 20.6667,37.7974L20.6598,37.8041C20.5792,37.8743 20.5794,37.8741 20.4915,37.9357L20.4885,37.9376C20.3843,37.9945 20.3846,37.9943 20.2748,38.0386L20.272,38.0395C20.1048,38.0804 20.1047,38.0804 19.9332,38.0925L19.9305,38.0924C19.8078,38.0822 19.7753,38.0858 19.6565,38.0505C19.612,38.0373 19.5697,38.0181 19.5263,38.0019L19.5239,38.0009C19.3621,37.9087 19.362,37.9086 19.2199,37.7886L19.2178,37.7865C19.1309,37.6858 19.1311,37.686 19.0583,37.5752L19.0565,37.5719C19.0204,37.4985 18.9773,37.4221 18.9607,37.3407C18.9486,37.2809 18.9308,37.2217 18.9264,37.1609C18.9126,36.9735 18.9234,36.7852 18.9361,36.5979C18.9581,36.2738 19.0009,35.9514 19.0593,35.6319C19.2006,34.8588 19.4323,34.1048 19.698,33.3663C20.0154,32.4841 20.383,31.6211 20.7333,30.7519C20.7951,30.5964 20.8564,30.4408 20.9172,30.2849C21.0828,29.8501 21.2407,29.4137 21.3737,28.9678C21.401,28.8737 21.4208,28.7776 21.4438,28.6824C21.5124,28.398 21.5832,28.1141 21.6544,27.8303C21.8523,27.0539 22.0589,26.28 22.2726,25.5079L22.2918,25.4395C22.8538,22.9925 23.2968,20.5194 23.6384,18.0321C23.7387,17.302 23.8302,16.5706 23.9129,15.8382C23.9529,15.4833 23.9938,15.1283 24.0255,14.7725C24.0622,14.362 24.0891,13.9505 24.1075,13.5387C24.1313,13.0051 24.1414,12.4707 24.1301,11.9366C24.1206,11.4892 24.097,11.0414 24.0453,10.5967C24.0068,10.2653 23.9543,9.93327 23.8642,9.6115C23.813,9.42855 23.7512,9.24225 23.6483,9.08107L23.6389,9.06723C23.1035,9.20015 22.6574,9.57873 22.3007,9.98473C22.2229,10.0733 22.1472,10.1633 22.0743,10.256C21.9701,10.3887 21.8711,10.5254 21.7762,10.6649C21.6468,10.8554 21.5252,11.0512 21.4097,11.2505C21.1502,11.6979 20.9208,12.1625 20.7099,12.6347C20.45,13.2165 20.2185,13.8109 20.0049,14.4112C19.5184,15.7777 19.1218,17.1755 18.7626,18.5802C18.545,19.4308 18.3426,20.2852 18.1475,21.1411C17.8773,22.3271 17.622,23.5163 17.356,24.7032C17.2947,24.9715 17.2325,25.2395 17.1689,25.5073C17.0936,25.8169 17.0173,26.1262 16.932,26.4332C16.818,26.8434 16.6912,27.2502 16.5664,27.6572C16.429,28.1054 16.2909,28.5534 16.1555,29.0023C16.0736,29.2792 15.9925,29.5562 15.9143,29.8341C15.779,30.3236 15.6515,30.8152 15.5451,31.312C15.4785,31.6225 15.4263,31.9355 15.365,32.247C15.3361,32.3875 15.3357,32.3868 15.3051,32.5273C15.1425,33.2256 14.9327,33.9101 14.7362,34.5993L14.704,34.7147L14.6916,34.7841L14.6887,34.799C14.669,34.8644 14.6557,34.932 14.6295,34.995C14.5768,35.1217 14.499,35.2363 14.4007,35.3321C14.1528,35.5736 13.7896,35.673 13.4533,35.5914C13.3199,35.559 13.1946,35.5 13.0847,35.4178C12.9749,35.3356 12.8828,35.232 12.8141,35.1133C12.7455,34.9945 12.7016,34.8631 12.6851,34.7269C12.6769,34.6591 12.6815,34.5904 12.6812,34.5222C12.681,34.4635 12.6966,34.403 12.7064,34.3456C12.749,34.1296 12.7879,33.9128 12.8287,33.6964C12.9661,32.9667 13.1037,32.237 13.2375,31.5065C13.7732,28.5495 14.2535,25.5805 14.5885,22.5934C14.7201,21.42 14.8292,20.2436 14.9005,19.0649C14.9655,17.9892 15.0008,16.9103 14.9742,15.8326C14.9651,15.4662 14.9486,15.0999 14.9216,14.7343C14.8819,14.1977 14.8211,13.6611 14.7163,13.133C14.6376,12.7367 14.5356,12.3402 14.3744,11.9687C14.3455,11.9022 14.3146,11.8366 14.281,11.7724C14.2586,11.7298 14.2351,11.6878 14.2102,11.6466C14.0924,11.452 13.9341,11.2488 13.7,11.1992L13.6886,11.1972C13.5254,11.5427 13.4027,11.9073 13.2866,12.2708C13.1389,12.7333 13.0076,13.201 12.8829,13.6702C12.5674,14.8567 12.2941,16.0545 12.0338,17.2543C11.5836,19.3297 11.1783,21.4149 10.7917,23.503C10.6585,24.2226 10.5277,24.9427 10.3999,25.6633C10.3123,26.1576 10.219,26.6522 10.1407,27.1482C10.1275,27.2382 10.116,27.3281 10.1049,27.4185C10.065,27.796 10.0476,28.1737 10.0404,28.5531C10.034,29.0682 10.0403,29.5834 10.0338,30.0985C10.0218,30.7211 9.98493,31.3412 9.88136,31.9559L9.66339,33.2091C9.64558,33.2732 9.634,33.3395 9.60996,33.4015C9.56166,33.5263 9.48916,33.6403 9.39662,33.737C9.30409,33.8336 9.19336,33.911 9.0708,33.9647C8.94824,34.0184 8.81627,34.0473 8.68249,34.0498C8.34518,34.0561 8.01971,33.889 7.82819,33.6113C7.75223,33.5012 7.6988,33.3771 7.67098,33.2462C7.65714,33.1811 7.65625,33.1138 7.64888,33.0477C7.64102,32.4081 7.63134,31.7686 7.61969,31.1291C7.61234,30.786 7.60208,30.443 7.59558,30.0999C7.58538,29.38 7.57634,28.6601 7.56224,27.9402C7.51388,25.8376 7.42089,23.7344 7.20953,21.6413C7.12623,20.8164 7.02448,19.9931 6.89126,19.1747C6.78035,18.4933 6.64847,17.8144 6.47531,17.1459C6.42422,16.9486 6.36939,16.7523 6.30964,16.5575C6.25489,16.379 6.19603,16.2018 6.13162,16.0265C6.08768,15.907 6.04115,15.7884 5.99129,15.6712C5.94576,15.5642 5.89693,15.4589 5.84567,15.3546C5.7234,15.1057 5.57692,14.8549 5.38136,14.6558C5.30108,14.5741 5.19892,14.4824 5.08055,14.4649C4.98413,14.4506 4.88307,14.4847 4.7957,14.5216C4.77567,14.5409 4.75998,14.5645 4.74457,14.5874C4.68276,14.6857 4.63773,14.7933 4.59912,14.9025C4.55319,15.0324 4.51674,15.1656 4.48453,15.2995C4.38584,15.7097 4.32835,16.1285 4.25004,16.5429C4.22941,16.6451 4.22949,16.6447 4.20723,16.7463C4.15565,16.9589 4.10113,17.1707 4.0489,17.3832C4.00596,17.5631 3.96364,17.7433 3.92193,17.9236C3.75807,18.6543 3.60927,19.3879 3.48121,20.1258C3.08845,22.3887 2.86642,24.681 2.79304,26.9763C2.72591,29.0762 2.78351,31.1807 2.96944,33.2735C3.04479,34.1216 3.13882,34.9683 3.2652,35.8104C3.4303,36.9105 3.63828,38.0036 3.82847,39.0995C3.88083,39.4074 3.93185,39.7154 3.98126,40.0238C4.15012,41.1214 4.29003,42.2236 4.32976,43.3344C4.34126,43.6558 4.34468,43.9776 4.33849,44.2991C4.33464,44.4987 4.33197,44.6995 4.31133,44.898C4.25064,45.2319 4.19395,45.5666 4.13671,45.9011C3.73004,48.3197 3.35867,50.7631 3.42502,53.2232C3.45051,54.1684 3.54106,55.1118 3.70553,56.0431C3.81635,56.6706 3.96331,57.2897 4.13451,57.9033L4.15617,57.9776L4.25204,58.0076L4.42384,58.1004C4.47412,58.1417 4.5286,58.1784 4.57467,58.2244C4.66682,58.3163 4.73547,58.4254 4.79993,58.537C4.87681,58.6701 4.94608,58.8076 5.01067,58.9471C5.16311,59.2763 5.28941,59.6165 5.40398,59.9605C5.62597,60.6271 5.78961,61.314 5.9245,62.003C6.12358,63.0198 6.25479,64.0495 6.34499,65.0814C6.46939,66.5046 6.51506,67.9342 6.51142,69.3625C6.50725,71.0003 6.43738,72.6377 6.32284,74.2714C6.03099,78.4338 5.45191,82.5706 4.74378,86.6808L1.45896,105.688C1.62336,106.165 1.79747,106.64 1.98857,107.107C2.14037,107.479 2.30219,107.846 2.47718,108.208C2.61063,108.483 2.75178,108.755 2.90266,109.021C3.01579,109.221 3.13444,109.418 3.25975,109.61C3.35128,109.751 3.4464,109.889 3.54565,110.024C3.63689,110.148 3.73166,110.27 3.83047,110.388C4.32784,110.984 4.95301,111.529 5.72001,111.729C5.89257,111.774 6.06792,111.798 6.24569,111.809C6.31377,111.811 6.31324,111.811 6.38106,111.812ZM6.38614,113.842C6.02826,113.838 5.67413,113.803 5.32505,113.722C5.08982,113.667 4.85902,113.594 4.63514,113.503C3.31933,112.971 2.31962,111.885 1.55919,110.718C1.44137,110.537 1.32846,110.353 1.21988,110.167C1.07615,109.92 0.939998,109.668 0.810249,109.414C0.642959,109.086 0.486293,108.752 0.338259,108.415C0.0930799,107.856 -0.128588,107.287 -0.333113,106.713C-0.382042,106.575 -0.429656,106.438 -0.476677,106.3C-0.513658,106.191 -0.567914,106.047 -0.586791,105.93C-0.610562,105.782 -0.597933,105.743 -0.584832,105.596C0.554497,99.0032 1.69701,92.4113 2.83289,85.8183C3.36266,82.6831 3.81382,79.5341 4.11326,76.368C4.34233,73.9459 4.4875,71.5128 4.48186,69.0791C4.47774,67.305 4.39703,65.5254 4.15815,63.7662C4.07225,63.1336 3.96506,62.5034 3.82515,61.8803C3.69823,61.3152 3.54409,60.7559 3.34111,60.2131L3.25331,60.1865C3.17571,60.1588 3.10397,60.1245 3.03353,60.082C2.99888,60.0611 2.93542,60.012 2.91176,59.994C2.84641,59.9442 2.78963,59.8816 2.73652,59.8193C2.65274,59.7209 2.58703,59.6079 2.53106,59.4919C2.44372,59.3108 2.38061,59.1184 2.32162,58.9267C2.29768,58.8489 2.27384,58.771 2.25062,58.693C2.20458,58.5383 2.16039,58.3834 2.11791,58.2277C2.05525,57.998 1.99652,57.7673 1.94181,57.5356C1.87031,57.2328 1.80573,56.9284 1.74816,56.6226C1.41843,54.8716 1.33215,53.0858 1.42222,51.3081C1.53598,49.0629 1.91312,46.8414 2.29616,44.6297C2.30206,44.601 2.29986,44.5711 2.30098,44.5418C2.3062,44.4057 2.30594,44.3963 2.30925,44.2601C2.31674,43.7351 2.30037,43.2109 2.2613,42.6873C2.18758,41.6993 2.0409,40.7193 1.87908,39.7424C1.72498,38.8364 1.55865,37.9325 1.40442,37.0265C1.32026,36.5188 1.24035,36.0107 1.17131,35.5008C1.07921,34.8205 1.00855,34.1369 0.947806,33.4531C0.825357,32.0749 0.75686,30.6918 0.74046,29.3082C0.708513,26.6131 0.871655,23.9134 1.25051,21.2444C1.4028,20.1716 1.59042,19.1037 1.81692,18.044C1.8983,17.6633 1.9847,17.2837 2.07634,16.9054C2.13116,16.679 2.19347,16.4542 2.24334,16.2267C2.31163,15.8882 2.36265,15.5463 2.42804,15.2072C2.45408,15.0792 2.48065,14.9515 2.51121,14.8246C2.6617,14.1994 2.89225,13.556 3.35535,13.0911C3.48558,12.9603 3.63245,12.8461 3.79319,12.7552C3.92029,12.6833 4.05618,12.6271 4.19398,12.5794C4.44681,12.4918 4.71209,12.4392 4.97989,12.4326C5.29686,12.4249 5.61351,12.4825 5.90747,12.6013C6.39424,12.798 6.79768,13.1521 7.11643,13.5637C7.39296,13.9207 7.61151,14.3205 7.79576,14.7318C8.02189,15.2366 8.19798,15.763 8.34775,16.295C8.53109,16.9461 8.67433,17.6083 8.7955,18.2736C8.96203,19.1881 9.08427,20.1097 9.18652,21.0333L9.18881,21.0548C9.32151,20.371 9.45667,19.6877 9.59381,19.0048C9.69287,18.5185 9.79339,18.0325 9.89555,17.5469C10.1192,16.496 10.3502,15.4467 10.6037,14.4026C10.7967,13.6076 11.0004,12.8145 11.2362,12.031C11.394,11.5069 11.5627,10.9819 11.7843,10.4807C11.9362,10.1373 12.1171,9.78631 12.3985,9.53021C12.528,9.41242 12.6783,9.3167 12.8437,9.25806C12.9366,9.22516 13.0306,9.20735 13.1277,9.19263C13.2234,9.17813 13.3198,9.16807 13.4164,9.16271C13.7351,9.14503 14.0566,9.18032 14.3616,9.27572C14.7183,9.38728 15.0454,9.57968 15.3231,9.82902C15.7745,10.2343 16.0854,10.7719 16.3069,11.331C16.4741,11.7531 16.594,12.1931 16.6865,12.6371C16.789,13.1289 16.8578,13.6275 16.9066,14.1274C16.9445,14.5155 16.9701,14.9048 16.9868,15.2943C17.0152,15.956 17.0163,16.6181 17.0049,17.2802C17.0713,17.0353 17.1385,16.7906 17.2063,16.5461C17.698,14.8217 18.2458,13.1037 19.0076,11.4769C19.2773,10.9011 19.5747,10.3371 19.916,9.80036C20.2171,9.32707 20.553,8.87352 20.9398,8.4665C21.2717,8.11724 21.6426,7.8021 22.0563,7.55349C22.3812,7.35821 22.732,7.20527 23.0992,7.11001C23.334,7.04913 23.5733,7.01077 23.8165,7.02492C23.9831,7.03461 24.1481,7.06675 24.3059,7.12109C24.4288,7.16343 24.547,7.21919 24.6582,7.28644C24.7381,7.33473 24.8142,7.38906 24.8863,7.44829C25.4005,7.8707 25.673,8.51378 25.8399,9.14185C25.8749,9.27366 25.9062,9.40669 25.9328,9.54047C25.965,9.70237 25.9936,9.86477 26.0176,10.0281C26.0504,10.2515 26.0759,10.4759 26.0961,10.7007C26.1267,11.0412 26.145,11.3827 26.155,11.7243C26.1735,12.3593 26.1634,12.9949 26.1351,13.6295C26.1119,14.1479 26.0765,14.666 26.0251,15.1824L26.0244,15.1896C26.0883,15.0751 26.154,14.9617 26.2206,14.8488C26.2949,14.7265 26.2946,14.727 26.3704,14.6062C26.4449,14.4911 26.5201,14.3767 26.5995,14.2648C26.6755,14.1577 26.7544,14.0527 26.8369,13.9506C27.2127,13.4857 27.6886,13.0498 28.287,12.9104C28.3843,12.8877 28.4835,12.8732 28.5833,12.8677C28.7133,12.8607 28.844,12.8689 28.9719,12.8927C29.1359,12.9231 29.2972,12.9783 29.4442,13.0573C29.6244,13.1541 29.783,13.2868 29.9152,13.4424C30.0997,13.6594 30.2295,13.9177 30.3231,14.1853C30.4401,14.5196 30.5042,14.8711 30.5461,15.2221C30.5959,15.6397 30.6132,16.0609 30.6157,16.4812C30.6226,17.6182 30.526,18.7558 30.4005,19.8849C30.2937,20.8445 30.1602,21.8012 30.0075,22.7546C29.9377,23.1902 29.8618,23.6248 29.7855,24.0593C29.6579,24.7867 29.528,25.5137 29.3956,26.2402C28.9263,28.8167 28.4263,31.3877 27.8833,33.9497C27.5733,35.4121 27.2493,36.8716 26.9082,38.327C26.7392,39.0476 26.5661,39.7673 26.3882,40.4858C26.3042,40.8253 26.2242,41.1644 26.1197,41.4981C25.8544,42.3458 25.4845,43.1574 25.1064,43.9596C24.7826,44.6378 24.4507,45.3121 24.1249,45.9893C23.8158,46.6415 23.5114,47.2962 23.2496,47.9691C23.0264,48.5428 22.8313,49.1299 22.7153,49.7353C22.8514,49.606 22.9855,49.4748 23.1185,49.3424C23.7674,48.6879 24.3893,48.0074 25.0083,47.3248C25.6011,46.6711 26.1924,46.0159 26.7876,45.3643C26.9959,45.1377 27.2045,44.9116 27.4136,44.6858C28.597,43.4196 29.8016,42.1635 31.1266,41.0433C31.5877,40.6535 32.0643,40.2804 32.5661,39.9442C33.0176,39.6419 33.4915,39.3669 33.9951,39.1608C34.5728,38.9242 35.2029,38.7783 35.8292,38.8517C36.1242,38.8863 36.4129,38.9698 36.6789,39.1021C36.9524,39.2381 37.199,39.4241 37.4102,39.6444C37.5665,39.8075 37.7114,39.9867 37.8097,40.1911C37.8983,40.3754 37.9511,40.5752 37.9775,40.7774C38.0401,41.2563 37.9631,41.7486 37.8562,42.2152C37.7377,42.732 37.5697,43.2359 37.3921,43.7349C37.3162,43.9482 37.241,44.162 37.1624,44.3744C36.7575,45.4683 36.2656,46.5296 35.694,47.5463C34.6222,49.4528 33.2727,51.1906 31.7546,52.7617C30.284,54.2836 28.6612,55.6514 26.9741,56.9261C25.9331,57.7126 24.8664,58.4644 23.788,59.1986C23.3945,59.4665 22.9997,59.7324 22.6033,59.996C22.3575,60.1596 22.1088,60.3201 21.8658,60.4882C21.796,60.538 21.727,60.5886 21.6586,60.6403C21.3932,60.8462 21.1425,61.0689 20.9098,61.3113C19.9391,62.3228 19.2866,63.6094 18.8709,64.9383C18.7576,65.3008 18.6616,65.6687 18.5834,66.0404C18.5205,66.34 18.4675,66.6424 18.4366,66.9471L12.8931,109.849C12.8814,109.903 12.8742,109.959 12.858,110.013C12.8255,110.12 12.7754,110.221 12.7098,110.312C12.6771,110.358 12.6372,110.397 12.6008,110.44C12.4558,110.583 12.3094,110.725 12.1615,110.866C11.9445,111.07 11.7248,111.27 11.4994,111.465C10.8128,112.056 10.0785,112.602 9.27835,113.031C8.66661,113.359 8.01288,113.618 7.32935,113.749C7.09554,113.794 6.86025,113.82 6.62283,113.835C6.50408,113.84 6.50454,113.84 6.38614,113.842Z" style="fill:white;fill-rule:nonzero;"/>
            </g>
            <g>
                <path d="M1.50692,108.276C1.34142,108.275 1.29676,108.287 1.1358,108.24C0.832794,108.151 0.583329,107.921 0.471229,107.626C0.411685,107.469 0.419287,107.424 0.40509,107.259C0.408976,106.662 0.417666,106.065 0.427537,105.467C0.47296,103.023 0.544399,100.576 0.71838,98.1366C0.7752,97.3399 0.842969,96.5435 0.939917,95.7505C1.01646,95.1245 1.10478,94.4948 1.26376,93.8834C1.29288,93.7714 1.32478,93.6601 1.36106,93.5501C1.38631,93.4737 1.41555,93.3987 1.44036,93.3221C1.46066,93.2539 1.4792,93.1855 1.49713,93.1167C1.61759,92.6282 1.70911,92.1324 1.79379,91.6366C1.91418,90.9318 2.02252,90.2251 2.12304,89.5172C2.36749,87.7957 2.57267,86.0687 2.75503,84.3396C3.0143,81.8815 3.22522,79.418 3.38353,76.9512C3.53304,74.6218 3.63639,72.2887 3.66585,69.9545C3.69395,67.7283 3.66209,65.4964 3.47715,63.2768C3.40764,62.4426 3.31566,61.6096 3.18301,60.7829C3.06329,60.0369 2.91294,59.2922 2.68934,58.5697C2.62629,58.3659 2.55702,58.164 2.47888,57.9655C2.41255,57.797 2.33819,57.6318 2.26878,57.4646C2.21387,57.3274 2.21408,57.3279 2.16076,57.1895C2.02433,56.8218 1.90199,56.4497 1.79821,56.0714C1.5434,55.1425 1.38849,54.1877 1.30716,53.2285C1.20779,52.0566 1.21761,50.8763 1.30457,49.704C1.3675,48.8557 1.47154,48.0105 1.61099,47.1714C1.75116,46.3279 1.92699,45.4903 2.14634,44.6638L2.14963,44.6518C2.10462,44.1835 2.06375,43.7149 2.02265,43.2463C1.9715,42.6426 1.92161,42.0389 1.87386,41.4349C1.55081,37.2557 1.31778,33.0687 1.24404,28.8773C1.21587,27.276 1.21659,25.6737 1.25756,24.0727C1.29545,22.5926 1.36731,21.1121 1.50946,19.6381C1.56065,19.1074 1.62125,18.5775 1.69542,18.0495C1.8302,17.0901 2.00453,16.131 2.28236,15.2016C2.35932,14.9441 2.44479,14.6891 2.54216,14.4386C2.59841,14.2939 2.65291,14.1394 2.73965,14.0098C2.83703,13.8642 2.97605,13.7447 3.11194,13.6363C3.43806,13.3762 3.8146,13.1735 4.21912,13.0672C4.46186,13.0034 4.71382,12.9748 4.96467,12.987C5.12089,12.9946 5.2763,13.0176 5.42797,13.0559C5.55639,13.0883 5.68206,13.1313 5.80352,13.1841C6.60213,13.5311 7.15604,14.2595 7.54693,15.0125C7.61439,15.1425 7.67776,15.2745 7.73765,15.4081C7.82461,15.6021 7.90428,15.7994 7.97816,15.9987C8.08168,16.2781 8.17392,16.5615 8.25775,16.8474C8.3531,17.1725 8.43762,17.5007 8.51407,17.8307C8.61965,18.2865 8.70996,18.7457 8.78944,19.2068C8.89832,19.8383 8.98701,20.4733 9.06193,21.1098C9.15023,21.8599 9.21939,22.6122 9.27518,23.3654C9.35044,24.3813 9.40145,25.399 9.43595,26.417C9.46584,27.2994 9.48322,28.1821 9.491,29.0649C9.49238,29.2225 9.49347,29.3801 9.49425,29.5377C9.49472,29.6322 9.51049,30.0333 9.47904,30.2045C9.45638,30.3278 9.41107,30.4459 9.34539,30.5527C9.27972,30.6595 9.19482,30.7532 9.095,30.8291C8.84372,31.02 8.5101,31.0835 8.20626,30.998C8.08556,30.9641 7.97219,30.9081 7.87191,30.8328C7.67086,30.682 7.53096,30.4576 7.48401,30.2107C7.47235,30.1494 7.47211,30.0864 7.46616,30.0243C7.46471,29.5585 7.46159,29.0928 7.45657,28.6271C7.42511,26.4918 7.34916,24.3553 7.14109,22.2292C7.06113,21.4121 6.96147,20.5966 6.8288,19.7864C6.71659,19.1012 6.5814,18.4187 6.40222,17.7476C6.34552,17.5352 6.28417,17.324 6.21679,17.1147C6.15877,16.9345 6.09619,16.7557 6.02763,16.5792C5.98309,16.4645 5.93594,16.3508 5.88562,16.2386C5.84164,16.1404 5.79515,16.0434 5.7456,15.9479C5.70286,15.8655 5.65774,15.7843 5.60974,15.7049C5.56898,15.6374 5.52605,15.5713 5.48046,15.507C5.45433,15.4701 5.42728,15.434 5.39921,15.3986C5.3746,15.3675 5.34917,15.3372 5.3228,15.3077C5.29994,15.2821 5.27639,15.2572 5.25198,15.233C5.14703,15.1293 5.00955,15.0158 4.85338,15.0142C4.70068,15.0126 4.55529,15.0968 4.43384,15.1806L4.43037,15.1832C4.20597,15.7704 4.05341,16.3832 3.92967,16.9987C3.77569,17.7646 3.66808,18.5396 3.58291,19.3159C3.47288,20.3187 3.40196,21.3257 3.35248,22.3332C3.29788,23.4448 3.27031,24.5577 3.25988,25.6706C3.22861,29.008 3.3439,32.3462 3.52513,35.6782C3.619,37.404 3.73284,39.1287 3.86445,40.8521C3.9611,42.1176 4.06657,43.3825 4.18801,44.6459L4.18846,44.8353C4.17687,44.8973 4.16703,44.9598 4.1537,45.0215C4.14794,45.0481 4.13859,45.0739 4.13125,45.1001C4.10636,45.1891 4.09632,45.2285 4.07103,45.3238C4.01997,45.5235 3.97153,45.7236 3.9244,45.9243C3.56087,47.5282 3.3306,49.1666 3.27721,50.8112C3.23115,52.23 3.31574,53.6644 3.63392,55.0509C3.73546,55.4933 3.8614,55.9304 4.01668,56.3571C4.1232,56.6497 4.25159,56.933 4.36738,57.2219C4.40748,57.3256 4.44629,57.4296 4.48401,57.5341C4.75497,58.3117 4.94637,59.1133 5.09461,59.9227C5.21394,60.5743 5.3059,61.2308 5.38055,61.889C5.57694,63.6202 5.65836,65.364 5.68971,67.1054C5.73382,69.5554 5.67286,72.007 5.55629,74.4544C5.42801,77.1474 5.22954,79.8373 4.97632,82.5214C4.76286,84.7842 4.51232,87.0443 4.20319,89.2961C4.08008,90.1928 3.94649,91.0881 3.79406,91.9804C3.70053,92.5279 3.60099,93.0769 3.46451,93.6155C3.43013,93.7512 3.39298,93.8864 3.34801,94.019C3.31827,94.1068 3.28566,94.1928 3.25901,94.2816C3.23636,94.3616 3.21576,94.4421 3.19633,94.523C3.1177,94.8675 3.06014,95.2162 3.01094,95.5661C2.95775,95.9442 2.9145,96.3237 2.87622,96.7036C2.7855,97.6041 2.72251,98.5073 2.67036,99.4107C2.59925,100.643 2.55048,101.876 2.51338,103.11C2.47291,104.455 2.44757,105.801 2.43545,107.147L2.43464,107.272C2.42847,107.334 2.42802,107.397 2.41615,107.458C2.36835,107.705 2.22769,107.929 2.02613,108.079C1.89169,108.179 1.84593,108.184 1.69122,108.243C1.62978,108.254 1.56835,108.265 1.50692,108.276Z" style="fill:white;fill-rule:nonzero;"/>
            </g>
            <g>
                <path d="M10.7566,110.028C10.6429,110.026 10.6432,110.026 10.5301,110.011L10.5253,110.01C10.4786,109.998 10.4309,109.989 10.3853,109.973C10.248,109.926 10.1215,109.849 10.0162,109.75C9.94591,109.683 9.88554,109.607 9.83688,109.523C9.66479,109.227 9.65473,108.856 9.81056,108.551C9.86003,108.454 9.86744,108.449 9.91884,108.386C9.94908,108.296 9.9744,108.205 10.0003,108.114C10.2346,107.242 10.4118,106.354 10.5888,105.469C10.8538,104.144 11.0996,102.814 11.3402,101.484C11.9929,97.8769 12.603,94.262 13.2042,90.6458C13.8799,86.5813 14.5393,82.514 15.1907,78.4455C16.0845,72.8641 16.9619,67.2802 17.8275,61.6944L17.9106,61.1562C17.9348,61.0461 17.9358,61.0165 17.9804,60.9123C18.0304,60.7953 18.1025,60.688 18.1919,60.5975C18.2217,60.5674 18.2552,60.5411 18.2868,60.5129C18.6214,60.2501 18.957,59.9887 19.2932,59.7279C22.4567,57.2863 25.6585,54.8942 28.8614,52.5046L29.1999,52.2525C29.2405,52.2265 29.2795,52.1976 29.3219,52.1745C29.4494,52.1053 29.5914,52.064 29.7361,52.054C30.0775,52.0304 30.4155,52.1858 30.6199,52.4602C30.6777,52.5379 30.7241,52.6233 30.7577,52.7141C30.7913,52.8049 30.8117,52.8999 30.8184,52.9965C30.8251,53.093 30.8179,53.19 30.7971,53.2845C30.7555,53.4737 30.6591,53.6491 30.5218,53.7857C30.4876,53.8198 30.4487,53.8488 30.4122,53.8803C29.2758,54.7267 28.1411,55.5754 27.0072,56.4252C24.7225,58.1406 22.4384,59.8572 20.1806,61.6081L19.8553,61.8618C19.4901,64.2274 19.1201,66.5922 18.7494,68.957C18.4556,70.8258 18.1606,72.6945 17.8647,74.563C17.0525,79.6708 16.233,84.7775 15.3885,89.8802C14.7278,93.8725 14.0578,97.8636 13.3374,101.846C13.2406,102.38 13.1428,102.915 13.0434,103.449C12.9536,103.932 12.8626,104.414 12.7696,104.896C12.6512,105.509 12.5299,106.122 12.4019,106.734C12.2911,107.264 12.1768,107.793 12.0449,108.318C11.9656,108.633 11.886,108.955 11.7602,109.256C11.7111,109.373 11.6541,109.492 11.5743,109.591C11.5449,109.628 11.5174,109.666 11.4832,109.699C11.3888,109.788 11.3891,109.788 11.2834,109.863C11.242,109.893 11.194,109.912 11.1491,109.936L11.1438,109.938C11.0601,109.972 11.0603,109.972 10.9737,109.997L10.9686,109.998L10.8658,110.018C10.8294,110.022 10.7931,110.027 10.7566,110.028ZM10.3772,108.058L10.4292,108.041C10.4026,108.048 10.4026,108.047 10.3772,108.058ZM10.5129,108.02L10.6143,108.003L10.759,107.999L10.9029,108.016L10.7954,107.995L10.5812,108.003C10.5584,108.009 10.5356,108.015 10.5129,108.02Z" style="fill:white;fill-rule:nonzero;"/>
            </g>
            <g>
                <path d="M21.5309,53.2565C21.493,53.256 21.455,53.2576 21.4171,53.255C21.3035,53.2472 21.1913,53.2201 21.0867,53.1752C20.7321,53.0231 20.4897,52.6723 20.473,52.2868C20.468,52.173 20.4824,52.0585 20.5153,51.9494C20.5262,51.9131 20.5412,51.8781 20.5542,51.8425C20.8229,51.2163 21.0907,50.5897 21.356,49.9621C22.2444,47.8497 23.1051,45.7255 23.8989,43.5755C25.0516,40.4534 26.0666,37.277 26.8355,34.0375C27.2057,32.4781 27.5189,30.9051 27.7651,29.3213C27.8375,28.8556 27.9041,28.389 27.9648,27.9216C28.0144,27.5399 28.063,27.1579 28.0927,26.7741C28.1586,25.9215 28.1501,25.0648 28.1226,24.2108C28.1002,23.5132 28.0652,22.816 28.0384,22.1186C28.0315,21.9157 28.0252,21.7128 28.0194,21.5099C28,20.5832 28.0038,19.656 28.0981,18.733C28.1247,18.473 28.1581,18.2137 28.1996,17.9557C28.2116,17.881 28.2279,17.7716 28.2496,17.6956C28.2704,17.6226 28.2994,17.5521 28.336,17.4855C28.3909,17.3856 28.4626,17.2953 28.5473,17.2191C28.632,17.143 28.7296,17.0814 28.8347,17.0376C29.2283,16.8734 29.6954,16.9787 29.9804,17.296C30.1331,17.4661 30.2251,17.6865 30.2385,17.9147C30.2444,18.0159 30.2373,18.0413 30.2263,18.1416C30.2041,18.2743 30.1835,18.4071 30.1646,18.5403C29.9358,20.2985 30.0716,22.0772 30.1405,23.8412C30.1476,24.0445 30.1542,24.2478 30.1601,24.4511C30.1763,25.1736 30.1801,25.8961 30.1375,26.6178C30.1066,27.1419 30.0451,27.6624 29.9775,28.1829C29.9146,28.6671 29.8456,29.1506 29.7706,29.6331C29.5162,31.2695 29.1927,32.895 28.8103,34.5062C27.9279,38.2235 26.7309,41.8586 25.372,45.427C24.4469,47.8562 23.4442,50.2542 22.4194,52.6428L22.3687,52.7447C22.3139,52.8294 22.3034,52.8536 22.2349,52.9283C22.1322,53.0403 22.0044,53.1286 21.8633,53.185C21.7691,53.2226 21.7428,53.2239 21.6442,53.2452C21.6064,53.2489 21.5687,53.2527 21.5309,53.2565Z" style="fill:white;fill-rule:nonzero;"/>
            </g>
            <g>
                <path d="M0.0145829,106.538C-0.0314966,106.535 -0.0778786,106.535 -0.123655,106.529C-0.215423,106.517 -0.305115,106.493 -0.390236,106.457C-0.690883,106.328 -0.915546,106.056 -0.984075,105.736C-1.00998,105.615 -1.0039,105.583 -1.00468,105.46C-0.988004,105.192 -0.970422,104.923 -0.951951,104.655C-0.850921,103.313 -0.715182,101.974 -0.547154,100.639C-0.147627,97.4646 0.406597,94.3117 0.91612,91.1535C0.999021,90.6305 1.08149,90.1075 1.16193,89.5842C1.47721,87.5008 1.75945,85.4118 1.93863,83.3118C2.00562,82.5267 2.05716,81.7405 2.09429,80.9534C2.11858,80.4386 2.13091,79.9234 2.15192,79.4084C2.16701,79.0712 2.18398,78.734 2.20269,78.3969C2.34592,75.9586 2.59241,73.5284 2.8034,71.0954C2.83138,70.763 2.85884,70.4305 2.88576,70.0979C2.99349,68.702 3.08497,67.3049 3.11828,65.9049C3.12792,65.4999 3.13292,65.0947 3.13233,64.6895C3.13189,64.3852 3.1314,64.0809 3.11187,63.7771C3.07007,63.1267 2.96717,62.481 2.85348,61.84C2.74305,61.2174 2.62015,60.597 2.50541,59.9752C2.45658,59.7031 2.40954,59.4308 2.36474,59.158C2.2308,58.3037 2.12654,57.4392 2.15677,56.5729C2.163,56.3943 2.1751,56.216 2.19424,56.0383C2.20313,55.9558 2.21348,55.8601 2.23432,55.7799C2.25761,55.6904 2.29304,55.6044 2.33964,55.5244C2.38623,55.4445 2.44354,55.3712 2.50998,55.3068C2.81486,55.0111 3.28558,54.9374 3.66629,55.1256C3.79065,55.1871 3.9019,55.2742 3.99146,55.3802C4.14119,55.5573 4.22672,55.7843 4.23109,56.0162C4.23319,56.1277 4.21383,56.2396 4.20297,56.3503C4.19526,56.4481 4.18942,56.5456 4.18519,56.6437C4.1586,57.6418 4.32655,58.6329 4.50221,59.6118C4.60086,60.1464 4.70394,60.6802 4.80301,61.2148C4.94843,62.0201 5.08479,62.8293 5.13732,63.6469C5.15416,63.9089 5.15902,64.1708 5.16086,64.4333C5.16324,64.771 5.16176,65.1088 5.15697,65.4465C5.14377,66.3762 5.10513,67.3054 5.0505,68.2336C4.91184,70.589 4.67233,72.9371 4.46732,75.2872C4.42509,75.7851 4.38435,76.2831 4.34544,76.7814C4.28473,77.6037 4.22901,78.4263 4.19063,79.25C4.16591,79.7806 4.15178,80.3114 4.13065,80.8421C4.12177,81.0462 4.11178,81.2502 4.10179,81.4542C4.01841,82.9406 3.8878,84.4228 3.71426,85.9014C3.30956,89.3496 2.70354,92.7704 2.15102,96.1968C2.06828,96.7192 1.98598,97.2415 1.90574,97.7642C1.66996,99.3241 1.45197,100.887 1.28403,102.456C1.17253,103.497 1.0859,104.541 1.02102,105.586L1.00303,105.723C0.970662,105.842 0.968293,105.874 0.912125,105.984C0.806724,106.191 0.630483,106.358 0.41834,106.451C0.30529,106.501 0.272705,106.502 0.152702,106.528C0.106662,106.531 0.0606225,106.535 0.0145829,106.538Z" style="fill:white;fill-rule:nonzero;"/>
            </g>
            <g>
                <path d="M16.659,69.7619C16.6249,69.7588 16.5905,69.7575 16.5566,69.7527C16.4548,69.7383 16.3552,69.7084 16.2623,69.6642C15.8832,69.4837 15.6502,69.0753 15.6877,68.6571C15.7,68.5205 15.7402,68.3866 15.8054,68.2659C15.8217,68.2357 15.8409,68.2073 15.8587,68.178C15.9462,68.0622 16.04,67.9517 16.1262,67.8348C16.5753,67.2106 16.8742,66.4954 17.1215,65.7712C17.365,65.0579 17.563,64.3297 17.7743,63.6066C17.8454,63.3681 17.9173,63.1299 17.9921,62.8926C18.3261,61.8555 18.7245,60.8269 19.3418,59.9217C19.5331,59.6413 19.7503,59.3793 19.9765,59.1265C20.2429,58.8288 20.5231,58.5435 20.8088,58.2645C21.5672,57.5239 22.3656,56.8244 23.1716,56.1363C24.8422,54.7103 26.5595,53.3401 28.2602,51.9506C28.6015,51.6701 28.9423,51.3892 29.2812,51.1058C29.6589,50.7878 30.0358,50.4686 30.4002,50.1355C30.5125,50.0328 30.6237,49.9288 30.7319,49.8218C30.8201,49.7344 30.9074,49.6453 30.986,49.5491L30.9956,49.5368C31.2069,49.0556 31.4199,48.5753 31.6345,48.0957C31.8019,47.7255 31.971,47.3561 32.1421,46.9876C32.7968,45.5916 33.4788,44.2036 34.2752,42.8819C34.5268,42.4644 34.7903,42.0538 35.0746,41.6578C35.1806,41.5103 35.2894,41.3648 35.4021,41.2223C35.4436,41.1698 35.5005,41.0966 35.5487,41.0476C35.6209,40.9742 35.7041,40.912 35.7949,40.8636C36.1012,40.7002 36.4791,40.7066 36.7797,40.8801C36.8688,40.9315 36.95,40.9965 37.0196,41.0723C37.1124,41.1733 37.1843,41.2931 37.2298,41.4226C37.3097,41.6499 37.3055,41.9028 37.218,42.1273C37.1848,42.2127 37.1701,42.2311 37.1245,42.3101C37.0175,42.4585 36.9011,42.6 36.792,42.7469C36.4024,43.2835 36.0533,43.8474 35.7243,44.4228C35.4486,44.905 35.187,45.3952 34.9339,45.8896C34.1755,47.3714 33.4956,48.8914 32.8266,50.4151L32.7924,50.4861C32.5714,50.8808 32.2357,51.1995 31.9082,51.5055C31.5412,51.8485 31.1598,52.176 30.7762,52.5002C30.2216,52.9691 29.6597,53.4295 29.0965,53.8882C28.2908,54.5444 27.4836,55.1988 26.6788,55.8562C26.2665,56.1947 25.8548,56.5337 25.4447,56.8747C24.4726,57.6872 23.5048,58.507 22.5823,59.376C22.3005,59.6414 22.023,59.9116 21.7558,60.1918C21.521,60.4379 21.2901,60.691 21.0889,60.9657C20.9951,61.0938 20.9099,61.2283 20.8291,61.3648C20.4562,61.9944 20.1942,62.6836 19.9682,63.3774C19.7313,64.1047 19.5315,64.8435 19.3135,65.5764C19.2555,65.7658 19.1972,65.9548 19.1366,66.1433C18.8195,67.1085 18.4399,68.0622 17.8579,68.9016C17.7678,69.0316 17.6731,69.1584 17.5738,69.2816C17.5206,69.3477 17.4672,69.4158 17.4062,69.4751C17.3325,69.5468 17.2479,69.6072 17.1561,69.6536C17.0642,69.7 16.9654,69.7323 16.8639,69.7491C16.8301,69.7547 16.7958,69.7568 16.7618,69.7607C16.7275,69.7611 16.6933,69.7615 16.659,69.7619Z" style="fill:white;fill-rule:nonzero;"/>
            </g>
        </g>
    </g>
</svg>
